<svg width="600" height="562" viewBox="0 0 600 562" fill="none" xmlns="http://www.w3.org/2000/svg">
<circle cx="319" cy="281" r="281" fill="#5859F4" fill-opacity="0.06"/>
<circle cx="319" cy="281" r="247" fill="#5859F4" fill-opacity="0.06"/>
<circle cx="319" cy="281" r="209" fill="#5859F4" fill-opacity="0.06"/>
<g filter="url(#filter0_d_221_1193)">
<rect x="93" y="198" width="483.261" height="303.638" rx="5.90543" fill="white"/>
<rect x="93.5" y="198.5" width="482.261" height="302.638" rx="5.40543" stroke="#E6E6E6"/>
</g>
<g filter="url(#filter1_d_221_1193)">
<rect x="12" y="88.6333" width="457" height="87.0255" rx="5.58452" fill="white"/>
</g>
<path d="M159.436 277.723L542.305 277.723" stroke="#F0F0F0" stroke-width="0.984239"/>
<path d="M159.436 298.393L542.305 298.393" stroke="#F0F0F0" stroke-width="0.984239"/>
<path d="M159.436 319.062L542.305 319.062" stroke="#F0F0F0" stroke-width="0.984239"/>
<path d="M159.436 339.73L542.305 339.731" stroke="#F0F0F0" stroke-width="0.984239"/>
<path d="M159.436 360.4L542.305 360.4" stroke="#F0F0F0" stroke-width="0.984239"/>
<path d="M159.436 381.069L542.305 381.069" stroke="#F0F0F0" stroke-width="0.984239"/>
<path d="M159.436 401.737L542.305 401.738" stroke="#F0F0F0" stroke-width="0.984239"/>
<path d="M159.436 422.407L542.305 422.407" stroke="#F0F0F0" stroke-width="0.984239"/>
<path d="M159.436 443.076L542.305 443.076" stroke="#F0F0F0" stroke-width="0.984239"/>
<path d="M54.4874 133.986C58.9631 133.986 62.1641 131.524 62.1544 128.119C62.1641 125.638 60.5879 123.867 57.6593 123.497V123.342C59.8874 122.943 61.4247 121.367 61.4149 119.129C61.4247 115.986 58.6712 113.515 54.5458 113.515C50.4593 113.515 47.3847 115.908 47.3263 119.353H51.3641C51.4128 117.835 52.8041 116.852 54.5263 116.852C56.229 116.852 57.3674 117.883 57.3576 119.382C57.3674 120.948 56.0344 122.009 54.1176 122.009H52.2593V125.103H54.1176C56.3749 125.103 57.7858 126.231 57.776 127.837C57.7858 129.423 56.4236 130.513 54.4971 130.513C52.6387 130.513 51.2474 129.54 51.1695 128.08H46.9274C46.9955 131.563 50.109 133.986 54.4874 133.986ZM63.9222 130.211H73.4865V133.714H77.5146V130.211H79.986V126.835H77.5146V113.787H72.2411L63.9222 126.893V130.211ZM73.5644 126.835H68.1644V126.679L73.4087 118.38H73.5644V126.835ZM89.647 134.151C94.6578 134.151 97.6838 130.337 97.6935 123.77C97.7032 117.251 94.6384 113.515 89.647 113.515C84.6459 113.515 81.6103 117.241 81.6005 123.77C81.5811 130.318 84.6265 134.142 89.647 134.151ZM89.647 130.658C87.3605 130.658 85.8816 128.362 85.8913 123.77C85.9011 119.246 87.3703 116.969 89.647 116.969C91.914 116.969 93.393 119.246 93.393 123.77C93.4027 128.362 91.9238 130.658 89.647 130.658Z" fill="#3F3F3F"/>
<path d="M44.6732 143.539H46.0891C46.0614 142.166 44.8913 141.195 43.162 141.195C41.4565 141.195 40.1754 142.155 40.1794 143.59C40.1794 144.756 41.0083 145.427 42.345 145.772L43.2691 146.01C44.1457 146.232 44.7247 146.506 44.7287 147.136C44.7247 147.83 44.0663 148.294 43.1065 148.294C42.1863 148.294 41.4724 147.882 41.4129 147.029H39.9652C40.0247 148.643 41.2265 149.552 43.1184 149.552C45.0658 149.552 46.1962 148.58 46.2002 147.148C46.1962 145.74 45.0341 145.098 43.8125 144.808L43.051 144.618C42.3846 144.459 41.6628 144.177 41.6707 143.499C41.6747 142.888 42.222 142.44 43.1422 142.44C44.0187 142.44 44.5978 142.849 44.6732 143.539ZM48.4935 145.859C48.4935 144.979 49.0408 144.471 49.8103 144.471C50.5639 144.471 51.0081 144.951 51.0081 145.772V149.429H52.4439V145.55C52.4439 144.078 51.611 143.257 50.3457 143.257C49.4097 143.257 48.8147 143.682 48.5331 144.372H48.4617V141.306H47.0577V149.429H48.4935V145.859ZM55.2696 149.552C56.2255 149.552 56.7966 149.103 57.0584 148.592H57.106V149.429H58.4863V145.351C58.4863 143.741 57.1734 143.257 56.0113 143.257C54.7302 143.257 53.7466 143.828 53.4293 144.939L54.7699 145.129C54.9126 144.713 55.3172 144.356 56.0192 144.356C56.6856 144.356 57.0505 144.697 57.0505 145.296V145.32C57.0505 145.732 56.6181 145.752 55.5433 145.867C54.3613 145.994 53.2309 146.347 53.2309 147.719C53.2309 148.917 54.1075 149.552 55.2696 149.552ZM55.6424 148.497C55.0435 148.497 54.6152 148.223 54.6152 147.695C54.6152 147.144 55.0951 146.914 55.7376 146.823C56.1144 146.771 56.868 146.676 57.0544 146.525V147.243C57.0544 147.922 56.5071 148.497 55.6424 148.497ZM59.5391 149.429H60.9749V145.847C60.9749 145.074 61.5579 144.526 62.3472 144.526C62.5891 144.526 62.8906 144.57 63.0135 144.61V143.289C62.8826 143.265 62.6566 143.249 62.4979 143.249C61.7998 143.249 61.2168 143.646 60.9947 144.352H60.9312V143.337H59.5391V149.429ZM66.0227 149.548C67.4426 149.548 68.4183 148.854 68.6722 147.795L67.3316 147.644C67.1372 148.16 66.6613 148.429 66.0425 148.429C65.1144 148.429 64.4997 147.818 64.4878 146.775H68.7317V146.335C68.7317 144.197 67.4466 143.257 65.9473 143.257C64.2022 143.257 63.0639 144.538 63.0639 146.418C63.0639 148.33 64.1863 149.548 66.0227 149.548ZM64.4917 145.807C64.5354 145.03 65.1105 144.376 65.9672 144.376C66.7922 144.376 67.3474 144.979 67.3554 145.807H64.4917ZM71.8162 149.536C72.8633 149.536 73.3353 148.913 73.5614 148.469H73.6486V149.429H75.0606V141.306H73.6209V144.344H73.5614C73.3432 143.904 72.895 143.257 71.8202 143.257C70.4121 143.257 69.3056 144.36 69.3056 146.391C69.3056 148.397 70.3804 149.536 71.8162 149.536ZM72.2168 148.358C71.2689 148.358 70.7691 147.525 70.7691 146.383C70.7691 145.248 71.2609 144.435 72.2168 144.435C73.1409 144.435 73.6486 145.201 73.6486 146.383C73.6486 147.565 73.133 148.358 72.2168 148.358ZM78.6427 149.429H80.1142V146.684H81.669C83.545 146.684 84.5524 145.558 84.5524 143.995C84.5524 142.444 83.5569 141.306 81.6888 141.306H78.6427V149.429ZM80.1142 145.474V142.535H81.4627C82.5653 142.535 83.0532 143.13 83.0532 143.995C83.0532 144.86 82.5653 145.474 81.4706 145.474H80.1142ZM87.9464 149.548C89.7312 149.548 90.8655 148.29 90.8655 146.406C90.8655 144.518 89.7312 143.257 87.9464 143.257C86.1615 143.257 85.0272 144.518 85.0272 146.406C85.0272 148.29 86.1615 149.548 87.9464 149.548ZM87.9543 148.397C86.9667 148.397 86.4828 147.517 86.4828 146.402C86.4828 145.288 86.9667 144.396 87.9543 144.396C88.926 144.396 89.4099 145.288 89.4099 146.402C89.4099 147.517 88.926 148.397 87.9543 148.397ZM96.5083 144.947C96.31 143.916 95.485 143.257 94.0572 143.257C92.5896 143.257 91.5901 143.979 91.5941 145.105C91.5901 145.994 92.1375 146.581 93.3075 146.823L94.3467 147.041C94.9059 147.164 95.1677 147.39 95.1677 147.735C95.1677 148.152 94.7156 148.465 94.0334 148.465C93.375 148.465 92.9466 148.179 92.8236 147.632L91.4236 147.767C91.602 148.885 92.542 149.548 94.0373 149.548C95.5604 149.548 96.6352 148.758 96.6392 147.604C96.6352 146.736 96.076 146.204 94.9258 145.954L93.8866 145.732C93.2679 145.593 93.022 145.379 93.0259 145.026C93.022 144.614 93.4781 144.328 94.077 144.328C94.7394 144.328 95.0884 144.689 95.1995 145.09L96.5083 144.947ZM100.474 143.337H99.2726V141.877H97.8368V143.337H96.9721V144.447H97.8368V147.834C97.8289 148.981 98.6618 149.544 99.7406 149.512C100.149 149.5 100.431 149.421 100.585 149.369L100.343 148.247C100.264 148.267 100.102 148.302 99.9231 148.302C99.5621 148.302 99.2726 148.175 99.2726 147.596V144.447H100.474V143.337ZM106.012 144.947C105.814 143.916 104.989 143.257 103.561 143.257C102.093 143.257 101.094 143.979 101.098 145.105C101.094 145.994 101.641 146.581 102.811 146.823L103.85 147.041C104.41 147.164 104.671 147.39 104.671 147.735C104.671 148.152 104.219 148.465 103.537 148.465C102.879 148.465 102.45 148.179 102.327 147.632L100.927 147.767C101.106 148.885 102.046 149.548 103.541 149.548C105.064 149.548 106.139 148.758 106.143 147.604C106.139 146.736 105.58 146.204 104.429 145.954L103.39 145.732C102.772 145.593 102.526 145.379 102.53 145.026C102.526 144.614 102.982 144.328 103.581 144.328C104.243 144.328 104.592 144.689 104.703 145.09L106.012 144.947Z" fill="#3F3F3F"/>
<path d="M122.007 438.104H120.966L118.819 439.53V440.587L120.916 439.195H120.966V446.694H122.007V438.104ZM126.865 446.811C128.761 446.811 129.852 445.205 129.852 442.399C129.852 439.614 128.744 437.987 126.865 437.987C124.986 437.987 123.879 439.614 123.879 442.399C123.879 445.205 124.97 446.811 126.865 446.811ZM126.865 445.889C125.616 445.889 124.886 444.634 124.886 442.399C124.886 440.168 125.624 438.893 126.865 438.893C128.107 438.893 128.845 440.168 128.845 442.399C128.845 444.634 128.115 445.889 126.865 445.889ZM133.834 446.811C135.73 446.811 136.82 445.205 136.82 442.399C136.82 439.614 135.713 437.987 133.834 437.987C131.955 437.987 130.848 439.614 130.848 442.399C130.848 445.205 131.938 446.811 133.834 446.811ZM133.834 445.889C132.584 445.889 131.854 444.634 131.854 442.399C131.854 440.168 132.592 438.893 133.834 438.893C135.075 438.893 135.813 440.168 135.813 442.399C135.813 444.634 135.084 445.889 133.834 445.889ZM140.802 446.811C142.698 446.811 143.788 445.205 143.788 442.399C143.788 439.614 142.681 437.987 140.802 437.987C138.923 437.987 137.816 439.614 137.816 442.399C137.816 445.205 138.906 446.811 140.802 446.811ZM140.802 445.889C139.552 445.889 138.823 444.634 138.823 442.399C138.823 440.168 139.561 438.893 140.802 438.893C142.044 438.893 142.782 440.168 142.782 442.399C142.782 444.634 142.052 445.889 140.802 445.889Z" fill="#AFAFAF"/>
<path d="M181.229 484.095H182.303L184.199 477.25H184.266L186.162 484.095H187.235L189.584 475.505H188.527L186.732 482.501H186.648L184.82 475.505H183.645L181.816 482.501H181.733L179.937 475.505H178.881L181.229 484.095ZM192.434 484.229C193.742 484.229 194.699 483.575 195.001 482.602L194.044 482.333C193.793 483.004 193.21 483.34 192.434 483.34C191.272 483.34 190.471 482.589 190.425 481.209H195.101V480.79C195.101 478.391 193.675 477.569 192.333 477.569C190.588 477.569 189.431 478.944 189.431 480.924C189.431 482.904 190.572 484.229 192.434 484.229ZM190.425 480.354C190.492 479.351 191.201 478.458 192.333 478.458C193.407 478.458 194.095 479.263 194.095 480.354H190.425ZM198.895 484.229C200.203 484.229 201.16 483.575 201.462 482.602L200.505 482.333C200.254 483.004 199.671 483.34 198.895 483.34C197.733 483.34 196.932 482.589 196.886 481.209H201.562V480.79C201.562 478.391 200.136 477.569 198.794 477.569C197.049 477.569 195.892 478.944 195.892 480.924C195.892 482.904 197.033 484.229 198.895 484.229ZM196.886 480.354C196.953 479.351 197.662 478.458 198.794 478.458C199.868 478.458 200.556 479.263 200.556 480.354H196.886ZM202.655 484.095H203.644V481.683L204.336 481.042L206.748 484.095H208.006L205.083 480.404L207.805 477.653H206.58L203.762 480.522H203.644V475.505H202.655V484.095ZM214.577 475.505H213.537L211.39 476.931V477.988L213.487 476.596H213.537V484.095H214.577V475.505Z" fill="#AFAFAF"/>
<path d="M258.492 484.095H259.566L261.462 477.25H261.529L263.425 484.095H264.499L266.847 475.505H265.79L263.995 482.501H263.911L262.083 475.505H260.908L259.08 482.501H258.996L257.201 475.505H256.144L258.492 484.095ZM269.697 484.229C271.006 484.229 271.962 483.575 272.264 482.602L271.308 482.333C271.056 483.004 270.473 483.34 269.697 483.34C268.535 483.34 267.734 482.589 267.688 481.209H272.365V480.79C272.365 478.391 270.939 477.569 269.596 477.569C267.852 477.569 266.694 478.944 266.694 480.924C266.694 482.904 267.835 484.229 269.697 484.229ZM267.688 480.354C267.755 479.351 268.464 478.458 269.596 478.458C270.67 478.458 271.358 479.263 271.358 480.354H267.688ZM276.158 484.229C277.467 484.229 278.423 483.575 278.725 482.602L277.769 482.333C277.517 483.004 276.934 483.34 276.158 483.34C274.996 483.34 274.195 482.589 274.149 481.209H278.825V480.79C278.825 478.391 277.399 477.569 276.057 477.569C274.313 477.569 273.155 478.944 273.155 480.924C273.155 482.904 274.296 484.229 276.158 484.229ZM274.149 480.354C274.216 479.351 274.925 478.458 276.057 478.458C277.131 478.458 277.819 479.263 277.819 480.354H274.149ZM279.918 484.095H280.908V481.683L281.6 481.042L284.011 484.095H285.27L282.346 480.404L285.068 477.653H283.844L281.025 480.522H280.908V475.505H279.918V484.095ZM288.821 484.095H294.239V483.172H290.247V483.105L292.176 481.042C293.652 479.46 294.088 478.722 294.088 477.77C294.088 476.445 293.015 475.388 291.505 475.388C289.999 475.388 288.854 476.411 288.854 477.921H289.844C289.844 476.944 290.477 476.294 291.471 476.294C292.402 476.294 293.115 476.864 293.115 477.77C293.115 478.563 292.65 479.15 291.656 480.236L288.821 483.34V484.095Z" fill="#AFAFAF"/>
<path d="M335.262 484.095H336.336L338.232 477.25H338.299L340.194 484.095H341.268L343.617 475.505H342.56L340.765 482.501H340.681L338.852 475.505H337.678L335.849 482.501H335.765L333.97 475.505H332.913L335.262 484.095ZM346.467 484.229C347.775 484.229 348.731 483.575 349.033 482.602L348.077 482.333C347.825 483.004 347.243 483.34 346.467 483.34C345.305 483.34 344.504 482.589 344.458 481.209H349.134V480.79C349.134 478.391 347.708 477.569 346.366 477.569C344.621 477.569 343.464 478.944 343.464 480.924C343.464 482.904 344.604 484.229 346.467 484.229ZM344.458 480.354C344.525 479.351 345.233 478.458 346.366 478.458C347.44 478.458 348.127 479.263 348.127 480.354H344.458ZM352.927 484.229C354.236 484.229 355.192 483.575 355.494 482.602L354.538 482.333C354.286 483.004 353.703 483.34 352.927 483.34C351.766 483.34 350.965 482.589 350.918 481.209H355.595V480.79C355.595 478.391 354.169 477.569 352.827 477.569C351.082 477.569 349.924 478.944 349.924 480.924C349.924 482.904 351.065 484.229 352.927 484.229ZM350.918 480.354C350.986 479.351 351.694 478.458 352.827 478.458C353.901 478.458 354.588 479.263 354.588 480.354H350.918ZM356.687 484.095H357.677V481.683L358.369 481.042L360.781 484.095H362.039L359.116 480.404L361.838 477.653H360.613L357.795 480.522H357.677V475.505H356.687V484.095ZM368.492 484.212C370.158 484.212 371.395 483.168 371.395 481.763C371.395 480.673 370.749 479.88 369.667 479.699V479.632C370.535 479.368 371.076 478.655 371.076 477.686C371.076 476.47 370.116 475.388 368.526 475.388C367.041 475.388 365.808 476.302 365.758 477.653H366.764C366.802 476.797 367.616 476.294 368.509 476.294C369.457 476.294 370.069 476.868 370.069 477.737C370.069 478.643 369.361 479.23 368.341 479.23H367.654V480.152H368.341C369.646 480.152 370.371 480.815 370.371 481.763C370.371 482.673 369.579 483.29 368.476 483.29C367.482 483.29 366.693 482.778 366.63 481.948H365.573C365.636 483.298 366.827 484.212 368.492 484.212Z" fill="#AFAFAF"/>
<path d="M412.525 484.095H413.599L415.495 477.25H415.562L417.458 484.095H418.531L420.88 475.505H419.823L418.028 482.501H417.944L416.115 475.505H414.941L413.112 482.501H413.029L411.233 475.505H410.176L412.525 484.095ZM423.73 484.229C425.038 484.229 425.995 483.575 426.297 482.602L425.34 482.333C425.089 483.004 424.506 483.34 423.73 483.34C422.568 483.34 421.767 482.589 421.721 481.209H426.397V480.79C426.397 478.391 424.971 477.569 423.629 477.569C421.884 477.569 420.727 478.944 420.727 480.924C420.727 482.904 421.868 484.229 423.73 484.229ZM421.721 480.354C421.788 479.351 422.497 478.458 423.629 478.458C424.703 478.458 425.391 479.263 425.391 480.354H421.721ZM430.191 484.229C431.499 484.229 432.456 483.575 432.758 482.602L431.801 482.333C431.55 483.004 430.967 483.34 430.191 483.34C429.029 483.34 428.228 482.589 428.182 481.209H432.858V480.79C432.858 478.391 431.432 477.569 430.09 477.569C428.345 477.569 427.188 478.944 427.188 480.924C427.188 482.904 428.328 484.229 430.191 484.229ZM428.182 480.354C428.249 479.351 428.958 478.458 430.09 478.458C431.164 478.458 431.852 479.263 431.852 480.354H428.182ZM433.951 484.095H434.94V481.683L435.632 481.042L438.044 484.095H439.302L436.379 480.404L439.101 477.653H437.876L435.058 480.522H434.94V475.505H433.951V484.095ZM442.652 482.333H446.695V484.095H447.685V482.333H448.859V481.411H447.685V475.505H446.427L442.652 481.478V482.333ZM446.695 481.411H443.776V481.344L446.628 476.831H446.695V481.411Z" fill="#AFAFAF"/>
<path d="M489.296 484.095H490.37L492.266 477.25H492.333L494.229 484.095H495.302L497.651 475.505H496.594L494.799 482.501H494.715L492.886 475.505H491.712L489.883 482.501H489.8L488.004 475.505H486.947L489.296 484.095ZM500.501 484.229C501.809 484.229 502.766 483.575 503.068 482.602L502.111 482.333C501.86 483.004 501.277 483.34 500.501 483.34C499.339 483.34 498.538 482.589 498.492 481.209H503.168V480.79C503.168 478.391 501.742 477.569 500.4 477.569C498.655 477.569 497.498 478.944 497.498 480.924C497.498 482.904 498.639 484.229 500.501 484.229ZM498.492 480.354C498.559 479.351 499.268 478.458 500.4 478.458C501.474 478.458 502.162 479.263 502.162 480.354H498.492ZM506.962 484.229C508.27 484.229 509.227 483.575 509.529 482.602L508.572 482.333C508.321 483.004 507.738 483.34 506.962 483.34C505.8 483.34 504.999 482.589 504.953 481.209H509.629V480.79C509.629 478.391 508.203 477.569 506.861 477.569C505.116 477.569 503.959 478.944 503.959 480.924C503.959 482.904 505.099 484.229 506.962 484.229ZM504.953 480.354C505.02 479.351 505.729 478.458 506.861 478.458C507.935 478.458 508.623 479.263 508.623 480.354H504.953ZM510.722 484.095H511.711V481.683L512.403 481.042L514.815 484.095H516.073L513.15 480.404L515.872 477.653H514.647L511.829 480.522H511.711V475.505H510.722V484.095ZM522.309 484.212C523.944 484.212 525.144 483.004 525.144 481.36C525.144 479.695 523.986 478.475 522.409 478.475C521.83 478.475 521.268 478.68 520.916 478.961H520.866L521.168 476.428H524.758V475.505H520.295L519.775 479.733L520.748 479.85C521.105 479.595 521.713 479.41 522.241 479.414C523.336 479.423 524.137 480.253 524.137 481.377C524.137 482.48 523.365 483.29 522.309 483.29C521.428 483.29 520.727 482.723 520.648 481.948H519.641C519.704 483.256 520.832 484.212 522.309 484.212Z" fill="#AFAFAF"/>
<path d="M117.511 426.025H122.93V425.102H118.937V425.035L120.867 422.971C122.343 421.39 122.779 420.652 122.779 419.7C122.779 418.374 121.705 417.318 120.196 417.318C118.69 417.318 117.545 418.341 117.545 419.851H118.535C118.535 418.874 119.168 418.223 120.162 418.223C121.093 418.223 121.806 418.794 121.806 419.7C121.806 420.493 121.341 421.08 120.347 422.166L117.511 425.27V426.025ZM127.051 426.142C128.946 426.142 130.037 424.536 130.037 421.73C130.037 418.945 128.93 417.318 127.051 417.318C125.172 417.318 124.064 418.945 124.064 421.73C124.064 424.536 125.155 426.142 127.051 426.142ZM127.051 425.219C125.801 425.219 125.071 423.965 125.071 421.73C125.071 419.498 125.809 418.223 127.051 418.223C128.292 418.223 129.03 419.498 129.03 421.73C129.03 423.965 128.301 425.219 127.051 425.219ZM134.019 426.142C135.915 426.142 137.005 424.536 137.005 421.73C137.005 418.945 135.898 417.318 134.019 417.318C132.14 417.318 131.033 418.945 131.033 421.73C131.033 424.536 132.123 426.142 134.019 426.142ZM134.019 425.219C132.769 425.219 132.039 423.965 132.039 421.73C132.039 419.498 132.778 418.223 134.019 418.223C135.261 418.223 135.999 419.498 135.999 421.73C135.999 423.965 135.269 425.219 134.019 425.219ZM140.988 426.142C142.883 426.142 143.974 424.536 143.974 421.73C143.974 418.945 142.867 417.318 140.988 417.318C139.109 417.318 138.001 418.945 138.001 421.73C138.001 424.536 139.092 426.142 140.988 426.142ZM140.988 425.219C139.738 425.219 139.008 423.965 139.008 421.73C139.008 419.498 139.746 418.223 140.988 418.223C142.229 418.223 142.967 419.498 142.967 421.73C142.967 423.965 142.237 425.219 140.988 425.219Z" fill="#AFAFAF"/>
<path d="M119.921 405.473C121.587 405.473 122.824 404.429 122.824 403.024C122.824 401.933 122.178 401.141 121.096 400.96V400.893C121.964 400.629 122.505 399.916 122.505 398.947C122.505 397.731 121.545 396.649 119.955 396.649C118.47 396.649 117.237 397.563 117.187 398.914H118.193C118.231 398.058 119.045 397.555 119.938 397.555C120.886 397.555 121.498 398.129 121.498 398.998C121.498 399.903 120.79 400.491 119.77 400.491H119.083V401.413H119.77C121.075 401.413 121.8 402.076 121.8 403.024C121.8 403.934 121.008 404.551 119.905 404.551C118.911 404.551 118.122 404.039 118.059 403.209H117.002C117.065 404.559 118.256 405.473 119.921 405.473ZM126.928 405.473C128.823 405.473 129.914 403.867 129.914 401.061C129.914 398.276 128.807 396.649 126.928 396.649C125.049 396.649 123.941 398.276 123.941 401.061C123.941 403.867 125.032 405.473 126.928 405.473ZM126.928 404.551C125.678 404.551 124.948 403.297 124.948 401.061C124.948 398.83 125.686 397.555 126.928 397.555C128.169 397.555 128.907 398.83 128.907 401.061C128.907 403.297 128.177 404.551 126.928 404.551ZM133.896 405.473C135.792 405.473 136.882 403.867 136.882 401.061C136.882 398.276 135.775 396.649 133.896 396.649C132.017 396.649 130.91 398.276 130.91 401.061C130.91 403.867 132 405.473 133.896 405.473ZM133.896 404.551C132.646 404.551 131.916 403.297 131.916 401.061C131.916 398.83 132.655 397.555 133.896 397.555C135.137 397.555 135.876 398.83 135.876 401.061C135.876 403.297 135.146 404.551 133.896 404.551ZM140.864 405.473C142.76 405.473 143.851 403.867 143.851 401.061C143.851 398.276 142.743 396.649 140.864 396.649C138.985 396.649 137.878 398.276 137.878 401.061C137.878 403.867 138.969 405.473 140.864 405.473ZM140.864 404.551C139.615 404.551 138.885 403.297 138.885 401.061C138.885 398.83 139.623 397.555 140.864 397.555C142.106 397.555 142.844 398.83 142.844 401.061C142.844 403.297 142.114 404.551 140.864 404.551Z" fill="#AFAFAF"/>
<path d="M116.818 382.925H120.861V384.687H121.851V382.925H123.025V382.002H121.851V376.097H120.593L116.818 382.07V382.925ZM120.861 382.002H117.942V381.935L120.794 377.422H120.861V382.002ZM126.985 384.804C128.881 384.804 129.972 383.198 129.972 380.392C129.972 377.607 128.864 375.98 126.985 375.98C125.106 375.98 123.999 377.607 123.999 380.392C123.999 383.198 125.089 384.804 126.985 384.804ZM126.985 383.881C125.735 383.881 125.006 382.627 125.006 380.392C125.006 378.161 125.744 376.886 126.985 376.886C128.227 376.886 128.965 378.161 128.965 380.392C128.965 382.627 128.235 383.881 126.985 383.881ZM133.954 384.804C135.849 384.804 136.94 383.198 136.94 380.392C136.94 377.607 135.833 375.98 133.954 375.98C132.075 375.98 130.967 377.607 130.967 380.392C130.967 383.198 132.058 384.804 133.954 384.804ZM133.954 383.881C132.704 383.881 131.974 382.627 131.974 380.392C131.974 378.161 132.712 376.886 133.954 376.886C135.195 376.886 135.933 378.161 135.933 380.392C135.933 382.627 135.204 383.881 133.954 383.881ZM140.922 384.804C142.818 384.804 143.908 383.198 143.908 380.392C143.908 377.607 142.801 375.98 140.922 375.98C139.043 375.98 137.936 377.607 137.936 380.392C137.936 383.198 139.026 384.804 140.922 384.804ZM140.922 383.881C139.672 383.881 138.942 382.627 138.942 380.392C138.942 378.161 139.681 376.886 140.922 376.886C142.164 376.886 142.902 378.161 142.902 380.392C142.902 382.627 142.172 383.881 140.922 383.881Z" fill="#AFAFAF"/>
<path d="M120.196 364.135C121.831 364.135 123.031 362.927 123.031 361.283C123.031 359.618 121.873 358.397 120.296 358.397C119.717 358.397 119.155 358.603 118.803 358.884H118.753L119.055 356.351H122.645V355.428H118.182L117.662 359.656L118.635 359.773C118.992 359.517 119.6 359.333 120.128 359.337C121.223 359.345 122.024 360.176 122.024 361.3C122.024 362.403 121.252 363.212 120.196 363.212C119.315 363.212 118.614 362.646 118.535 361.87H117.528C117.591 363.179 118.719 364.135 120.196 364.135ZM127.085 364.135C128.981 364.135 130.072 362.529 130.072 359.723C130.072 356.938 128.964 355.31 127.085 355.31C125.206 355.31 124.099 356.938 124.099 359.723C124.099 362.529 125.19 364.135 127.085 364.135ZM127.085 363.212C125.835 363.212 125.106 361.958 125.106 359.723C125.106 357.491 125.844 356.216 127.085 356.216C128.327 356.216 129.065 357.491 129.065 359.723C129.065 361.958 128.335 363.212 127.085 363.212ZM134.054 364.135C135.949 364.135 137.04 362.529 137.04 359.723C137.04 356.938 135.933 355.31 134.054 355.31C132.175 355.31 131.067 356.938 131.067 359.723C131.067 362.529 132.158 364.135 134.054 364.135ZM134.054 363.212C132.804 363.212 132.074 361.958 132.074 359.723C132.074 357.491 132.812 356.216 134.054 356.216C135.295 356.216 136.033 357.491 136.033 359.723C136.033 361.958 135.304 363.212 134.054 363.212ZM141.022 364.135C142.918 364.135 144.008 362.529 144.008 359.723C144.008 356.938 142.901 355.31 141.022 355.31C139.143 355.31 138.036 356.938 138.036 359.723C138.036 362.529 139.126 364.135 141.022 364.135ZM141.022 363.212C139.772 363.212 139.042 361.958 139.042 359.723C139.042 357.491 139.781 356.216 141.022 356.216C142.264 356.216 143.002 357.491 143.002 359.723C143.002 361.958 142.272 363.212 141.022 363.212Z" fill="#AFAFAF"/>
<path d="M119.871 343.466C121.608 343.487 122.74 342.179 122.74 340.581C122.74 338.92 121.511 337.729 120.039 337.729C119.154 337.729 118.395 338.161 117.925 338.869H117.858C117.862 336.777 118.676 335.564 120.005 335.564C120.911 335.564 121.457 336.135 121.649 336.907H122.673C122.463 335.573 121.448 334.642 120.005 334.642C118.072 334.642 116.885 336.353 116.885 339.39C116.885 342.565 118.462 343.45 119.871 343.466ZM119.871 342.544C118.793 342.544 118.005 341.625 118.009 340.597C118.013 339.57 118.839 338.651 119.905 338.651C120.957 338.651 121.733 339.515 121.733 340.581C121.733 341.671 120.924 342.544 119.871 342.544ZM126.778 343.466C128.673 343.466 129.764 341.86 129.764 339.054C129.764 336.269 128.657 334.642 126.778 334.642C124.899 334.642 123.791 336.269 123.791 339.054C123.791 341.86 124.882 343.466 126.778 343.466ZM126.778 342.544C125.528 342.544 124.798 341.29 124.798 339.054C124.798 336.823 125.536 335.548 126.778 335.548C128.019 335.548 128.757 336.823 128.757 339.054C128.757 341.29 128.028 342.544 126.778 342.544ZM133.746 343.466C135.642 343.466 136.732 341.86 136.732 339.054C136.732 336.269 135.625 334.642 133.746 334.642C131.867 334.642 130.76 336.269 130.76 339.054C130.76 341.86 131.85 343.466 133.746 343.466ZM133.746 342.544C132.496 342.544 131.766 341.29 131.766 339.054C131.766 336.823 132.505 335.548 133.746 335.548C134.988 335.548 135.726 336.823 135.726 339.054C135.726 341.29 134.996 342.544 133.746 342.544ZM140.714 343.466C142.61 343.466 143.701 341.86 143.701 339.054C143.701 336.269 142.593 334.642 140.714 334.642C138.835 334.642 137.728 336.269 137.728 339.054C137.728 341.86 138.819 343.466 140.714 343.466ZM140.714 342.544C139.465 342.544 138.735 341.29 138.735 339.054C138.735 336.823 139.473 335.548 140.714 335.548C141.956 335.548 142.694 336.823 142.694 339.054C142.694 341.29 141.964 342.544 140.714 342.544Z" fill="#AFAFAF"/>
<path d="M118.271 322.68H119.362L123.187 315.063V314.09H117.684V315.013H122.113V315.08L118.271 322.68ZM126.954 322.797C128.85 322.797 129.94 321.191 129.94 318.385C129.94 315.6 128.833 313.973 126.954 313.973C125.075 313.973 123.968 315.6 123.968 318.385C123.968 321.191 125.058 322.797 126.954 322.797ZM126.954 321.874C125.704 321.874 124.974 320.62 124.974 318.385C124.974 316.154 125.713 314.878 126.954 314.878C128.196 314.878 128.934 316.154 128.934 318.385C128.934 320.62 128.204 321.874 126.954 321.874ZM133.923 322.797C135.818 322.797 136.909 321.191 136.909 318.385C136.909 315.6 135.802 313.973 133.923 313.973C132.044 313.973 130.936 315.6 130.936 318.385C130.936 321.191 132.027 322.797 133.923 322.797ZM133.923 321.874C132.673 321.874 131.943 320.62 131.943 318.385C131.943 316.154 132.681 314.878 133.923 314.878C135.164 314.878 135.902 316.154 135.902 318.385C135.902 320.62 135.172 321.874 133.923 321.874ZM140.891 322.797C142.787 322.797 143.877 321.191 143.877 318.385C143.877 315.6 142.77 313.973 140.891 313.973C139.012 313.973 137.905 315.6 137.905 318.385C137.905 321.191 138.995 322.797 140.891 322.797ZM140.891 321.874C139.641 321.874 138.911 320.62 138.911 318.385C138.911 316.154 139.649 314.878 140.891 314.878C142.132 314.878 142.871 316.154 142.871 318.385C142.871 320.62 142.141 321.874 140.891 321.874Z" fill="#AFAFAF"/>
<path d="M120.263 302.128C121.978 302.128 123.173 301.126 123.182 299.729C123.173 298.643 122.448 297.72 121.521 297.548V297.498C122.326 297.288 122.855 296.5 122.863 295.585C122.855 294.277 121.756 293.304 120.263 293.304C118.753 293.304 117.654 294.277 117.662 295.585C117.654 296.5 118.182 297.288 119.004 297.498V297.548C118.061 297.72 117.335 298.643 117.343 299.729C117.335 301.126 118.53 302.128 120.263 302.128ZM120.263 301.205C119.084 301.205 118.358 300.601 118.367 299.679C118.358 298.71 119.16 298.018 120.263 298.018C121.349 298.018 122.15 298.71 122.158 299.679C122.15 300.601 121.424 301.205 120.263 301.205ZM120.263 297.129C119.323 297.129 118.66 296.542 118.669 295.652C118.66 294.78 119.298 294.21 120.263 294.21C121.211 294.21 121.848 294.78 121.856 295.652C121.848 296.542 121.185 297.129 120.263 297.129ZM127.178 302.128C129.073 302.128 130.164 300.522 130.164 297.716C130.164 294.931 129.057 293.304 127.178 293.304C125.299 293.304 124.191 294.931 124.191 297.716C124.191 300.522 125.282 302.128 127.178 302.128ZM127.178 301.205C125.928 301.205 125.198 299.951 125.198 297.716C125.198 295.485 125.936 294.21 127.178 294.21C128.419 294.21 129.157 295.485 129.157 297.716C129.157 299.951 128.427 301.205 127.178 301.205ZM134.146 302.128C136.042 302.128 137.132 300.522 137.132 297.716C137.132 294.931 136.025 293.304 134.146 293.304C132.267 293.304 131.16 294.931 131.16 297.716C131.16 300.522 132.25 302.128 134.146 302.128ZM134.146 301.205C132.896 301.205 132.166 299.951 132.166 297.716C132.166 295.485 132.904 294.21 134.146 294.21C135.387 294.21 136.126 295.485 136.126 297.716C136.126 299.951 135.396 301.205 134.146 301.205ZM141.114 302.128C143.01 302.128 144.101 300.522 144.101 297.716C144.101 294.931 142.993 293.304 141.114 293.304C139.235 293.304 138.128 294.931 138.128 297.716C138.128 300.522 139.219 302.128 141.114 302.128ZM141.114 301.205C139.865 301.205 139.135 299.951 139.135 297.716C139.135 295.485 139.873 294.21 141.114 294.21C142.356 294.21 143.094 295.485 143.094 297.716C143.094 299.951 142.364 301.205 141.114 301.205Z" fill="#AFAFAF"/>
<path d="M119.754 272.634C118.009 272.613 116.885 273.926 116.885 275.503C116.885 277.164 118.11 278.355 119.586 278.355C120.475 278.355 121.23 277.919 121.7 277.214H121.767C121.767 279.328 120.945 280.536 119.619 280.536C118.714 280.536 118.16 279.966 117.975 279.177H116.952C117.153 280.536 118.177 281.459 119.619 281.459C121.549 281.459 122.74 279.748 122.74 276.694C122.74 273.54 121.163 272.651 119.754 272.634ZM119.754 273.557C120.827 273.557 121.616 274.48 121.616 275.486C121.616 276.51 120.777 277.433 119.72 277.433C118.663 277.433 117.891 276.577 117.891 275.503C117.891 274.43 118.697 273.557 119.754 273.557ZM126.778 281.459C128.673 281.459 129.764 279.853 129.764 277.047C129.764 274.262 128.657 272.634 126.778 272.634C124.899 272.634 123.791 274.262 123.791 277.047C123.791 279.853 124.882 281.459 126.778 281.459ZM126.778 280.536C125.528 280.536 124.798 279.282 124.798 277.047C124.798 274.815 125.536 273.54 126.778 273.54C128.019 273.54 128.757 274.815 128.757 277.047C128.757 279.282 128.028 280.536 126.778 280.536ZM133.746 281.459C135.642 281.459 136.732 279.853 136.732 277.047C136.732 274.262 135.625 272.634 133.746 272.634C131.867 272.634 130.76 274.262 130.76 277.047C130.76 279.853 131.85 281.459 133.746 281.459ZM133.746 280.536C132.496 280.536 131.766 279.282 131.766 277.047C131.766 274.815 132.505 273.54 133.746 273.54C134.988 273.54 135.726 274.815 135.726 277.047C135.726 279.282 134.996 280.536 133.746 280.536ZM140.714 281.459C142.61 281.459 143.701 279.853 143.701 277.047C143.701 274.262 142.593 272.634 140.714 272.634C138.835 272.634 137.728 274.262 137.728 277.047C137.728 279.853 138.819 281.459 140.714 281.459ZM140.714 280.536C139.465 280.536 138.735 279.282 138.735 277.047C138.735 274.815 139.473 273.54 140.714 273.54C141.956 273.54 142.694 274.815 142.694 277.047C142.694 279.282 141.964 280.536 140.714 280.536Z" fill="#AFAFAF"/>
<path d="M121.502 223.977H119.298V236.146H121.502V223.977ZM123.209 236.146H125.36V230.596C125.36 229.473 126.108 228.712 127.035 228.712C127.944 228.712 128.568 229.324 128.568 230.263V236.146H130.678V230.453C130.678 229.425 131.29 228.712 132.329 228.712C133.197 228.712 133.886 229.223 133.886 230.352V236.146H136.043V230.02C136.043 227.981 134.866 226.9 133.191 226.9C131.866 226.9 130.856 227.554 130.452 228.57H130.357C130.006 227.536 129.121 226.9 127.891 226.9C126.667 226.9 125.752 227.53 125.372 228.57H125.265V227.019H123.209V236.146ZM137.639 239.568H139.79V234.708H139.88C140.218 235.373 140.925 236.306 142.494 236.306C144.645 236.306 146.255 234.601 146.255 231.594C146.255 228.552 144.597 226.9 142.488 226.9C140.878 226.9 140.206 227.869 139.88 228.528H139.755V227.019H137.639V239.568ZM139.749 231.582C139.749 229.812 140.509 228.665 141.894 228.665C143.326 228.665 144.063 229.883 144.063 231.582C144.063 233.293 143.314 234.541 141.894 234.541C140.521 234.541 139.749 233.353 139.749 231.582ZM147.511 236.146H149.662V230.78C149.662 229.621 150.536 228.801 151.718 228.801C152.081 228.801 152.532 228.867 152.716 228.926V226.948C152.52 226.912 152.182 226.888 151.944 226.888C150.898 226.888 150.025 227.482 149.692 228.54H149.597V227.019H147.511V236.146ZM157.224 236.324C159.352 236.324 160.813 235.284 161.193 233.697L159.185 233.472C158.894 234.244 158.181 234.648 157.254 234.648C155.864 234.648 154.943 233.733 154.925 232.17H161.283V231.511C161.283 228.308 159.357 226.9 157.111 226.9C154.497 226.9 152.792 228.819 152.792 231.636C152.792 234.5 154.473 236.324 157.224 236.324ZM154.931 230.721C154.996 229.556 155.858 228.576 157.141 228.576C158.377 228.576 159.209 229.479 159.221 230.721H154.931ZM169.73 229.431C169.433 227.886 168.197 226.9 166.058 226.9C163.859 226.9 162.362 227.981 162.368 229.669C162.362 231 163.182 231.879 164.935 232.242L166.492 232.569C167.329 232.753 167.722 233.091 167.722 233.608C167.722 234.232 167.044 234.702 166.022 234.702C165.036 234.702 164.394 234.274 164.21 233.454L162.113 233.656C162.38 235.331 163.788 236.324 166.028 236.324C168.31 236.324 169.92 235.141 169.926 233.412C169.92 232.111 169.082 231.315 167.359 230.941L165.802 230.608C164.876 230.4 164.507 230.079 164.513 229.55C164.507 228.932 165.19 228.504 166.088 228.504C167.08 228.504 167.603 229.045 167.769 229.645L169.73 229.431ZM178.327 229.431C178.03 227.886 176.794 226.9 174.655 226.9C172.457 226.9 170.96 227.981 170.965 229.669C170.96 231 171.78 231.879 173.532 232.242L175.089 232.569C175.927 232.753 176.319 233.091 176.319 233.608C176.319 234.232 175.642 234.702 174.62 234.702C173.633 234.702 172.992 234.274 172.807 233.454L170.71 233.656C170.977 235.331 172.386 236.324 174.626 236.324C176.907 236.324 178.518 235.141 178.523 233.412C178.518 232.111 177.68 231.315 175.957 230.941L174.4 230.608C173.473 230.4 173.105 230.079 173.11 229.55C173.105 228.932 173.788 228.504 174.685 228.504C175.677 228.504 176.2 229.045 176.367 229.645L178.327 229.431ZM179.711 236.146H181.862V227.019H179.711V236.146ZM180.793 225.724C181.476 225.724 182.035 225.201 182.035 224.559C182.035 223.911 181.476 223.389 180.793 223.389C180.104 223.389 179.545 223.911 179.545 224.559C179.545 225.201 180.104 225.724 180.793 225.724ZM187.47 236.324C190.143 236.324 191.843 234.44 191.843 231.618C191.843 228.79 190.143 226.9 187.47 226.9C184.796 226.9 183.096 228.79 183.096 231.618C183.096 234.44 184.796 236.324 187.47 236.324ZM187.481 234.601C186.002 234.601 185.277 233.282 185.277 231.612C185.277 229.942 186.002 228.605 187.481 228.605C188.937 228.605 189.662 229.942 189.662 231.612C189.662 233.282 188.937 234.601 187.481 234.601ZM195.234 230.798C195.234 229.479 196.03 228.718 197.165 228.718C198.276 228.718 198.941 229.449 198.941 230.667V236.146H201.092V230.334C201.098 228.148 199.85 226.9 197.967 226.9C196.6 226.9 195.661 227.554 195.246 228.57H195.139V227.019H193.083V236.146H195.234V230.798ZM209.907 229.431C209.609 227.886 208.374 226.9 206.234 226.9C204.036 226.9 202.539 227.981 202.545 229.669C202.539 231 203.359 231.879 205.111 232.242L206.668 232.569C207.506 232.753 207.898 233.091 207.898 233.608C207.898 234.232 207.221 234.702 206.199 234.702C205.213 234.702 204.571 234.274 204.387 233.454L202.289 233.656C202.557 235.331 203.965 236.324 206.205 236.324C208.486 236.324 210.097 235.141 210.103 233.412C210.097 232.111 209.259 231.315 207.536 230.941L205.979 230.608C205.052 230.4 204.684 230.079 204.69 229.55C204.684 228.932 205.367 228.504 206.264 228.504C207.256 228.504 207.779 229.045 207.946 229.645L209.907 229.431Z" fill="#3F3F3F"/>
<path d="M196.268 142.539H198.779V149.429H200.238V142.539H202.749V141.306H196.268V142.539ZM205.318 149.548C207.103 149.548 208.237 148.29 208.237 146.406C208.237 144.518 207.103 143.257 205.318 143.257C203.533 143.257 202.399 144.518 202.399 146.406C202.399 148.29 203.533 149.548 205.318 149.548ZM205.326 148.397C204.338 148.397 203.854 147.517 203.854 146.402C203.854 145.288 204.338 144.396 205.326 144.396C206.297 144.396 206.781 145.288 206.781 146.402C206.781 147.517 206.297 148.397 205.326 148.397ZM212.107 143.337H210.905V141.877H209.469V143.337H208.605V144.447H209.469V147.834C209.461 148.981 210.294 149.544 211.373 149.512C211.782 149.5 212.063 149.421 212.218 149.369L211.976 148.247C211.897 148.267 211.734 148.302 211.556 148.302C211.195 148.302 210.905 148.175 210.905 147.596V144.447H212.107V143.337ZM214.67 149.552C215.626 149.552 216.197 149.103 216.459 148.592H216.506V149.429H217.886V145.351C217.886 143.741 216.574 143.257 215.411 143.257C214.13 143.257 213.147 143.828 212.829 144.939L214.17 145.129C214.313 144.713 214.717 144.356 215.419 144.356C216.086 144.356 216.451 144.697 216.451 145.296V145.32C216.451 145.732 216.018 145.752 214.943 145.867C213.762 145.994 212.631 146.347 212.631 147.719C212.631 148.917 213.508 149.552 214.67 149.552ZM215.043 148.497C214.444 148.497 214.015 148.223 214.015 147.695C214.015 147.144 214.495 146.914 215.138 146.823C215.515 146.771 216.268 146.676 216.455 146.525V147.243C216.455 147.922 215.907 148.497 215.043 148.497ZM220.375 141.306H218.939V149.429H220.375V141.306ZM225.375 141.306H223.904V149.429H225.375V141.306ZM226.514 149.429H227.95V145.724C227.95 144.975 228.45 144.467 229.068 144.467C229.675 144.467 230.092 144.875 230.092 145.502V149.429H231.5V145.629C231.5 144.943 231.908 144.467 232.602 144.467C233.181 144.467 233.642 144.808 233.642 145.562V149.429H235.081V145.339C235.081 143.979 234.296 143.257 233.177 143.257C232.293 143.257 231.619 143.693 231.349 144.372H231.286C231.052 143.682 230.461 143.257 229.64 143.257C228.823 143.257 228.212 143.678 227.958 144.372H227.886V143.337H226.514V149.429ZM236.147 151.713H237.583V148.469H237.642C237.868 148.913 238.34 149.536 239.387 149.536C240.823 149.536 241.898 148.397 241.898 146.391C241.898 144.36 240.792 143.257 239.383 143.257C238.309 143.257 237.86 143.904 237.642 144.344H237.559V143.337H236.147V151.713ZM237.555 146.383C237.555 145.201 238.063 144.435 238.987 144.435C239.943 144.435 240.435 145.248 240.435 146.383C240.435 147.525 239.935 148.358 238.987 148.358C238.071 148.358 237.555 147.565 237.555 146.383ZM242.737 149.429H244.173V145.847C244.173 145.074 244.756 144.526 245.545 144.526C245.787 144.526 246.088 144.57 246.211 144.61V143.289C246.08 143.265 245.854 143.249 245.696 143.249C244.998 143.249 244.414 143.646 244.192 144.352H244.129V143.337H242.737V149.429ZM249.22 149.548C250.64 149.548 251.616 148.854 251.87 147.795L250.529 147.644C250.335 148.16 249.859 148.429 249.24 148.429C248.312 148.429 247.697 147.818 247.685 146.775H251.929V146.335C251.929 144.197 250.644 143.257 249.145 143.257C247.4 143.257 246.262 144.538 246.262 146.418C246.262 148.33 247.384 149.548 249.22 149.548ZM247.689 145.807C247.733 145.03 248.308 144.376 249.165 144.376C249.99 144.376 250.545 144.979 250.553 145.807H247.689ZM257.568 144.947C257.37 143.916 256.545 143.257 255.117 143.257C253.649 143.257 252.65 143.979 252.654 145.105C252.65 145.994 253.197 146.581 254.367 146.823L255.407 147.041C255.966 147.164 256.228 147.39 256.228 147.735C256.228 148.152 255.775 148.465 255.093 148.465C254.435 148.465 254.006 148.179 253.883 147.632L252.483 147.767C252.662 148.885 253.602 149.548 255.097 149.548C256.62 149.548 257.695 148.758 257.699 147.604C257.695 146.736 257.136 146.204 255.986 145.954L254.946 145.732C254.328 145.593 254.082 145.379 254.086 145.026C254.082 144.614 254.538 144.328 255.137 144.328C255.799 144.328 256.148 144.689 256.259 145.09L257.568 144.947ZM263.307 144.947C263.109 143.916 262.284 143.257 260.856 143.257C259.388 143.257 258.389 143.979 258.393 145.105C258.389 145.994 258.936 146.581 260.106 146.823L261.145 147.041C261.705 147.164 261.967 147.39 261.967 147.735C261.967 148.152 261.514 148.465 260.832 148.465C260.174 148.465 259.745 148.179 259.622 147.632L258.222 147.767C258.401 148.885 259.341 149.548 260.836 149.548C262.359 149.548 263.434 148.758 263.438 147.604C263.434 146.736 262.875 146.204 261.725 145.954L260.685 145.732C260.067 145.593 259.821 145.379 259.825 145.026C259.821 144.614 260.277 144.328 260.876 144.328C261.538 144.328 261.887 144.689 261.998 145.09L263.307 144.947ZM264.231 149.429H265.667V143.337H264.231V149.429ZM264.953 142.472C265.409 142.472 265.782 142.123 265.782 141.694C265.782 141.262 265.409 140.913 264.953 140.913C264.493 140.913 264.12 141.262 264.12 141.694C264.12 142.123 264.493 142.472 264.953 142.472ZM269.41 149.548C271.195 149.548 272.329 148.29 272.329 146.406C272.329 144.518 271.195 143.257 269.41 143.257C267.625 143.257 266.491 144.518 266.491 146.406C266.491 148.29 267.625 149.548 269.41 149.548ZM269.418 148.397C268.43 148.397 267.946 147.517 267.946 146.402C267.946 145.288 268.43 144.396 269.418 144.396C270.389 144.396 270.873 145.288 270.873 146.402C270.873 147.517 270.389 148.397 269.418 148.397ZM274.592 145.859C274.592 144.979 275.124 144.471 275.881 144.471C276.623 144.471 277.067 144.959 277.067 145.772V149.429H278.503V145.55C278.507 144.09 277.674 143.257 276.417 143.257C275.505 143.257 274.878 143.693 274.6 144.372H274.529V143.337H273.157V149.429H274.592V145.859ZM284.387 144.947C284.189 143.916 283.364 143.257 281.936 143.257C280.468 143.257 279.469 143.979 279.473 145.105C279.469 145.994 280.016 146.581 281.186 146.823L282.225 147.041C282.785 147.164 283.046 147.39 283.046 147.735C283.046 148.152 282.594 148.465 281.912 148.465C281.254 148.465 280.825 148.179 280.702 147.632L279.302 147.767C279.481 148.885 280.421 149.548 281.916 149.548C283.439 149.548 284.514 148.758 284.518 147.604C284.514 146.736 283.955 146.204 282.804 145.954L281.765 145.732C281.146 145.593 280.901 145.379 280.905 145.026C280.901 144.614 281.357 144.328 281.956 144.328C282.618 144.328 282.967 144.689 283.078 145.09L284.387 144.947Z" fill="#3F3F3F"/>
<path d="M355.632 149.429H357.083L358.714 143.729H358.777L360.403 149.429H361.855L364.147 141.306H362.565L361.101 147.279H361.03L359.463 141.306H358.023L356.461 147.275H356.385L354.922 141.306H353.339L355.632 149.429ZM366.789 149.548C368.209 149.548 369.184 148.854 369.438 147.795L368.098 147.644C367.903 148.16 367.427 148.429 366.808 148.429C365.88 148.429 365.266 147.818 365.254 146.775H369.498V146.335C369.498 144.197 368.213 143.257 366.713 143.257C364.968 143.257 363.83 144.538 363.83 146.418C363.83 148.33 364.952 149.548 366.789 149.548ZM365.258 145.807C365.301 145.03 365.876 144.376 366.733 144.376C367.558 144.376 368.113 144.979 368.121 145.807H365.258ZM373.018 149.548C374.438 149.548 375.414 148.854 375.668 147.795L374.327 147.644C374.133 148.16 373.657 148.429 373.038 148.429C372.11 148.429 371.495 147.818 371.484 146.775H375.727V146.335C375.727 144.197 374.442 143.257 372.943 143.257C371.198 143.257 370.06 144.538 370.06 146.418C370.06 148.33 371.182 149.548 373.018 149.548ZM371.487 145.807C371.531 145.03 372.106 144.376 372.963 144.376C373.788 144.376 374.343 144.979 374.351 145.807H371.487ZM376.551 149.429H377.987V147.382L378.511 146.823L380.375 149.429H382.092L379.593 145.966L381.953 143.337H380.276L378.086 145.784H377.987V141.306H376.551V149.429ZM383.955 141.306H382.519V149.429H383.955V141.306ZM385.933 151.713C387.051 151.713 387.698 151.138 388.043 150.166L390.49 143.344L388.955 143.337L387.547 147.937H387.484L386.08 143.337H384.557L386.766 149.556L386.643 149.885C386.377 150.579 385.957 150.627 385.33 150.444L384.997 151.563C385.191 151.642 385.54 151.713 385.933 151.713ZM398.981 143.9H400.48C400.23 142.305 398.85 141.195 397.053 141.195C394.927 141.195 393.333 142.757 393.333 145.375C393.333 147.945 394.856 149.54 397.097 149.54C399.107 149.54 400.547 148.247 400.547 146.153V145.177H397.251V146.327H399.123C399.1 147.485 398.326 148.219 397.104 148.219C395.744 148.219 394.812 147.2 394.812 145.359C394.812 143.531 395.76 142.515 397.073 142.515C398.052 142.515 398.719 143.039 398.981 143.9ZM404.173 149.548C405.958 149.548 407.092 148.29 407.092 146.406C407.092 144.518 405.958 143.257 404.173 143.257C402.388 143.257 401.254 144.518 401.254 146.406C401.254 148.29 402.388 149.548 404.173 149.548ZM404.181 148.397C403.193 148.397 402.71 147.517 402.71 146.402C402.71 145.288 403.193 144.396 404.181 144.396C405.153 144.396 405.637 145.288 405.637 146.402C405.637 147.517 405.153 148.397 404.181 148.397ZM407.92 149.429H409.356V145.847C409.356 145.074 409.939 144.526 410.728 144.526C410.97 144.526 411.272 144.57 411.395 144.61V143.289C411.264 143.265 411.038 143.249 410.879 143.249C410.181 143.249 409.598 143.646 409.376 144.352H409.312V143.337H407.92V149.429ZM413.313 149.429H414.812L415.954 145.312H416.038L417.18 149.429H418.675L420.401 143.337H418.933L417.878 147.596H417.819L416.724 143.337H415.276L414.182 147.62H414.126L413.055 143.337H411.592L413.313 149.429ZM423.506 149.548C425.291 149.548 426.425 148.29 426.425 146.406C426.425 144.518 425.291 143.257 423.506 143.257C421.721 143.257 420.587 144.518 420.587 146.406C420.587 148.29 421.721 149.548 423.506 149.548ZM423.514 148.397C422.526 148.397 422.042 147.517 422.042 146.402C422.042 145.288 422.526 144.396 423.514 144.396C424.486 144.396 424.97 145.288 424.97 146.402C424.97 147.517 424.486 148.397 423.514 148.397ZM430.295 143.337H429.093V141.877H427.658V143.337H426.793V144.447H427.658V147.834C427.65 148.981 428.483 149.544 429.561 149.512C429.97 149.5 430.251 149.421 430.406 149.369L430.164 148.247C430.085 148.267 429.922 148.302 429.744 148.302C429.383 148.302 429.093 148.175 429.093 147.596V144.447H430.295V143.337ZM432.672 145.859C432.672 144.979 433.219 144.471 433.988 144.471C434.742 144.471 435.186 144.951 435.186 145.772V149.429H436.622V145.55C436.622 144.078 435.789 143.257 434.524 143.257C433.588 143.257 432.993 143.682 432.711 144.372H432.64V141.306H431.236V149.429H432.672V145.859Z" fill="#3F3F3F"/>
<path d="M213.463 133.986C217.9 134.006 220.926 131.096 220.916 127.039C220.926 123.303 218.319 120.608 214.787 120.608C212.597 120.608 210.661 121.658 209.766 123.42H209.63C209.649 119.537 211.011 117.124 213.609 117.124C215.137 117.124 216.236 117.961 216.557 119.353H220.712C220.313 116.074 217.589 113.515 213.609 113.515C208.686 113.515 205.524 117.504 205.504 124.198C205.495 131.495 209.367 133.967 213.463 133.986ZM213.444 130.678C211.498 130.678 210.058 129.111 210.058 127.166C210.068 125.229 211.537 123.653 213.473 123.653C215.419 123.653 216.84 125.181 216.83 127.156C216.84 129.15 215.39 130.678 213.444 130.678ZM223.733 133.714H228.082L236.352 117.28V113.787H222.37V117.231H231.993V117.368L223.733 133.714ZM237.317 133.967C238.562 133.967 239.642 132.926 239.652 131.631C239.642 130.357 238.562 129.316 237.317 129.316C236.033 129.316 234.972 130.357 234.982 131.631C234.972 132.926 236.033 133.967 237.317 133.967ZM242.057 133.714H256.263V130.269H247.895V130.133L250.804 127.282C254.901 123.546 256 121.678 256 119.411C256 115.957 253.178 113.515 248.907 113.515C244.723 113.515 241.853 116.015 241.863 119.927H245.862C245.852 118.02 247.058 116.852 248.878 116.852C250.629 116.852 251.933 117.942 251.933 119.693C251.933 121.279 250.96 122.369 249.15 124.11L242.057 130.678V133.714ZM258.473 133.714H262.686V128.051L264.759 125.521L270.217 133.714H275.257L267.775 122.709L275.169 113.787H270.12L262.949 122.573H262.686V113.787H258.473V133.714Z" fill="#3F3F3F"/>
<path d="M374.484 133.986C378.921 134.006 381.947 131.096 381.937 127.039C381.947 123.303 379.339 120.608 375.807 120.608C373.618 120.608 371.682 121.658 370.787 123.42H370.65C370.67 119.537 372.032 117.124 374.63 117.124C376.157 117.124 377.257 117.961 377.578 119.353H381.733C381.334 116.074 378.609 113.515 374.63 113.515C369.707 113.515 366.544 117.504 366.525 124.198C366.515 131.495 370.388 133.967 374.484 133.986ZM374.464 130.678C372.518 130.678 371.078 129.111 371.078 127.166C371.088 125.229 372.557 123.653 374.494 123.653C376.44 123.653 377.86 125.181 377.85 127.156C377.86 129.15 376.41 130.678 374.464 130.678ZM383.663 130.211H393.228V133.714H397.256V130.211H399.727V126.835H397.256V113.787H391.982L383.663 126.893V130.211ZM393.305 126.835H387.905V126.679L393.15 118.38H393.305V126.835ZM412.482 129.977C412.492 132.371 414.019 134.404 416.87 134.404C419.692 134.404 421.268 132.371 421.258 129.977V128.927C421.268 126.514 419.731 124.5 416.87 124.5C414.058 124.5 412.492 126.533 412.482 128.927V129.977ZM402.256 118.574C402.266 120.968 403.794 122.982 406.635 122.982C409.466 122.982 411.042 120.987 411.032 118.574V117.523C411.042 115.11 409.505 113.096 406.635 113.096C403.852 113.096 402.266 115.11 402.256 117.523V118.574ZM403.21 133.714H405.749L419.449 113.787H416.909L403.21 133.714ZM415.314 128.927C415.323 127.973 415.703 126.99 416.87 126.99C418.096 126.99 418.417 127.973 418.408 128.927V129.977C418.417 130.931 418.057 131.894 416.87 131.894C415.683 131.894 415.323 130.902 415.314 129.977V128.927ZM405.107 117.523C405.117 116.599 405.477 115.587 406.635 115.587C407.861 115.587 408.191 116.57 408.182 117.523V118.574C408.191 119.528 407.822 120.491 406.635 120.491C405.487 120.491 405.117 119.528 405.107 118.574V117.523Z" fill="#3F3F3F"/>
<path d="M204.266 385.199L160 419.887V461H543V267C541.717 270.854 539.792 273.791 529.528 274.709C517.552 275.779 490.779 278.434 479.487 280.49C468.196 282.546 452.543 288.841 440.353 296.55C423.032 306.4 398.653 326.742 366.576 326.742C334.499 326.742 329.367 332.523 307.554 354.364C289.591 372.351 281.893 372.351 245.325 372.351C224.257 372.351 211.323 380.06 204.266 385.199Z" fill="url(#paint0_linear_221_1193)" fill-opacity="0.4"/>
<path d="M160 420L204.249 385.34C211.303 380.205 224.232 372.503 245.292 372.503C281.845 372.503 289.541 372.503 307.497 354.531C329.301 332.707 334.431 326.931 366.496 326.931C398.56 326.931 422.929 306.605 440.244 296.763C452.428 289.061 468.076 282.771 479.363 280.717C490.649 278.663 517.86 278.358 529.383 274.94C536.728 272.762 537.23 273.515 543 270" stroke="#5859F4" stroke-width="2.516"/>
<path d="M159.437 262.468V462.268H541.321" stroke="#C8C8C8" stroke-width="0.984239"/>
<path d="M353.121 115.16L357.957 123.536H348.285L353.121 115.16Z" fill="#6CCA88"/>
<defs>
<filter id="filter0_d_221_1193" x="84" y="189" width="501.261" height="321.638" filterUnits="userSpaceOnUse" color-interpolation-filters="sRGB">
<feFlood flood-opacity="0" result="BackgroundImageFix"/>
<feColorMatrix in="SourceAlpha" type="matrix" values="0 0 0 0 0 0 0 0 0 0 0 0 0 0 0 0 0 0 127 0" result="hardAlpha"/>
<feOffset/>
<feGaussianBlur stdDeviation="4.5"/>
<feColorMatrix type="matrix" values="0 0 0 0 0.395833 0 0 0 0 0.395833 0 0 0 0 0.395833 0 0 0 0.12 0"/>
<feBlend mode="normal" in2="BackgroundImageFix" result="effect1_dropShadow_221_1193"/>
<feBlend mode="normal" in="SourceGraphic" in2="effect1_dropShadow_221_1193" result="shape"/>
</filter>
<filter id="filter1_d_221_1193" x="0" y="76.6333" width="481" height="111.025" filterUnits="userSpaceOnUse" color-interpolation-filters="sRGB">
<feFlood flood-opacity="0" result="BackgroundImageFix"/>
<feColorMatrix in="SourceAlpha" type="matrix" values="0 0 0 0 0 0 0 0 0 0 0 0 0 0 0 0 0 0 127 0" result="hardAlpha"/>
<feOffset/>
<feGaussianBlur stdDeviation="6"/>
<feColorMatrix type="matrix" values="0 0 0 0 0 0 0 0 0 0 0 0 0 0 0 0 0 0 0.12 0"/>
<feBlend mode="normal" in2="BackgroundImageFix" result="effect1_dropShadow_221_1193"/>
<feBlend mode="normal" in="SourceGraphic" in2="effect1_dropShadow_221_1193" result="shape"/>
</filter>
<linearGradient id="paint0_linear_221_1193" x1="304.347" y1="288.841" x2="331.79" y2="460.602" gradientUnits="userSpaceOnUse">
<stop stop-color="#5859F4"/>
<stop offset="1" stop-color="#5859F4" stop-opacity="0"/>
</linearGradient>
</defs>
</svg>
