<svg width="461" height="383" viewBox="0 0 461 383" fill="none" xmlns="http://www.w3.org/2000/svg">
<g filter="url(#filter0_d_221_1197)">
<rect x="4" y="101" width="412" height="278" rx="8" fill="white"/>
</g>
<rect x="242" width="219" height="137" rx="8" fill="#808080"/>
<rect x="387" y="178" width="7" height="140" rx="3.5" fill="#E5E5E5"/>
<rect x="387" y="178" width="7" height="62" rx="3.5" fill="#ACACAC"/>
<path d="M28.5615 154.195V159H26.3145V146.069H31.2615C32.7062 146.069 33.8519 146.445 34.6986 147.196C35.5512 147.948 35.9775 148.943 35.9775 150.181C35.9775 151.448 35.5601 152.434 34.7252 153.138C33.8963 153.843 32.7328 154.195 31.2348 154.195H28.5615ZM28.5615 152.392H31.2615C32.0608 152.392 32.6707 152.206 33.091 151.833C33.5114 151.454 33.7216 150.909 33.7216 150.198C33.7216 149.5 33.5085 148.943 33.0822 148.529C32.6559 148.108 32.0697 147.892 31.3236 147.88H28.5615V152.392ZM42.59 151.362C42.3058 151.315 42.0127 151.291 41.7107 151.291C40.7219 151.291 40.0558 151.67 39.7124 152.428V159H37.5542V149.39H39.6147L39.668 150.465C40.189 149.63 40.9114 149.213 41.8351 149.213C42.143 149.213 42.3976 149.254 42.5989 149.337L42.59 151.362ZM43.0476 154.106C43.0476 153.165 43.2341 152.318 43.6071 151.566C43.9801 150.808 44.5041 150.228 45.1791 149.825C45.8541 149.417 46.6298 149.213 47.5061 149.213C48.8028 149.213 49.8538 149.63 50.659 150.465C51.4702 151.3 51.9083 152.407 51.9735 153.787L51.9824 154.293C51.9824 155.24 51.7988 156.087 51.4317 156.833C51.0705 157.579 50.5495 158.156 49.8686 158.565C49.1936 158.973 48.412 159.178 47.5238 159.178C46.1679 159.178 45.0814 158.728 44.2643 157.828C43.4532 156.922 43.0476 155.717 43.0476 154.213V154.106ZM45.2058 154.293C45.2058 155.282 45.41 156.057 45.8186 156.62C46.2271 157.176 46.7956 157.455 47.5238 157.455C48.2521 157.455 48.8176 157.17 49.2202 156.602C49.6288 156.034 49.833 155.202 49.833 154.106C49.833 153.135 49.6228 152.366 49.2024 151.797C48.788 151.229 48.2225 150.944 47.5061 150.944C46.8015 150.944 46.2419 151.226 45.8275 151.788C45.413 152.345 45.2058 153.18 45.2058 154.293ZM53.2215 154.124C53.2215 152.644 53.5649 151.457 54.2518 150.563C54.9386 149.663 55.8593 149.213 57.0139 149.213C58.0323 149.213 58.8553 149.568 59.483 150.278V145.358H61.6412V159H59.6872L59.5807 158.005C58.9353 158.787 58.0738 159.178 56.9961 159.178C55.8711 159.178 54.9593 158.725 54.2606 157.819C53.5679 156.913 53.2215 155.681 53.2215 154.124ZM55.3797 154.311C55.3797 155.288 55.5662 156.051 55.9392 156.602C56.3182 157.147 56.854 157.419 57.5468 157.419C58.429 157.419 59.0744 157.025 59.483 156.238V152.135C59.0863 151.365 58.4468 150.98 57.5646 150.98C56.8659 150.98 56.3271 151.258 55.9481 151.815C55.5692 152.366 55.3797 153.197 55.3797 154.311ZM69.5326 158.059C68.899 158.805 67.999 159.178 66.8326 159.178C65.7905 159.178 65 158.873 64.4612 158.263C63.9283 157.653 63.6619 156.771 63.6619 155.616V149.39H65.8201V155.59C65.8201 156.809 66.3263 157.419 67.3388 157.419C68.3868 157.419 69.0944 157.043 69.4615 156.291V149.39H71.6197V159H69.5858L69.5326 158.059ZM77.5838 157.455C78.1226 157.455 78.5697 157.298 78.9249 156.984C79.2802 156.67 79.4696 156.282 79.4933 155.82H81.5272C81.5035 156.418 81.317 156.978 80.9677 157.499C80.6183 158.014 80.1446 158.423 79.5466 158.725C78.9486 159.027 78.3032 159.178 77.6105 159.178C76.2664 159.178 75.2006 158.742 74.4131 157.872C73.6256 157.002 73.2319 155.8 73.2319 154.266V154.044C73.2319 152.582 73.6227 151.412 74.4042 150.536C75.1858 149.654 76.2516 149.213 77.6016 149.213C78.7443 149.213 79.6739 149.547 80.3904 150.216C81.1127 150.879 81.4917 151.753 81.5272 152.836H79.4933C79.4696 152.286 79.2802 151.833 78.9249 151.477C78.5756 151.122 78.1285 150.944 77.5838 150.944C76.8851 150.944 76.3463 151.199 75.9674 151.708C75.5884 152.212 75.396 152.978 75.3901 154.009V154.355C75.3901 155.397 75.5766 156.176 75.9496 156.691C76.3286 157.2 76.8733 157.455 77.5838 157.455ZM87.2071 159.178C85.8393 159.178 84.7292 158.748 83.8765 157.89C83.0298 157.025 82.6065 155.877 82.6065 154.444V154.177C82.6065 153.218 82.79 152.363 83.1571 151.611C83.5301 150.853 84.0512 150.264 84.7203 149.843C85.3893 149.423 86.1354 149.213 86.9584 149.213C88.2669 149.213 89.2765 149.63 89.987 150.465C90.7034 151.3 91.0617 152.481 91.0617 154.009V154.879H84.7824C84.8476 155.672 85.1111 156.3 85.5729 156.762C86.0407 157.224 86.6268 157.455 87.3314 157.455C88.3202 157.455 89.1255 157.055 89.7472 156.256L90.9107 157.366C90.5258 157.94 90.0107 158.387 89.3653 158.707C88.7258 159.021 88.0064 159.178 87.2071 159.178ZM86.9495 150.944C86.3574 150.944 85.8778 151.152 85.5107 151.566C85.1495 151.981 84.9186 152.558 84.818 153.298H88.9301V153.138C88.8827 152.416 88.6903 151.871 88.3528 151.504C88.0153 151.131 87.5475 150.944 86.9495 150.944ZM99.2064 159H97.0482V149.39H99.2064V159ZM96.9149 146.895C96.9149 146.563 97.0185 146.288 97.2258 146.069C97.4389 145.849 97.7409 145.74 98.1317 145.74C98.5225 145.74 98.8245 145.849 99.0376 146.069C99.2508 146.288 99.3573 146.563 99.3573 146.895C99.3573 147.22 99.2508 147.493 99.0376 147.712C98.8245 147.925 98.5225 148.031 98.1317 148.031C97.7409 148.031 97.4389 147.925 97.2258 147.712C97.0185 147.493 96.9149 147.22 96.9149 146.895ZM103.385 149.39L103.447 150.5C104.158 149.642 105.091 149.213 106.245 149.213C108.246 149.213 109.265 150.358 109.3 152.65V159H107.142V152.774C107.142 152.164 107.009 151.714 106.742 151.424C106.482 151.128 106.053 150.98 105.455 150.98C104.584 150.98 103.936 151.374 103.51 152.161V159H101.351V149.39H103.385ZM119.035 155.909L120.989 149.39H123.289L119.47 160.457C118.884 162.073 117.889 162.881 116.486 162.881C116.172 162.881 115.826 162.828 115.447 162.721V161.052L115.855 161.078C116.4 161.078 116.809 160.978 117.081 160.776C117.359 160.581 117.578 160.249 117.738 159.782L118.049 158.956L114.674 149.39H117.001L119.035 155.909ZM123.809 154.106C123.809 153.165 123.995 152.318 124.368 151.566C124.741 150.808 125.265 150.228 125.94 149.825C126.615 149.417 127.391 149.213 128.267 149.213C129.564 149.213 130.615 149.63 131.42 150.465C132.231 151.3 132.67 152.407 132.735 153.787L132.744 154.293C132.744 155.24 132.56 156.087 132.193 156.833C131.832 157.579 131.311 158.156 130.63 158.565C129.955 158.973 129.173 159.178 128.285 159.178C126.929 159.178 125.843 158.728 125.026 157.828C124.214 156.922 123.809 155.717 123.809 154.213V154.106ZM125.967 154.293C125.967 155.282 126.171 156.057 126.58 156.62C126.988 157.176 127.557 157.455 128.285 157.455C129.013 157.455 129.579 157.17 129.981 156.602C130.39 156.034 130.594 155.202 130.594 154.106C130.594 153.135 130.384 152.366 129.964 151.797C129.549 151.229 128.984 150.944 128.267 150.944C127.563 150.944 127.003 151.226 126.589 151.788C126.174 152.345 125.967 153.18 125.967 154.293ZM140.209 158.059C139.575 158.805 138.675 159.178 137.509 159.178C136.467 159.178 135.676 158.873 135.137 158.263C134.604 157.653 134.338 156.771 134.338 155.616V149.39H136.496V155.59C136.496 156.809 137.002 157.419 138.015 157.419C139.063 157.419 139.771 157.043 140.138 156.291V149.39H142.296V159H140.262L140.209 158.059ZM149.343 151.362C149.059 151.315 148.766 151.291 148.464 151.291C147.475 151.291 146.809 151.67 146.466 152.428V159H144.308V149.39H146.368L146.421 150.465C146.943 149.63 147.665 149.213 148.589 149.213C148.896 149.213 149.151 149.254 149.352 149.337L149.343 151.362ZM158.261 156.264L160.295 149.39H162.524L159.193 159H157.319L153.962 149.39H156.2L158.261 156.264ZM163.15 154.106C163.15 153.165 163.337 152.318 163.71 151.566C164.083 150.808 164.607 150.228 165.282 149.825C165.957 149.417 166.733 149.213 167.609 149.213C168.906 149.213 169.956 149.63 170.762 150.465C171.573 151.3 172.011 152.407 172.076 153.787L172.085 154.293C172.085 155.24 171.902 156.087 171.534 156.833C171.173 157.579 170.652 158.156 169.971 158.565C169.296 158.973 168.515 159.178 167.627 159.178C166.271 159.178 165.184 158.728 164.367 157.828C163.556 156.922 163.15 155.717 163.15 154.213V154.106ZM165.309 154.293C165.309 155.282 165.513 156.057 165.921 156.62C166.33 157.176 166.898 157.455 167.627 157.455C168.355 157.455 168.92 157.17 169.323 156.602C169.731 156.034 169.936 155.202 169.936 154.106C169.936 153.135 169.726 152.366 169.305 151.797C168.891 151.229 168.325 150.944 167.609 150.944C166.904 150.944 166.345 151.226 165.93 151.788C165.516 152.345 165.309 153.18 165.309 154.293ZM176.024 159H173.866V149.39H176.024V159ZM173.733 146.895C173.733 146.563 173.836 146.288 174.044 146.069C174.257 145.849 174.559 145.74 174.95 145.74C175.34 145.74 175.642 145.849 175.855 146.069C176.069 146.288 176.175 146.563 176.175 146.895C176.175 147.22 176.069 147.493 175.855 147.712C175.642 147.925 175.34 148.031 174.95 148.031C174.559 148.031 174.257 147.925 174.044 147.712C173.836 147.493 173.733 147.22 173.733 146.895ZM182.148 157.455C182.687 157.455 183.134 157.298 183.489 156.984C183.845 156.67 184.034 156.282 184.058 155.82H186.092C186.068 156.418 185.881 156.978 185.532 157.499C185.183 158.014 184.709 158.423 184.111 158.725C183.513 159.027 182.868 159.178 182.175 159.178C180.831 159.178 179.765 158.742 178.977 157.872C178.19 157.002 177.796 155.8 177.796 154.266V154.044C177.796 152.582 178.187 151.412 178.969 150.536C179.75 149.654 180.816 149.213 182.166 149.213C183.309 149.213 184.238 149.547 184.955 150.216C185.677 150.879 186.056 151.753 186.092 152.836H184.058C184.034 152.286 183.845 151.833 183.489 151.477C183.14 151.122 182.693 150.944 182.148 150.944C181.45 150.944 180.911 151.199 180.532 151.708C180.153 152.212 179.96 152.978 179.954 154.009V154.355C179.954 155.397 180.141 156.176 180.514 156.691C180.893 157.2 181.438 157.455 182.148 157.455ZM191.771 159.178C190.404 159.178 189.294 158.748 188.441 157.89C187.594 157.025 187.171 155.877 187.171 154.444V154.177C187.171 153.218 187.354 152.363 187.722 151.611C188.095 150.853 188.616 150.264 189.285 149.843C189.954 149.423 190.7 149.213 191.523 149.213C192.831 149.213 193.841 149.63 194.551 150.465C195.268 151.3 195.626 152.481 195.626 154.009V154.879H189.347C189.412 155.672 189.675 156.3 190.137 156.762C190.605 157.224 191.191 157.455 191.896 157.455C192.885 157.455 193.69 157.055 194.312 156.256L195.475 157.366C195.09 157.94 194.575 158.387 193.93 158.707C193.29 159.021 192.571 159.178 191.771 159.178ZM191.514 150.944C190.922 150.944 190.442 151.152 190.075 151.566C189.714 151.981 189.483 152.558 189.382 153.298H193.494V153.138C193.447 152.416 193.255 151.871 192.917 151.504C192.58 151.131 192.112 150.944 191.514 150.944Z" fill="#616161"/>
<path d="M263.279 27.7299C263.279 27.2878 263.123 26.947 262.809 26.7075C262.501 26.468 261.941 26.2263 261.131 25.9822C260.32 25.7381 259.676 25.4664 259.197 25.1671C258.28 24.5914 257.822 23.8408 257.822 22.9151C257.822 22.1046 258.151 21.4368 258.81 20.9118C259.473 20.3868 260.332 20.1244 261.386 20.1244C262.086 20.1244 262.71 20.2533 263.258 20.5112C263.807 20.7691 264.237 21.1375 264.55 21.6164C264.863 22.0908 265.02 22.6181 265.02 23.1983H263.279C263.279 22.6733 263.113 22.2635 262.782 21.9687C262.455 21.6694 261.985 21.5197 261.373 21.5197C260.802 21.5197 260.357 21.6418 260.039 21.8858C259.726 22.1299 259.57 22.4707 259.57 22.9082C259.57 23.2766 259.74 23.5852 260.081 23.8339C260.422 24.0779 260.984 24.3174 261.766 24.5523C262.549 24.7825 263.178 25.0473 263.652 25.3467C264.127 25.6414 264.474 25.9822 264.695 26.369C264.916 26.7513 265.027 27.2003 265.027 27.7161C265.027 28.5542 264.705 29.222 264.06 29.7193C263.42 30.2121 262.549 30.4585 261.449 30.4585C260.721 30.4585 260.051 30.3249 259.438 30.0578C258.831 29.7861 258.356 29.4131 258.015 28.9387C257.679 28.4644 257.511 27.9118 257.511 27.2809H259.259C259.259 27.8519 259.448 28.294 259.825 28.6072C260.203 28.9203 260.744 29.0769 261.449 29.0769C262.057 29.0769 262.512 28.9549 262.816 28.7108C263.125 28.4621 263.279 28.1351 263.279 27.7299ZM268.36 21.0293V22.846H269.679V24.0894H268.36V28.2618C268.36 28.5473 268.415 28.7545 268.526 28.8835C268.641 29.0078 268.844 29.07 269.134 29.07C269.327 29.07 269.523 29.047 269.721 29.0009V30.2996C269.339 30.4055 268.97 30.4585 268.616 30.4585C267.326 30.4585 266.681 29.747 266.681 28.3239V24.0894H265.452V22.846H266.681V21.0293H268.36ZM275.354 29.5881C274.862 30.1683 274.162 30.4585 273.254 30.4585C272.444 30.4585 271.829 30.2213 271.41 29.747C270.996 29.2726 270.788 28.5864 270.788 27.6884V22.846H272.467V27.6677C272.467 28.6164 272.861 29.0907 273.648 29.0907C274.463 29.0907 275.014 28.7983 275.299 28.2134V22.846H276.978V30.3203H275.396L275.354 29.5881ZM278.232 26.5279C278.232 25.3766 278.499 24.4533 279.033 23.7579C279.567 23.0579 280.283 22.7079 281.181 22.7079C281.973 22.7079 282.614 22.9842 283.102 23.5368V19.7099H284.78V30.3203H283.261L283.178 29.5466C282.676 30.1545 282.006 30.4585 281.167 30.4585C280.292 30.4585 279.583 30.1062 279.04 29.4016C278.501 28.697 278.232 27.7391 278.232 26.5279ZM279.91 26.673C279.91 27.4328 280.055 28.0269 280.345 28.4552C280.64 28.8789 281.057 29.0907 281.596 29.0907C282.282 29.0907 282.784 28.7845 283.102 28.172V24.9806C282.793 24.3819 282.296 24.0825 281.61 24.0825C281.066 24.0825 280.647 24.299 280.352 24.7319C280.058 25.1602 279.91 25.8072 279.91 26.673ZM288.176 30.3203H286.497V22.846H288.176V30.3203ZM286.393 20.9049C286.393 20.647 286.474 20.4329 286.635 20.2625C286.801 20.0921 287.036 20.0069 287.34 20.0069C287.644 20.0069 287.879 20.0921 288.044 20.2625C288.21 20.4329 288.293 20.647 288.293 20.9049C288.293 21.1582 288.21 21.3701 288.044 21.5405C287.879 21.7062 287.644 21.7891 287.34 21.7891C287.036 21.7891 286.801 21.7062 286.635 21.5405C286.474 21.3701 286.393 21.1582 286.393 20.9049ZM289.554 26.5141C289.554 25.7819 289.699 25.1233 289.989 24.5385C290.279 23.949 290.687 23.4977 291.212 23.1845C291.737 22.8668 292.34 22.7079 293.022 22.7079C294.03 22.7079 294.848 23.0325 295.474 23.6819C296.105 24.3312 296.446 25.1924 296.496 26.2654L296.503 26.6592C296.503 27.396 296.36 28.0545 296.075 28.6348C295.794 29.2151 295.389 29.6641 294.859 29.9818C294.334 30.2996 293.726 30.4585 293.035 30.4585C291.981 30.4585 291.136 30.1085 290.5 29.4085C289.869 28.7039 289.554 27.7667 289.554 26.597V26.5141ZM291.232 26.6592C291.232 27.4282 291.391 28.0315 291.709 28.469C292.027 28.9019 292.469 29.1183 293.035 29.1183C293.602 29.1183 294.042 28.8973 294.355 28.4552C294.673 28.0131 294.831 27.3661 294.831 26.5141C294.831 25.7588 294.668 25.1602 294.341 24.7181C294.019 24.276 293.579 24.0549 293.022 24.0549C292.474 24.0549 292.038 24.2737 291.716 24.7112C291.394 25.144 291.232 25.7934 291.232 26.6592ZM308.178 21.6717H305.041V30.3203H303.308V21.6717H300.199V20.2625H308.178V21.6717ZM310.986 30.3203H309.307V22.846H310.986V30.3203ZM309.204 20.9049C309.204 20.647 309.284 20.4329 309.445 20.2625C309.611 20.0921 309.846 20.0069 310.15 20.0069C310.454 20.0069 310.689 20.0921 310.855 20.2625C311.02 20.4329 311.103 20.647 311.103 20.9049C311.103 21.1582 311.02 21.3701 310.855 21.5405C310.689 21.7062 310.454 21.7891 310.15 21.7891C309.846 21.7891 309.611 21.7062 309.445 21.5405C309.284 21.3701 309.204 21.1582 309.204 20.9049ZM319.224 26.6592C319.224 27.8151 318.961 28.7384 318.436 29.4292C317.911 30.1154 317.206 30.4585 316.322 30.4585C315.503 30.4585 314.846 30.1891 314.354 29.6503V33.194H312.675V22.846H314.222L314.291 23.6059C314.784 23.0072 315.454 22.7079 316.302 22.7079C317.213 22.7079 317.927 23.0487 318.443 23.7302C318.963 24.4072 319.224 25.349 319.224 26.5555V26.6592ZM317.552 26.5141C317.552 25.7681 317.402 25.1763 317.103 24.7388C316.808 24.3013 316.384 24.0825 315.832 24.0825C315.146 24.0825 314.653 24.3658 314.354 24.9322V28.248C314.657 28.8282 315.155 29.1183 315.846 29.1183C316.38 29.1183 316.797 28.9042 317.096 28.4759C317.4 28.043 317.552 27.3891 317.552 26.5141ZM324.698 28.2894C324.698 27.9901 324.574 27.7621 324.325 27.6055C324.081 27.449 323.673 27.3108 323.102 27.1911C322.531 27.0713 322.055 26.9194 321.673 26.7351C320.834 26.3299 320.415 25.7427 320.415 24.9736C320.415 24.3289 320.687 23.7901 321.23 23.3572C321.774 22.9243 322.465 22.7079 323.303 22.7079C324.196 22.7079 324.917 22.9289 325.465 23.371C326.018 23.8131 326.294 24.3865 326.294 25.0911H324.615C324.615 24.7687 324.496 24.5016 324.256 24.2898C324.017 24.0733 323.699 23.9651 323.303 23.9651C322.934 23.9651 322.633 24.0503 322.398 24.2207C322.168 24.3911 322.052 24.619 322.052 24.9046C322.052 25.1625 322.161 25.3628 322.377 25.5056C322.594 25.6483 323.031 25.7934 323.69 25.9407C324.348 26.0835 324.864 26.2562 325.237 26.4588C325.615 26.6569 325.893 26.8963 326.073 27.1772C326.257 27.4582 326.349 27.799 326.349 28.1996C326.349 28.872 326.071 29.4177 325.513 29.8368C324.956 30.2512 324.226 30.4585 323.323 30.4585C322.711 30.4585 322.165 30.3479 321.686 30.1269C321.207 29.9058 320.834 29.6019 320.567 29.2151C320.3 28.8282 320.167 28.4114 320.167 27.9647H321.797C321.82 28.3608 321.97 28.667 322.246 28.8835C322.522 29.0953 322.888 29.2012 323.344 29.2012C323.786 29.2012 324.122 29.1183 324.353 28.9526C324.583 28.7822 324.698 28.5611 324.698 28.2894Z" fill="white"/>
<rect x="25" y="178" width="350" height="9" fill="#C4C4C4"/>
<rect x="257" y="47" width="188" height="10" fill="#C4C4C4"/>
<rect x="25" y="259" width="350" height="9" fill="#C4C4C4"/>
<rect x="25" y="194" width="350" height="10" fill="#C4C4C4"/>
<rect x="257" y="64" width="188" height="9" fill="#C4C4C4"/>
<rect x="25" y="275" width="340" height="10" fill="#C4C4C4"/>
<rect x="25" y="210" width="350" height="10" fill="#C4C4C4"/>
<rect x="257" y="80" width="188" height="10" fill="#C4C4C4"/>
<rect x="257" y="96" width="148" height="10" fill="#C4C4C4"/>
<rect x="25" y="291" width="350" height="10" fill="#C4C4C4"/>
<rect x="25" y="227" width="188" height="10" fill="#C4C4C4"/>
<rect x="25" y="308" width="188" height="10" fill="#C4C4C4"/>
<g filter="url(#filter1_d_221_1197)">
<rect x="333" y="330" width="61" height="27" rx="4.60015" fill="#5859F4"/>
<path d="M346.527 344.766V347.5H345.248V340.142H348.063C348.885 340.142 349.537 340.356 350.019 340.783C350.504 341.211 350.747 341.777 350.747 342.482C350.747 343.203 350.509 343.764 350.034 344.164C349.562 344.565 348.9 344.766 348.048 344.766H346.527ZM346.527 343.74H348.063C348.518 343.74 348.865 343.634 349.104 343.422C349.343 343.206 349.463 342.896 349.463 342.492C349.463 342.094 349.342 341.777 349.099 341.541C348.856 341.302 348.523 341.179 348.098 341.173H346.527V343.74ZM354.509 343.154C354.348 343.127 354.181 343.113 354.009 343.113C353.446 343.113 353.067 343.329 352.872 343.76V347.5H351.644V342.032H352.816L352.847 342.643C353.143 342.168 353.554 341.931 354.08 341.931C354.255 341.931 354.4 341.954 354.514 342.001L354.509 343.154ZM354.77 344.715C354.77 344.18 354.876 343.698 355.088 343.27C355.3 342.839 355.599 342.508 355.983 342.279C356.367 342.047 356.808 341.931 357.307 341.931C358.045 341.931 358.643 342.168 359.101 342.643C359.562 343.118 359.812 343.748 359.849 344.533L359.854 344.821C359.854 345.361 359.749 345.842 359.541 346.267C359.335 346.691 359.039 347.02 358.651 347.252C358.267 347.485 357.822 347.601 357.317 347.601C356.545 347.601 355.927 347.345 355.462 346.833C355 346.317 354.77 345.632 354.77 344.776V344.715ZM355.998 344.821C355.998 345.384 356.114 345.825 356.346 346.146C356.579 346.462 356.902 346.621 357.317 346.621C357.731 346.621 358.053 346.459 358.282 346.135C358.515 345.812 358.631 345.339 358.631 344.715C358.631 344.163 358.511 343.725 358.272 343.401C358.036 343.078 357.714 342.916 357.307 342.916C356.906 342.916 356.587 343.076 356.352 343.396C356.116 343.713 355.998 344.188 355.998 344.821ZM360.559 344.725C360.559 343.883 360.754 343.208 361.145 342.699C361.536 342.187 362.06 341.931 362.717 341.931C363.297 341.931 363.765 342.133 364.122 342.537V339.737H365.35V347.5H364.238L364.178 346.934C363.81 347.379 363.32 347.601 362.707 347.601C362.067 347.601 361.548 347.343 361.15 346.828C360.756 346.312 360.559 345.612 360.559 344.725ZM361.787 344.832C361.787 345.387 361.893 345.822 362.105 346.135C362.321 346.445 362.626 346.6 363.02 346.6C363.522 346.6 363.889 346.376 364.122 345.928V343.593C363.896 343.155 363.532 342.936 363.03 342.936C362.633 342.936 362.326 343.095 362.111 343.411C361.895 343.725 361.787 344.198 361.787 344.832ZM369.841 346.964C369.48 347.389 368.968 347.601 368.304 347.601C367.711 347.601 367.261 347.428 366.955 347.081C366.652 346.733 366.5 346.231 366.5 345.574V342.032H367.728V345.559C367.728 346.253 368.016 346.6 368.592 346.6C369.189 346.6 369.591 346.386 369.8 345.959V342.032H371.028V347.5H369.871L369.841 346.964ZM374.422 346.621C374.729 346.621 374.983 346.531 375.185 346.353C375.387 346.174 375.495 345.954 375.509 345.691H376.666C376.652 346.031 376.546 346.349 376.347 346.646C376.149 346.939 375.879 347.171 375.539 347.343C375.199 347.515 374.831 347.601 374.437 347.601C373.672 347.601 373.066 347.353 372.618 346.858C372.17 346.363 371.946 345.679 371.946 344.806V344.68C371.946 343.848 372.168 343.182 372.613 342.684C373.057 342.182 373.664 341.931 374.432 341.931C375.082 341.931 375.611 342.121 376.019 342.502C376.43 342.879 376.646 343.376 376.666 343.993H375.509C375.495 343.679 375.387 343.422 375.185 343.219C374.986 343.017 374.732 342.916 374.422 342.916C374.024 342.916 373.718 343.061 373.502 343.351C373.287 343.637 373.177 344.073 373.174 344.66V344.857C373.174 345.45 373.28 345.893 373.492 346.186C373.708 346.476 374.018 346.621 374.422 346.621ZM379.898 347.601C379.12 347.601 378.488 347.357 378.003 346.868C377.521 346.376 377.28 345.723 377.28 344.907V344.756C377.28 344.21 377.384 343.723 377.593 343.295C377.806 342.864 378.102 342.529 378.483 342.289C378.864 342.05 379.288 341.931 379.756 341.931C380.501 341.931 381.075 342.168 381.48 342.643C381.887 343.118 382.091 343.79 382.091 344.66V345.155H378.518C378.555 345.606 378.705 345.964 378.968 346.226C379.234 346.489 379.568 346.621 379.969 346.621C380.531 346.621 380.99 346.393 381.343 345.938L382.005 346.57C381.786 346.897 381.493 347.151 381.126 347.333C380.762 347.512 380.353 347.601 379.898 347.601ZM379.751 342.916C379.414 342.916 379.142 343.034 378.933 343.27C378.727 343.506 378.596 343.834 378.538 344.255H380.878V344.164C380.851 343.753 380.742 343.443 380.55 343.235C380.358 343.022 380.092 342.916 379.751 342.916Z" fill="white"/>
</g>
<path fill-rule="evenodd" clip-rule="evenodd" d="M57.4356 27.4941C57.4356 24.9786 54.5258 23.58 52.5615 25.1515L39.4158 35.668H31C27.6863 35.668 25 38.3543 25 41.668V51.2917C25 54.6055 27.6863 57.2917 31 57.2917H39.4158L52.5615 67.8083C54.5258 69.3797 57.4356 67.9812 57.4356 65.4657V27.4941Z" fill="#5859F4"/>
<path d="M88.9946 18.5255C87.6279 17.1585 85.4119 17.1581 84.0448 18.5248C82.6778 19.8914 82.6774 22.1075 84.0441 23.4745L88.9946 18.5255ZM84.0441 69.4854C82.6774 70.8525 82.6778 73.0685 84.0448 74.4352C85.4119 75.8018 87.6279 75.8015 88.9946 74.4344L84.0441 69.4854ZM76.2726 31.2474C74.906 29.8803 72.6899 29.88 71.3229 31.2466C69.9558 32.6132 69.9555 34.8293 71.3221 36.1964L76.2726 31.2474ZM71.3221 56.7273C69.9555 58.0944 69.9558 60.3104 71.3229 61.6771C72.6899 63.0437 74.906 63.0434 76.2726 61.6763L71.3221 56.7273ZM84.0441 23.4745C96.7469 36.1812 96.7469 56.7787 84.0441 69.4854L88.9946 74.4344C104.43 58.9942 104.43 33.9657 88.9946 18.5255L84.0441 23.4745ZM71.3221 36.1964C76.9904 41.8663 76.9904 51.0573 71.3221 56.7273L76.2726 61.6763C84.6735 53.2728 84.6735 39.6508 76.2726 31.2474L71.3221 36.1964Z" fill="#5859F4"/>
<defs>
<filter id="filter0_d_221_1197" x="0" y="97" width="420" height="286" filterUnits="userSpaceOnUse" color-interpolation-filters="sRGB">
<feFlood flood-opacity="0" result="BackgroundImageFix"/>
<feColorMatrix in="SourceAlpha" type="matrix" values="0 0 0 0 0 0 0 0 0 0 0 0 0 0 0 0 0 0 127 0" result="hardAlpha"/>
<feOffset/>
<feGaussianBlur stdDeviation="2"/>
<feColorMatrix type="matrix" values="0 0 0 0 0 0 0 0 0 0 0 0 0 0 0 0 0 0 0.12 0"/>
<feBlend mode="normal" in2="BackgroundImageFix" result="effect1_dropShadow_221_1197"/>
<feBlend mode="normal" in="SourceGraphic" in2="effect1_dropShadow_221_1197" result="shape"/>
</filter>
<filter id="filter1_d_221_1197" x="331.85" y="330" width="63.3001" height="29.3001" filterUnits="userSpaceOnUse" color-interpolation-filters="sRGB">
<feFlood flood-opacity="0" result="BackgroundImageFix"/>
<feColorMatrix in="SourceAlpha" type="matrix" values="0 0 0 0 0 0 0 0 0 0 0 0 0 0 0 0 0 0 127 0" result="hardAlpha"/>
<feOffset dy="1.15004"/>
<feGaussianBlur stdDeviation="0.575019"/>
<feColorMatrix type="matrix" values="0 0 0 0 0 0 0 0 0 0 0 0 0 0 0 0 0 0 0.12 0"/>
<feBlend mode="normal" in2="BackgroundImageFix" result="effect1_dropShadow_221_1197"/>
<feBlend mode="normal" in="SourceGraphic" in2="effect1_dropShadow_221_1197" result="shape"/>
</filter>
</defs>
</svg>
