<svg width="67" height="58" viewBox="0 0 67 58" fill="none" xmlns="http://www.w3.org/2000/svg">
<path d="M35.866 7.34772C36.3392 5.35069 39.1539 5.27673 39.7313 7.24615L43.676 20.7012C43.8648 21.3449 44.3636 21.8512 45.0045 22.0493L58.8204 26.3209C60.7934 26.9309 60.6601 29.767 58.6387 30.1894L45.1852 33.0003C44.4452 33.1549 43.8557 33.7135 43.6614 34.444L39.6326 49.5954C39.0995 51.6004 36.2429 51.5678 35.7557 49.5512L32.1165 34.4888C31.9343 33.7344 31.332 33.1535 30.5715 32.9987L16.9068 30.2165C14.8624 29.8003 14.7412 26.9242 16.7433 26.3375L31.3422 22.059C32.0319 21.8568 32.5602 21.3002 32.7259 20.6008L35.866 7.34772Z" fill="#E16BFF" fill-opacity="0.75"/>
<path fill-rule="evenodd" clip-rule="evenodd" d="M38.7614 17.4187C36.6888 15.381 33.8771 14.2361 30.9453 14.2361C28.0135 14.2361 25.2019 15.381 23.1293 17.4187L20.9995 19.5118L18.8696 17.4187C14.5529 13.1766 7.55421 13.1766 3.23752 17.4187C-1.07917 21.6609 -1.07917 28.5388 3.23752 32.7809L5.36734 34.8739L19.5976 48.8585C20.3758 49.6232 21.6232 49.6231 22.4013 48.8585L36.6316 34.8739L38.7614 32.7809C40.835 30.7441 42 27.981 42 25.0998C42 22.2187 40.835 19.4556 38.7614 17.4187Z" fill="#5859F4" fill-opacity="0.5"/>
</svg>
