<svg width="465" height="353" viewBox="0 0 465 353" fill="none" xmlns="http://www.w3.org/2000/svg">
<g filter="url(#filter0_d_221_1194)">
<rect x="391" y="294" width="61" height="27" rx="4.60015" fill="#5859F4"/>
<path d="M414.594 309.605C414.594 309.281 414.479 309.032 414.25 308.857C414.025 308.682 413.615 308.505 413.022 308.326C412.429 308.148 411.958 307.949 411.607 307.73C410.937 307.309 410.601 306.759 410.601 306.082C410.601 305.489 410.842 305.001 411.324 304.617C411.809 304.233 412.438 304.04 413.209 304.04C413.721 304.04 414.178 304.135 414.579 304.323C414.98 304.512 415.295 304.782 415.524 305.132C415.753 305.479 415.868 305.865 415.868 306.289H414.594C414.594 305.905 414.473 305.605 414.23 305.39C413.991 305.171 413.647 305.061 413.199 305.061C412.781 305.061 412.456 305.151 412.224 305.329C411.995 305.508 411.88 305.757 411.88 306.077C411.88 306.347 412.005 306.572 412.254 306.754C412.503 306.933 412.914 307.108 413.487 307.28C414.06 307.448 414.52 307.642 414.867 307.861C415.214 308.077 415.468 308.326 415.63 308.609C415.792 308.889 415.873 309.217 415.873 309.595C415.873 310.208 415.637 310.696 415.165 311.06C414.697 311.421 414.06 311.601 413.255 311.601C412.722 311.601 412.232 311.503 411.784 311.308C411.339 311.109 410.992 310.836 410.743 310.489C410.497 310.142 410.374 309.738 410.374 309.276H411.653C411.653 309.694 411.791 310.018 412.067 310.247C412.343 310.476 412.739 310.59 413.255 310.59C413.699 310.59 414.033 310.501 414.255 310.322C414.481 310.141 414.594 309.901 414.594 309.605ZM420.04 311.5C419.986 311.396 419.939 311.225 419.898 310.99C419.507 311.397 419.029 311.601 418.463 311.601C417.914 311.601 417.466 311.444 417.118 311.131C416.771 310.818 416.598 310.43 416.598 309.969C416.598 309.386 416.814 308.939 417.245 308.629C417.679 308.316 418.299 308.159 419.105 308.159H419.858V307.801C419.858 307.518 419.779 307.292 419.62 307.123C419.462 306.952 419.221 306.866 418.897 306.866C418.618 306.866 418.389 306.936 418.21 307.078C418.032 307.216 417.942 307.393 417.942 307.609H416.714C416.714 307.309 416.814 307.029 417.012 306.77C417.211 306.507 417.481 306.301 417.821 306.153C418.165 306.005 418.547 305.931 418.968 305.931C419.608 305.931 420.119 306.092 420.5 306.416C420.88 306.736 421.076 307.187 421.086 307.77V310.237C421.086 310.728 421.155 311.121 421.293 311.414V311.5H420.04ZM418.69 310.616C418.933 310.616 419.16 310.557 419.373 310.439C419.588 310.321 419.75 310.162 419.858 309.964V308.933H419.196C418.741 308.933 418.399 309.012 418.17 309.17C417.941 309.329 417.826 309.553 417.826 309.842C417.826 310.078 417.904 310.267 418.059 310.408C418.217 310.547 418.427 310.616 418.69 310.616ZM424.116 309.943L425.273 306.032H426.542L424.646 311.5H423.58L421.67 306.032H422.943L424.116 309.943ZM429.546 311.601C428.768 311.601 428.136 311.357 427.651 310.868C427.169 310.376 426.928 309.723 426.928 308.907V308.756C426.928 308.21 427.033 307.723 427.242 307.295C427.454 306.864 427.75 306.529 428.131 306.289C428.512 306.05 428.936 305.931 429.405 305.931C430.149 305.931 430.724 306.168 431.128 306.643C431.536 307.118 431.74 307.79 431.74 308.66V309.155H428.166C428.204 309.606 428.353 309.964 428.616 310.226C428.882 310.489 429.216 310.621 429.617 310.621C430.18 310.621 430.638 310.393 430.992 309.938L431.654 310.57C431.435 310.897 431.142 311.151 430.774 311.333C430.41 311.512 430.001 311.601 429.546 311.601ZM429.4 306.916C429.063 306.916 428.79 307.034 428.581 307.27C428.375 307.506 428.244 307.834 428.187 308.255H430.527V308.164C430.5 307.753 430.39 307.443 430.198 307.235C430.006 307.022 429.74 306.916 429.4 306.916Z" fill="white"/>
</g>
<g filter="url(#filter1_d_221_1194)">
<path d="M4 66H461V137H4V66Z" fill="#F2F2F2"/>
<path d="M4 207H461V270C461 274.418 457.418 278 453 278H12C7.58172 278 4 274.418 4 270V207Z" fill="#F2F2F2"/>
<path d="M4 136H461V207H4V136Z" fill="white"/>
<path d="M4 12C4 7.58172 7.58172 4 12 4H453C457.418 4 461 7.58172 461 12V66H4V12Z" fill="white"/>
</g>
<rect x="85" y="88" width="321" height="9" fill="#D9D9D9"/>
<rect x="85" y="229" width="321" height="9" fill="#D9D9D9"/>
<rect x="85" y="158" width="321" height="9" fill="#D9D9D9"/>
<rect x="85" y="25" width="321" height="9" fill="#D9D9D9"/>
<rect x="85" y="104" width="267" height="10" fill="#D9D9D9"/>
<rect x="85" y="245" width="267" height="10" fill="#D9D9D9"/>
<rect x="85" y="174" width="300" height="10" fill="#D9D9D9"/>
<rect x="85" y="41" width="161" height="10" fill="#D9D9D9"/>
<circle cx="29" cy="37" r="11" fill="#EDEDED"/>
<circle cx="29" cy="174" r="11" fill="#EDEDED"/>
<path d="M30.2983 42H28.6266V33.9247L26.1605 34.7675V33.3514L30.0842 31.9077H30.2983V42Z" fill="#808080"/>
<circle cx="29" cy="101" r="11" fill="#E1E1E1"/>
<circle cx="29" cy="242" r="11" fill="#E1E1E1"/>
<path d="M32.5157 106H25.753V104.846L29.1033 101.192C29.5868 100.653 29.9299 100.204 30.1325 99.8451C30.3398 99.4813 30.4434 99.1175 30.4434 98.7537C30.4434 98.2747 30.3075 97.8879 30.0358 97.5932C29.7687 97.2984 29.4072 97.1511 28.9513 97.1511C28.4079 97.1511 27.9865 97.3169 27.6871 97.6484C27.3878 97.98 27.2381 98.4336 27.2381 99.0093H25.5595C25.5595 98.3968 25.6977 97.8465 25.974 97.3583C26.2549 96.8655 26.6533 96.4833 27.1691 96.2116C27.6894 95.9399 28.2881 95.804 28.9651 95.804C29.9414 95.804 30.7105 96.0504 31.2723 96.5432C31.8388 97.0313 32.122 97.7083 32.122 98.5741C32.122 99.076 31.9792 99.6033 31.6937 100.156C31.4128 100.704 30.9499 101.328 30.3052 102.028L27.846 104.66H32.5157V106Z" fill="#808080"/>
<path d="M31.4312 243.415H32.6815V244.762H31.4312V247H29.7526V244.762H25.4076L25.3592 243.74L29.6973 236.942H31.4312V243.415ZM27.1207 243.415H29.7526V239.215L29.6282 239.436L27.1207 243.415Z" fill="#808080"/>
<path d="M27.6941 173.204H28.7164C29.2322 173.2 29.6398 173.066 29.9391 172.804C30.243 172.541 30.395 172.161 30.395 171.664C30.395 171.185 30.2684 170.814 30.0151 170.552C29.7664 170.285 29.3842 170.151 28.8684 170.151C28.4171 170.151 28.0464 170.282 27.7562 170.545C27.4661 170.803 27.321 171.141 27.321 171.56H25.6424C25.6424 171.044 25.7783 170.575 26.05 170.151C26.3263 169.727 26.7085 169.398 27.1967 169.163C27.6894 168.924 28.2398 168.804 28.8477 168.804C29.8516 168.804 30.6391 169.057 31.2101 169.564C31.7858 170.066 32.0736 170.766 32.0736 171.664C32.0736 172.115 31.9286 172.541 31.6384 172.942C31.3529 173.338 30.9822 173.637 30.5263 173.84C31.0789 174.029 31.498 174.326 31.7835 174.731C32.0736 175.136 32.2187 175.62 32.2187 176.182C32.2187 177.084 31.9078 177.803 31.2861 178.337C30.669 178.871 29.8562 179.138 28.8477 179.138C27.8806 179.138 27.0885 178.88 26.4714 178.364C25.8543 177.849 25.5457 177.163 25.5457 176.306H27.2243C27.2243 176.748 27.3717 177.107 27.6664 177.384C27.9658 177.66 28.3664 177.798 28.8684 177.798C29.3888 177.798 29.7986 177.66 30.098 177.384C30.3973 177.107 30.547 176.707 30.547 176.182C30.547 175.652 30.3904 175.244 30.0773 174.959C29.7641 174.673 29.299 174.531 28.6819 174.531H27.6941V173.204Z" fill="#808080"/>
<path fill-rule="evenodd" clip-rule="evenodd" d="M434.8 94.4L438.8 98.4L428.4 108.8H424.4V104.8L434.8 94.4V94.4Z" stroke="#B1B1B1" stroke-width="1.6" stroke-linecap="round" stroke-linejoin="round"/>
<path fill-rule="evenodd" clip-rule="evenodd" d="M434.8 235.4L438.8 239.4L428.4 249.8H424.4V245.8L434.8 235.4V235.4Z" stroke="#B1B1B1" stroke-width="1.6" stroke-linecap="round" stroke-linejoin="round"/>
<path fill-rule="evenodd" clip-rule="evenodd" d="M434.8 164.4L438.8 168.4L428.4 178.8H424.4V174.8L434.8 164.4V164.4Z" stroke="#B1B1B1" stroke-width="1.6" stroke-linecap="round" stroke-linejoin="round"/>
<path fill-rule="evenodd" clip-rule="evenodd" d="M434.8 27.4L438.8 31.4L428.4 41.8H424.4V37.8L434.8 27.4V27.4Z" stroke="#B1B1B1" stroke-width="1.6" stroke-linecap="round" stroke-linejoin="round"/>
<path d="M63.5 36.634C64.1667 37.0189 64.1667 37.9811 63.5 38.366L53.75 43.9952C53.0833 44.3801 52.25 43.899 52.25 43.1292L52.25 31.8708C52.25 31.101 53.0833 30.6199 53.75 31.0048L63.5 36.634Z" fill="#C4C4C4"/>
<path d="M63.5 100.634C64.1667 101.019 64.1667 101.981 63.5 102.366L53.75 107.995C53.0833 108.38 52.25 107.899 52.25 107.129L52.25 95.8708C52.25 95.101 53.0833 94.6199 53.75 95.0048L63.5 100.634Z" fill="#C4C4C4"/>
<path d="M63.5 241.634C64.1667 242.019 64.1667 242.981 63.5 243.366L53.75 248.995C53.0833 249.38 52.25 248.899 52.25 248.129L52.25 236.871C52.25 236.101 53.0833 235.62 53.75 236.005L63.5 241.634Z" fill="#C4C4C4"/>
<path d="M63.5 171.634C64.1667 172.019 64.1667 172.981 63.5 173.366L53.75 178.995C53.0833 179.38 52.25 178.899 52.25 178.129L52.25 166.871C52.25 166.101 53.0833 165.62 53.75 166.005L63.5 171.634Z" fill="#C4C4C4"/>
<g filter="url(#filter2_d_221_1194)">
<rect x="54" y="250" width="209" height="99" rx="8" fill="white"/>
</g>
<rect x="136" y="229" width="45" height="9" fill="#A2A3FC"/>
<path d="M156.211 237.578L150 250H166L159.789 237.578C159.052 236.104 156.948 236.104 156.211 237.578Z" fill="white"/>
<rect x="119" y="174" width="45" height="10" fill="#A2A3FC"/>
<rect x="212" y="88" width="45" height="9" fill="#A2A3FC"/>
<rect x="54" y="284" width="209" height="31" fill="#F2F2F2"/>
<rect x="121" y="25" width="45" height="9" fill="#A2A3FC"/>
<path fill-rule="evenodd" clip-rule="evenodd" d="M78.5474 294.912C78.5474 294.171 77.6909 293.759 77.1127 294.222L73.2433 297.318H70.7661C69.7907 297.318 69 298.108 69 299.084V301.916C69 302.892 69.7907 303.682 70.7661 303.682H73.2433L77.1127 306.778C77.6909 307.241 78.5474 306.829 78.5474 306.088V294.912Z" fill="#808080"/>
<path d="M87.8366 292.272C87.4343 291.869 86.782 291.869 86.3796 292.271C85.9772 292.674 85.9771 293.326 86.3794 293.728L87.8366 292.272ZM86.3794 307.272C85.9771 307.674 85.9772 308.326 86.3796 308.729C86.782 309.131 87.4343 309.131 87.8366 308.728L86.3794 307.272ZM84.0919 296.016C83.6896 295.614 83.0373 295.614 82.6349 296.016C82.2325 296.418 82.2324 297.071 82.6347 297.473L84.0919 296.016ZM82.6347 303.516C82.2324 303.919 82.2325 304.571 82.6349 304.973C83.0373 305.375 83.6896 305.375 84.0919 304.973L82.6347 303.516ZM86.3794 293.728C90.1185 297.469 90.1185 303.531 86.3794 307.272L87.8366 308.728C92.38 304.184 92.38 296.816 87.8366 292.272L86.3794 293.728ZM82.6347 297.473C84.3031 299.142 84.3031 301.847 82.6347 303.516L84.0919 304.973C86.5647 302.499 86.5647 298.49 84.0919 296.016L82.6347 297.473Z" fill="#808080"/>
<path fill-rule="evenodd" clip-rule="evenodd" d="M78.5474 325.912C78.5474 325.171 77.6909 324.759 77.1127 325.222L73.2433 328.318H70.7661C69.7907 328.318 69 329.108 69 330.084V332.916C69 333.892 69.7907 334.682 70.7661 334.682H73.2433L77.1127 337.778C77.6909 338.241 78.5474 337.829 78.5474 337.088V325.912Z" fill="#808080"/>
<path d="M87.8366 323.272C87.4343 322.869 86.782 322.869 86.3796 323.271C85.9772 323.674 85.9771 324.326 86.3794 324.728L87.8366 323.272ZM86.3794 338.272C85.9771 338.674 85.9772 339.326 86.3796 339.729C86.782 340.131 87.4343 340.131 87.8366 339.728L86.3794 338.272ZM84.0919 327.016C83.6896 326.614 83.0373 326.614 82.6349 327.016C82.2325 327.418 82.2324 328.071 82.6347 328.473L84.0919 327.016ZM82.6347 334.516C82.2324 334.919 82.2325 335.571 82.6349 335.973C83.0373 336.375 83.6896 336.375 84.0919 335.973L82.6347 334.516ZM86.3794 324.728C90.1185 328.469 90.1185 334.531 86.3794 338.272L87.8366 339.728C92.38 335.184 92.38 327.816 87.8366 323.272L86.3794 324.728ZM82.6347 328.473C84.3031 330.142 84.3031 332.847 82.6347 334.516L84.0919 335.973C86.5647 333.499 86.5647 329.49 84.0919 327.016L82.6347 328.473Z" fill="#808080"/>
<path d="M70.77 270.263V274H69.0224V263.942H72.87C73.9937 263.942 74.8848 264.235 75.5434 264.819C76.2065 265.404 76.5381 266.178 76.5381 267.141C76.5381 268.126 76.2134 268.893 75.5641 269.441C74.9193 269.989 74.0144 270.263 72.8493 270.263H70.77ZM70.77 268.861H72.87C73.4917 268.861 73.9661 268.716 74.293 268.425C74.62 268.131 74.7835 267.707 74.7835 267.154C74.7835 266.611 74.6177 266.178 74.2861 265.856C73.9546 265.529 73.4986 265.361 72.9184 265.351H70.77V268.861ZM81.6811 268.059C81.4601 268.022 81.2321 268.004 80.9972 268.004C80.2282 268.004 79.7101 268.299 79.443 268.888V274H77.7644V266.526H79.367L79.4084 267.362C79.8137 266.712 80.3755 266.388 81.0939 266.388C81.3334 266.388 81.5314 266.42 81.688 266.484L81.6811 268.059ZM82.037 270.194C82.037 269.462 82.1821 268.803 82.4722 268.218C82.7623 267.629 83.1699 267.177 83.6949 266.864C84.2199 266.546 84.8232 266.388 85.5047 266.388C86.5133 266.388 87.3307 266.712 87.957 267.362C88.5879 268.011 88.9287 268.872 88.9794 269.945L88.9863 270.339C88.9863 271.076 88.8435 271.734 88.558 272.314C88.2771 272.895 87.8718 273.344 87.3422 273.662C86.8172 273.979 86.2093 274.138 85.5185 274.138C84.4639 274.138 83.6189 273.788 82.9834 273.088C82.3525 272.384 82.037 271.446 82.037 270.277V270.194ZM83.7156 270.339C83.7156 271.108 83.8745 271.711 84.1922 272.149C84.51 272.582 84.9521 272.798 85.5185 272.798C86.085 272.798 86.5248 272.577 86.8379 272.135C87.1557 271.693 87.3146 271.046 87.3146 270.194C87.3146 269.439 87.1511 268.84 86.8241 268.398C86.5018 267.956 86.062 267.735 85.5047 267.735C84.9567 267.735 84.5215 267.953 84.1991 268.391C83.8768 268.824 83.7156 269.473 83.7156 270.339ZM91.8221 266.526L91.8704 267.389C92.4231 266.721 93.1484 266.388 94.0464 266.388C95.603 266.388 96.3951 267.279 96.4227 269.061V274H94.7441V269.158C94.7441 268.683 94.6405 268.333 94.4332 268.108C94.2306 267.877 93.8967 267.762 93.4316 267.762C92.7546 267.762 92.2504 268.068 91.9188 268.681V274H90.2402V266.526H91.8221ZM97.6835 270.194C97.6835 269.462 97.8286 268.803 98.1187 268.218C98.4088 267.629 98.8164 267.177 99.3414 266.864C99.8664 266.546 100.47 266.388 101.151 266.388C102.16 266.388 102.977 266.712 103.604 267.362C104.234 268.011 104.575 268.872 104.626 269.945L104.633 270.339C104.633 271.076 104.49 271.734 104.205 272.314C103.924 272.895 103.518 273.344 102.989 273.662C102.464 273.979 101.856 274.138 101.165 274.138C100.11 274.138 99.2654 273.788 98.6299 273.088C97.999 272.384 97.6835 271.446 97.6835 270.277V270.194ZM99.3621 270.339C99.3621 271.108 99.521 271.711 99.8388 272.149C100.157 272.582 100.599 272.798 101.165 272.798C101.732 272.798 102.171 272.577 102.484 272.135C102.802 271.693 102.961 271.046 102.961 270.194C102.961 269.439 102.798 268.84 102.471 268.398C102.148 267.956 101.708 267.735 101.151 267.735C100.603 267.735 100.168 267.953 99.8457 268.391C99.5233 268.824 99.3621 269.473 99.3621 270.339ZM110.439 273.268C109.946 273.848 109.246 274.138 108.339 274.138C107.528 274.138 106.914 273.901 106.495 273.427C106.08 272.952 105.873 272.266 105.873 271.368V266.526H107.551V271.347C107.551 272.296 107.945 272.77 108.733 272.77C109.548 272.77 110.098 272.478 110.384 271.893V266.526H112.062V274H110.48L110.439 273.268ZM115.188 266.526L115.237 267.389C115.789 266.721 116.515 266.388 117.413 266.388C118.969 266.388 119.761 267.279 119.789 269.061V274H118.11V269.158C118.11 268.683 118.007 268.333 117.799 268.108C117.597 267.877 117.263 267.762 116.798 267.762C116.121 267.762 115.617 268.068 115.285 268.681V274H113.606V266.526H115.188ZM124.435 272.798C124.854 272.798 125.201 272.676 125.478 272.432C125.754 272.188 125.901 271.886 125.92 271.527H127.502C127.483 271.992 127.338 272.427 127.066 272.833C126.795 273.233 126.426 273.551 125.961 273.786C125.496 274.021 124.994 274.138 124.455 274.138C123.41 274.138 122.581 273.8 121.968 273.123C121.356 272.446 121.05 271.511 121.05 270.318V270.145C121.05 269.008 121.354 268.098 121.962 267.417C122.569 266.731 123.398 266.388 124.448 266.388C125.337 266.388 126.06 266.648 126.617 267.168C127.179 267.684 127.474 268.363 127.502 269.206H125.92C125.901 268.778 125.754 268.425 125.478 268.149C125.206 267.873 124.858 267.735 124.435 267.735C123.891 267.735 123.472 267.933 123.177 268.329C122.883 268.72 122.733 269.316 122.728 270.118V270.387C122.728 271.198 122.873 271.803 123.163 272.204C123.458 272.6 123.882 272.798 124.435 272.798ZM131.919 274.138C130.855 274.138 129.992 273.804 129.329 273.137C128.67 272.464 128.341 271.571 128.341 270.456V270.249C128.341 269.503 128.484 268.838 128.769 268.253C129.059 267.663 129.465 267.205 129.985 266.878C130.505 266.551 131.086 266.388 131.726 266.388C132.744 266.388 133.529 266.712 134.081 267.362C134.639 268.011 134.917 268.93 134.917 270.118V270.795H130.033C130.084 271.412 130.289 271.9 130.648 272.259C131.012 272.618 131.468 272.798 132.016 272.798C132.785 272.798 133.411 272.487 133.895 271.865L134.8 272.729C134.501 273.176 134.1 273.523 133.598 273.772C133.101 274.016 132.541 274.138 131.919 274.138ZM131.719 267.735C131.258 267.735 130.885 267.896 130.6 268.218C130.319 268.541 130.139 268.99 130.061 269.565H133.259V269.441C133.223 268.879 133.073 268.455 132.81 268.17C132.548 267.88 132.184 267.735 131.719 267.735ZM145.259 271.658H141.363L140.547 274H138.731L142.53 263.942H144.098L147.904 274H146.081L145.259 271.658ZM141.853 270.249H144.768L143.311 266.077L141.853 270.249ZM149.338 274V267.769H148.198V266.526H149.338V265.842C149.338 265.013 149.568 264.373 150.029 263.921C150.489 263.47 151.134 263.245 151.963 263.245C152.258 263.245 152.571 263.286 152.902 263.369L152.861 264.681C152.677 264.644 152.462 264.626 152.218 264.626C151.417 264.626 151.016 265.038 151.016 265.863V266.526H152.536V267.769H151.016V274H149.338ZM154.211 274V267.769H153.072V266.526H154.211V265.842C154.211 265.013 154.442 264.373 154.902 263.921C155.363 263.47 156.007 263.245 156.836 263.245C157.131 263.245 157.444 263.286 157.776 263.369L157.734 264.681C157.55 264.644 157.336 264.626 157.092 264.626C156.291 264.626 155.89 265.038 155.89 265.863V266.526H157.41V267.769H155.89V274H154.211ZM161.62 274.138C160.556 274.138 159.693 273.804 159.03 273.137C158.371 272.464 158.042 271.571 158.042 270.456V270.249C158.042 269.503 158.185 268.838 158.47 268.253C158.76 267.663 159.166 267.205 159.686 266.878C160.206 266.551 160.787 266.388 161.427 266.388C162.445 266.388 163.23 266.712 163.782 267.362C164.34 268.011 164.618 268.93 164.618 270.118V270.795H159.734C159.785 271.412 159.99 271.9 160.349 272.259C160.713 272.618 161.169 272.798 161.717 272.798C162.486 272.798 163.112 272.487 163.596 271.865L164.501 272.729C164.201 273.176 163.801 273.523 163.299 273.772C162.801 274.016 162.242 274.138 161.62 274.138ZM161.42 267.735C160.959 267.735 160.586 267.896 160.301 268.218C160.02 268.541 159.84 268.99 159.762 269.565H162.96V269.441C162.923 268.879 162.774 268.455 162.511 268.17C162.249 267.88 161.885 267.735 161.42 267.735ZM168.856 272.798C169.275 272.798 169.623 272.676 169.899 272.432C170.176 272.188 170.323 271.886 170.341 271.527H171.923C171.905 271.992 171.76 272.427 171.488 272.833C171.216 273.233 170.848 273.551 170.383 273.786C169.918 274.021 169.416 274.138 168.877 274.138C167.832 274.138 167.003 273.8 166.39 273.123C165.778 272.446 165.471 271.511 165.471 270.318V270.145C165.471 269.008 165.775 268.098 166.383 267.417C166.991 266.731 167.82 266.388 168.87 266.388C169.759 266.388 170.482 266.648 171.039 267.168C171.601 267.684 171.896 268.363 171.923 269.206H170.341C170.323 268.778 170.176 268.425 169.899 268.149C169.628 267.873 169.28 267.735 168.856 267.735C168.313 267.735 167.894 267.933 167.599 268.329C167.304 268.72 167.155 269.316 167.15 270.118V270.387C167.15 271.198 167.295 271.803 167.585 272.204C167.88 272.6 168.304 272.798 168.856 272.798ZM175.153 264.709V266.526H176.472V267.769H175.153V271.941C175.153 272.227 175.208 272.434 175.319 272.563C175.434 272.688 175.636 272.75 175.927 272.75C176.12 272.75 176.316 272.727 176.514 272.681V273.979C176.132 274.085 175.763 274.138 175.409 274.138C174.119 274.138 173.474 273.427 173.474 272.004V267.769H172.245V266.526H173.474V264.709H175.153ZM185.467 274C185.393 273.857 185.328 273.625 185.273 273.302C184.739 273.86 184.085 274.138 183.311 274.138C182.561 274.138 181.948 273.924 181.474 273.496C181 273.067 180.762 272.538 180.762 271.907C180.762 271.11 181.057 270.5 181.647 270.076C182.241 269.648 183.088 269.434 184.189 269.434H185.218V268.943C185.218 268.557 185.11 268.248 184.893 268.018C184.677 267.783 184.348 267.666 183.905 267.666C183.523 267.666 183.21 267.762 182.966 267.956C182.722 268.144 182.6 268.386 182.6 268.681H180.921C180.921 268.271 181.057 267.889 181.329 267.534C181.601 267.175 181.969 266.894 182.434 266.692C182.904 266.489 183.426 266.388 184.002 266.388C184.877 266.388 185.575 266.609 186.095 267.051C186.616 267.488 186.883 268.105 186.897 268.902V272.273C186.897 272.945 186.991 273.482 187.18 273.883V274H185.467ZM183.622 272.791C183.954 272.791 184.265 272.711 184.555 272.549C184.85 272.388 185.071 272.172 185.218 271.9V270.491H184.313C183.691 270.491 183.224 270.599 182.911 270.815C182.598 271.032 182.441 271.338 182.441 271.734C182.441 272.057 182.547 272.314 182.759 272.508C182.975 272.697 183.263 272.791 183.622 272.791ZM192.703 271.969C192.703 271.67 192.578 271.442 192.33 271.285C192.086 271.129 191.678 270.99 191.107 270.871C190.536 270.751 190.059 270.599 189.677 270.415C188.839 270.01 188.42 269.422 188.42 268.653C188.42 268.009 188.692 267.47 189.235 267.037C189.778 266.604 190.469 266.388 191.307 266.388C192.201 266.388 192.921 266.609 193.469 267.051C194.022 267.493 194.298 268.066 194.298 268.771H192.62C192.62 268.448 192.5 268.181 192.261 267.969C192.021 267.753 191.703 267.645 191.307 267.645C190.939 267.645 190.637 267.73 190.402 267.9C190.172 268.071 190.057 268.299 190.057 268.584C190.057 268.842 190.165 269.042 190.382 269.185C190.598 269.328 191.036 269.473 191.694 269.62C192.353 269.763 192.868 269.936 193.242 270.139C193.619 270.337 193.898 270.576 194.077 270.857C194.262 271.138 194.354 271.479 194.354 271.879C194.354 272.552 194.075 273.097 193.518 273.516C192.961 273.931 192.231 274.138 191.328 274.138C190.716 274.138 190.17 274.028 189.691 273.807C189.212 273.586 188.839 273.282 188.572 272.895C188.305 272.508 188.171 272.091 188.171 271.644H189.801C189.824 272.04 189.974 272.347 190.25 272.563C190.527 272.775 190.893 272.881 191.349 272.881C191.791 272.881 192.127 272.798 192.357 272.632C192.588 272.462 192.703 272.241 192.703 271.969Z" fill="#808080"/>
<path d="M104.152 305.138C103.088 305.138 102.224 304.804 101.561 304.137C100.903 303.464 100.573 302.571 100.573 301.456V301.249C100.573 300.503 100.716 299.838 101.002 299.253C101.292 298.663 101.697 298.205 102.217 297.878C102.738 297.551 103.318 297.388 103.958 297.388C104.976 297.388 105.761 297.712 106.314 298.362C106.871 299.011 107.15 299.93 107.15 301.118V301.795H102.266C102.316 302.412 102.521 302.9 102.881 303.259C103.244 303.618 103.7 303.798 104.248 303.798C105.017 303.798 105.644 303.487 106.127 302.865L107.032 303.729C106.733 304.176 106.332 304.523 105.83 304.772C105.333 305.016 104.773 305.138 104.152 305.138ZM103.951 298.735C103.491 298.735 103.118 298.896 102.832 299.218C102.551 299.541 102.372 299.99 102.293 300.565H105.492V300.441C105.455 299.879 105.305 299.455 105.043 299.17C104.78 298.88 104.416 298.735 103.951 298.735ZM108.908 305V298.769H107.768V297.526H108.908V296.842C108.908 296.013 109.138 295.373 109.599 294.921C110.059 294.47 110.704 294.245 111.533 294.245C111.828 294.245 112.141 294.286 112.472 294.369L112.431 295.681C112.247 295.644 112.032 295.626 111.788 295.626C110.987 295.626 110.586 296.038 110.586 296.863V297.526H112.106V298.769H110.586V305H108.908ZM119.149 300.738H115.101V305H113.353V294.942H119.743V296.351H115.101V299.342H119.149V300.738ZM126.868 300.51H122.738V303.605H127.566V305H120.99V294.942H127.518V296.351H122.738V299.128H126.868V300.51ZM131.735 300.655L130.595 301.864V305H128.848V294.942H130.595V299.66L131.562 298.465L134.505 294.942H136.619L132.882 299.398L136.833 305H134.761L131.735 300.655ZM144.898 296.351H141.762V305H140.028V296.351H136.92V294.942H144.898V296.351Z" fill="#808080"/>
<path d="M106.652 333.658H102.756L101.941 336H100.124L103.924 325.942H105.492L109.298 336H107.474L106.652 333.658ZM103.247 332.249H106.162L104.704 328.077L103.247 332.249ZM116.099 331.738H112.051V336H110.303V325.942H116.693V327.351H112.051V330.342H116.099V331.738ZM123.736 331.738H119.688V336H117.94V325.942H124.33V327.351H119.688V330.342H123.736V331.738ZM128.554 336.138C127.49 336.138 126.627 335.804 125.964 335.137C125.305 334.464 124.976 333.571 124.976 332.456V332.249C124.976 331.503 125.118 330.838 125.404 330.253C125.694 329.663 126.099 329.205 126.62 328.878C127.14 328.551 127.72 328.388 128.361 328.388C129.378 328.388 130.163 328.712 130.716 329.362C131.273 330.011 131.552 330.93 131.552 332.118V332.795H126.668C126.719 333.412 126.924 333.9 127.283 334.259C127.647 334.618 128.103 334.798 128.651 334.798C129.42 334.798 130.046 334.487 130.53 333.865L131.435 334.729C131.135 335.176 130.735 335.523 130.233 335.772C129.735 336.016 129.176 336.138 128.554 336.138ZM128.354 329.735C127.893 329.735 127.52 329.896 127.235 330.218C126.954 330.541 126.774 330.99 126.696 331.565H129.894V331.441C129.857 330.879 129.708 330.455 129.445 330.17C129.183 329.88 128.819 329.735 128.354 329.735ZM135.148 332.795L134.402 333.562V336H132.723V325.39H134.402V331.51L134.927 330.854L136.992 328.526H139.009L136.232 331.641L139.306 336H137.365L135.148 332.795ZM142.073 326.709V328.526H143.392V329.769H142.073V333.941C142.073 334.227 142.128 334.434 142.239 334.563C142.354 334.688 142.556 334.75 142.847 334.75C143.04 334.75 143.236 334.727 143.434 334.681V335.979C143.051 336.085 142.683 336.138 142.328 336.138C141.039 336.138 140.394 335.427 140.394 334.004V329.769H139.165V328.526H140.394V326.709H142.073Z" fill="#808080"/>
<defs>
<filter id="filter0_d_221_1194" x="389.85" y="294" width="63.3001" height="29.3001" filterUnits="userSpaceOnUse" color-interpolation-filters="sRGB">
<feFlood flood-opacity="0" result="BackgroundImageFix"/>
<feColorMatrix in="SourceAlpha" type="matrix" values="0 0 0 0 0 0 0 0 0 0 0 0 0 0 0 0 0 0 127 0" result="hardAlpha"/>
<feOffset dy="1.15004"/>
<feGaussianBlur stdDeviation="0.575019"/>
<feColorMatrix type="matrix" values="0 0 0 0 0 0 0 0 0 0 0 0 0 0 0 0 0 0 0.12 0"/>
<feBlend mode="normal" in2="BackgroundImageFix" result="effect1_dropShadow_221_1194"/>
<feBlend mode="normal" in="SourceGraphic" in2="effect1_dropShadow_221_1194" result="shape"/>
</filter>
<filter id="filter1_d_221_1194" x="0" y="0" width="465" height="282" filterUnits="userSpaceOnUse" color-interpolation-filters="sRGB">
<feFlood flood-opacity="0" result="BackgroundImageFix"/>
<feColorMatrix in="SourceAlpha" type="matrix" values="0 0 0 0 0 0 0 0 0 0 0 0 0 0 0 0 0 0 127 0" result="hardAlpha"/>
<feOffset/>
<feGaussianBlur stdDeviation="2"/>
<feColorMatrix type="matrix" values="0 0 0 0 0 0 0 0 0 0 0 0 0 0 0 0 0 0 0.12 0"/>
<feBlend mode="normal" in2="BackgroundImageFix" result="effect1_dropShadow_221_1194"/>
<feBlend mode="normal" in="SourceGraphic" in2="effect1_dropShadow_221_1194" result="shape"/>
</filter>
<filter id="filter2_d_221_1194" x="50" y="246" width="217" height="107" filterUnits="userSpaceOnUse" color-interpolation-filters="sRGB">
<feFlood flood-opacity="0" result="BackgroundImageFix"/>
<feColorMatrix in="SourceAlpha" type="matrix" values="0 0 0 0 0 0 0 0 0 0 0 0 0 0 0 0 0 0 127 0" result="hardAlpha"/>
<feOffset/>
<feGaussianBlur stdDeviation="2"/>
<feColorMatrix type="matrix" values="0 0 0 0 0 0 0 0 0 0 0 0 0 0 0 0 0 0 0.12 0"/>
<feBlend mode="normal" in2="BackgroundImageFix" result="effect1_dropShadow_221_1194"/>
<feBlend mode="normal" in="SourceGraphic" in2="effect1_dropShadow_221_1194" result="shape"/>
</filter>
</defs>
</svg>
