<svg width="183" height="35" viewBox="0 0 183 35" fill="none" xmlns="http://www.w3.org/2000/svg">
<path d="M53.2295 28.378C51.7595 28.378 50.447 28.021 49.292 27.307C48.137 26.593 47.2235 25.6165 46.5515 24.3775C45.8795 23.1385 45.5435 21.7315 45.5435 20.1565C45.5435 18.5815 45.8795 17.185 46.5515 15.967C47.2235 14.728 48.137 13.762 49.292 13.069C50.447 12.355 51.7595 11.998 53.2295 11.998C54.4055 11.998 55.4345 12.2185 56.3165 12.6595C57.1985 13.1005 57.9125 13.72 58.4585 14.518V5.32H62.4905V28H58.8995L58.4585 25.7635C57.9545 26.4565 57.2825 27.0655 56.4425 27.5905C55.6235 28.1155 54.5525 28.378 53.2295 28.378ZM54.08 24.85C55.382 24.85 56.4425 24.4195 57.2615 23.5585C58.1015 22.6765 58.5215 21.553 58.5215 20.188C58.5215 18.823 58.1015 17.71 57.2615 16.849C56.4425 15.967 55.382 15.526 54.08 15.526C52.799 15.526 51.7385 15.9565 50.8985 16.8175C50.0585 17.6785 49.6385 18.7915 49.6385 20.1565C49.6385 21.5215 50.0585 22.645 50.8985 23.527C51.7385 24.409 52.799 24.85 54.08 24.85ZM72.2978 28.378C70.7228 28.378 69.3263 28.042 68.1083 27.37C66.8903 26.698 65.9348 25.753 65.2418 24.535C64.5488 23.317 64.2023 21.91 64.2023 20.314C64.2023 18.697 64.5383 17.2585 65.2103 15.9985C65.9033 14.7385 66.8483 13.762 68.0453 13.069C69.2633 12.355 70.6913 11.998 72.3293 11.998C73.8623 11.998 75.2168 12.334 76.3928 13.006C77.5688 13.678 78.4823 14.602 79.1333 15.778C79.8053 16.933 80.1413 18.2245 80.1413 19.6525C80.1413 19.8835 80.1308 20.125 80.1098 20.377C80.1098 20.629 80.0993 20.8915 80.0783 21.1645H68.2028C68.2868 22.3825 68.7068 23.338 69.4628 24.031C70.2398 24.724 71.1743 25.0705 72.2663 25.0705C73.0853 25.0705 73.7678 24.892 74.3138 24.535C74.8808 24.157 75.3008 23.674 75.5738 23.086H79.6688C79.3748 24.073 78.8813 24.976 78.1883 25.795C77.5163 26.593 76.6763 27.223 75.6683 27.685C74.6813 28.147 73.5578 28.378 72.2978 28.378ZM72.3293 15.274C71.3423 15.274 70.4708 15.5575 69.7148 16.1245C68.9588 16.6705 68.4758 17.5105 68.2658 18.6445H76.0463C75.9833 17.6155 75.6053 16.7965 74.9123 16.1875C74.2193 15.5785 73.3583 15.274 72.3293 15.274ZM89.234 28.378C87.659 28.378 86.2625 28.042 85.0445 27.37C83.8265 26.698 82.871 25.753 82.178 24.535C81.485 23.317 81.1385 21.91 81.1385 20.314C81.1385 18.697 81.4745 17.2585 82.1465 15.9985C82.8395 14.7385 83.7845 13.762 84.9815 13.069C86.1995 12.355 87.6275 11.998 89.2655 11.998C90.7985 11.998 92.153 12.334 93.329 13.006C94.505 13.678 95.4185 14.602 96.0695 15.778C96.7415 16.933 97.0775 18.2245 97.0775 19.6525C97.0775 19.8835 97.067 20.125 97.046 20.377C97.046 20.629 97.0355 20.8915 97.0145 21.1645H85.139C85.223 22.3825 85.643 23.338 86.399 24.031C87.176 24.724 88.1105 25.0705 89.2025 25.0705C90.0215 25.0705 90.704 24.892 91.25 24.535C91.817 24.157 92.237 23.674 92.51 23.086H96.605C96.311 24.073 95.8175 24.976 95.1245 25.795C94.4525 26.593 93.6125 27.223 92.6045 27.685C91.6175 28.147 90.494 28.378 89.234 28.378ZM89.2655 15.274C88.2785 15.274 87.407 15.5575 86.651 16.1245C85.895 16.6705 85.412 17.5105 85.202 18.6445H92.9825C92.9195 17.6155 92.5415 16.7965 91.8485 16.1875C91.1555 15.5785 90.2945 15.274 89.2655 15.274ZM98.5787 34.93V12.376H102.17L102.611 14.6125C103.115 13.9195 103.776 13.3105 104.595 12.7855C105.435 12.2605 106.517 11.998 107.84 11.998C109.31 11.998 110.622 12.355 111.777 13.069C112.932 13.783 113.846 14.7595 114.518 15.9985C115.19 17.2375 115.526 18.6445 115.526 20.2195C115.526 21.7945 115.19 23.2015 114.518 24.4405C113.846 25.6585 112.932 26.6245 111.777 27.3385C110.622 28.0315 109.31 28.378 107.84 28.378C106.664 28.378 105.635 28.1575 104.753 27.7165C103.871 27.2755 103.157 26.656 102.611 25.858V34.93H98.5787ZM106.989 24.85C108.27 24.85 109.331 24.4195 110.171 23.5585C111.011 22.6975 111.431 21.5845 111.431 20.2195C111.431 18.8545 111.011 17.731 110.171 16.849C109.331 15.967 108.27 15.526 106.989 15.526C105.687 15.526 104.616 15.967 103.776 16.849C102.957 17.71 102.548 18.823 102.548 20.188C102.548 21.553 102.957 22.6765 103.776 23.5585C104.616 24.4195 105.687 24.85 106.989 24.85ZM123.695 28.378C122.309 28.378 121.091 28.1575 120.041 27.7165C118.991 27.2545 118.151 26.6245 117.521 25.8265C116.891 25.0285 116.513 24.1045 116.387 23.0545H120.451C120.577 23.6635 120.913 24.1885 121.459 24.6295C122.026 25.0495 122.75 25.2595 123.632 25.2595C124.514 25.2595 125.155 25.081 125.554 24.724C125.974 24.367 126.184 23.9575 126.184 23.4955C126.184 22.8235 125.89 22.372 125.302 22.141C124.714 21.889 123.895 21.6475 122.845 21.4165C122.173 21.2695 121.49 21.091 120.797 20.881C120.104 20.671 119.464 20.4085 118.876 20.0935C118.309 19.7575 117.847 19.3375 117.49 18.8335C117.133 18.3085 116.954 17.668 116.954 16.912C116.954 15.526 117.5 14.3605 118.592 13.4155C119.705 12.4705 121.259 11.998 123.254 11.998C125.102 11.998 126.572 12.4285 127.664 13.2895C128.777 14.1505 129.439 15.337 129.649 16.849H125.837C125.606 15.694 124.735 15.1165 123.223 15.1165C122.467 15.1165 121.879 15.2635 121.459 15.5575C121.06 15.8515 120.86 16.219 120.86 16.66C120.86 17.122 121.165 17.4895 121.774 17.7625C122.383 18.0355 123.191 18.2875 124.199 18.5185C125.291 18.7705 126.289 19.054 127.192 19.369C128.116 19.663 128.851 20.1145 129.397 20.7235C129.943 21.3115 130.216 22.162 130.216 23.275C130.237 24.241 129.985 25.1125 129.46 25.8895C128.935 26.6665 128.179 27.2755 127.192 27.7165C126.205 28.1575 125.039 28.378 123.695 28.378ZM133.02 34.93L136.642 26.9605H135.697L129.618 12.376H133.996L138.375 23.3695L142.942 12.376H147.226L137.304 34.93H133.02ZM147.972 28V12.376H151.532L151.847 15.022C152.33 14.098 153.023 13.363 153.926 12.817C154.85 12.271 155.931 11.998 157.17 11.998C159.102 11.998 160.604 12.607 161.675 13.825C162.746 15.043 163.281 16.828 163.281 19.18V28H159.249V19.558C159.249 18.214 158.976 17.185 158.43 16.471C157.884 15.757 157.034 15.4 155.879 15.4C154.745 15.4 153.81 15.799 153.075 16.597C152.361 17.395 152.004 18.508 152.004 19.936V28H147.972ZM172.901 28.378C171.305 28.378 169.898 28.0315 168.68 27.3385C167.462 26.6455 166.496 25.6795 165.782 24.4405C165.089 23.2015 164.743 21.784 164.743 20.188C164.743 18.592 165.089 17.1745 165.782 15.9355C166.496 14.6965 167.462 13.7305 168.68 13.0375C169.898 12.3445 171.305 11.998 172.901 11.998C174.896 11.998 176.576 12.523 177.941 13.573C179.306 14.602 180.178 16.03 180.556 17.857H176.303C176.093 17.101 175.673 16.513 175.043 16.093C174.434 15.652 173.71 15.4315 172.87 15.4315C171.757 15.4315 170.812 15.8515 170.035 16.6915C169.258 17.5315 168.869 18.697 168.869 20.188C168.869 21.679 169.258 22.8445 170.035 23.6845C170.812 24.5245 171.757 24.9445 172.87 24.9445C173.71 24.9445 174.434 24.7345 175.043 24.3145C175.673 23.8945 176.093 23.296 176.303 22.519H180.556C180.178 24.283 179.306 25.7005 177.941 26.7715C176.576 27.8425 174.896 28.378 172.901 28.378Z" fill="white"/>
<rect y="1" width="32" height="32" rx="9" fill="#F2F2F2"/>
<path fill-rule="evenodd" clip-rule="evenodd" d="M14 12C14 10.8954 14.8954 10 16 10C17.1046 10 18 10.8954 18 12V22C18 23.1046 17.1046 24 16 24C14.8954 24 14 23.1046 14 22V12ZM20 15C20 13.8954 20.8954 13 22 13C23.1046 13 24 13.8954 24 15V19C24 20.1046 23.1046 21 22 21C20.8954 21 20 20.1046 20 19V15ZM10 13C8.89543 13 8 13.8954 8 15V19C8 20.1046 8.89543 21 10 21C11.1046 21 12 20.1046 12 19V15C12 13.8954 11.1046 13 10 13Z" fill="#5859F4"/>
</svg>
