<svg width="465" height="365" viewBox="0 0 465 365" fill="none" xmlns="http://www.w3.org/2000/svg">
<rect x="206.534" y="189.128" width="63.8019" height="28.1916" rx="7.41883" fill="#5859F4"/>
<rect x="5" y="189.128" width="63.8019" height="28.1916" rx="7.41883" fill="#5859F4"/>
<path d="M222.909 207.322H224.371V204.596H225.915C227.778 204.596 228.778 203.477 228.778 201.925C228.778 200.385 227.79 199.255 225.934 199.255H222.909V207.322ZM224.371 203.395V200.476H225.71C226.805 200.476 227.289 201.067 227.289 201.925C227.289 202.784 226.805 203.395 225.718 203.395H224.371ZM231.506 207.444C232.456 207.444 233.023 206.999 233.283 206.49H233.33V207.322H234.701V203.272C234.701 201.673 233.397 201.193 232.243 201.193C230.971 201.193 229.994 201.76 229.679 202.863L231.01 203.052C231.152 202.638 231.554 202.284 232.251 202.284C232.912 202.284 233.275 202.623 233.275 203.217V203.241C233.275 203.651 232.845 203.67 231.778 203.784C230.604 203.911 229.482 204.261 229.482 205.624C229.482 206.813 230.352 207.444 231.506 207.444ZM231.877 206.396C231.282 206.396 230.856 206.124 230.856 205.6C230.856 205.053 231.333 204.824 231.971 204.734C232.345 204.683 233.094 204.588 233.279 204.438V205.151C233.279 205.825 232.735 206.396 231.877 206.396ZM239.88 204.777C239.88 205.699 239.222 206.156 238.592 206.156C237.906 206.156 237.449 205.671 237.449 204.903V201.271H236.023V205.124C236.023 206.577 236.851 207.4 238.04 207.4C238.946 207.4 239.584 206.924 239.86 206.246H239.923V207.322H241.305V201.271H239.88V204.777ZM247.443 202.871C247.246 201.847 246.426 201.193 245.008 201.193C243.551 201.193 242.558 201.91 242.562 203.028C242.558 203.911 243.102 204.493 244.264 204.734L245.296 204.95C245.851 205.072 246.111 205.297 246.111 205.64C246.111 206.053 245.662 206.364 244.985 206.364C244.331 206.364 243.905 206.081 243.783 205.537L242.393 205.671C242.57 206.782 243.504 207.44 244.989 207.44C246.501 207.44 247.569 206.656 247.573 205.51C247.569 204.647 247.013 204.119 245.871 203.871L244.839 203.651C244.224 203.513 243.98 203.3 243.984 202.949C243.98 202.54 244.433 202.256 245.028 202.256C245.686 202.256 246.032 202.615 246.143 203.012L247.443 202.871ZM251.316 207.44C252.726 207.44 253.695 206.75 253.947 205.699L252.616 205.549C252.423 206.061 251.95 206.329 251.335 206.329C250.414 206.329 249.803 205.722 249.791 204.686H254.006V204.249C254.006 202.126 252.73 201.193 251.241 201.193C249.508 201.193 248.377 202.465 248.377 204.332C248.377 206.23 249.492 207.44 251.316 207.44ZM249.795 203.725C249.839 202.953 250.41 202.303 251.261 202.303C252.08 202.303 252.631 202.902 252.639 203.725H249.795Z" fill="white"/>
<path d="M25.8365 199.255H24.3752V207.322H25.8365V199.255ZM28.6709 203.777C28.6709 202.902 29.1987 202.398 29.951 202.398C30.6876 202.398 31.1287 202.882 31.1287 203.69V207.322H32.5546V203.469C32.5585 202.02 31.7314 201.193 30.4828 201.193C29.5768 201.193 28.9545 201.626 28.6788 202.3H28.6079V201.271H27.245V207.322H28.6709V203.777ZM36.9142 201.271H35.7208V199.822H34.2949V201.271H33.4362V202.374H34.2949V205.738C34.287 206.876 35.1142 207.436 36.1856 207.404C36.5913 207.392 36.8709 207.314 37.0245 207.262L36.7843 206.148C36.7055 206.167 36.544 206.203 36.3667 206.203C36.0083 206.203 35.7208 206.077 35.7208 205.502V202.374H36.9142V201.271ZM37.9958 207.322H39.4217V203.765C39.4217 202.997 40.0007 202.453 40.7845 202.453C41.0248 202.453 41.3241 202.496 41.4462 202.536V201.224C41.3162 201.201 41.0917 201.185 40.9342 201.185C40.2409 201.185 39.6619 201.579 39.4414 202.28H39.3783V201.271H37.9958V207.322ZM44.6725 207.44C46.445 207.44 47.5715 206.191 47.5715 204.32C47.5715 202.445 46.445 201.193 44.6725 201.193C42.9 201.193 41.7735 202.445 41.7735 204.32C41.7735 206.191 42.9 207.44 44.6725 207.44ZM44.6804 206.297C43.6996 206.297 43.2191 205.423 43.2191 204.316C43.2191 203.209 43.6996 202.323 44.6804 202.323C45.6454 202.323 46.1259 203.209 46.1259 204.316C46.1259 205.423 45.6454 206.297 44.6804 206.297Z" fill="white"/>
<rect x="72.9951" y="179.484" width="3.70942" height="47.4805" rx="1.85471" fill="#5859F4"/>
<rect x="82.6396" y="183.193" width="3.70942" height="40.8036" rx="1.85471" fill="#5859F4"/>
<rect x="92.2842" y="186.903" width="3.70942" height="32.6429" rx="1.85471" fill="#5859F4"/>
<rect x="101.929" y="190.612" width="3.70942" height="26.7078" rx="1.85471" fill="#5859F4"/>
<rect x="111.573" y="194.322" width="3.70942" height="20.0308" rx="1.85471" fill="#5859F4"/>
<rect x="121.218" y="186.903" width="3.70942" height="32.6429" rx="1.85471" fill="#5859F4"/>
<rect x="130.862" y="183.193" width="3.70942" height="40.8036" rx="1.85471" fill="#5859F4"/>
<rect x="140.506" y="179.484" width="3.70942" height="47.4805" rx="1.85471" fill="#5859F4"/>
<rect x="150.151" y="183.193" width="3.70942" height="40.8036" rx="1.85471" fill="#5859F4"/>
<rect x="159.795" y="186.903" width="3.70942" height="32.6429" rx="1.85471" fill="#5859F4"/>
<rect x="169.44" y="190.612" width="3.70942" height="26.7078" rx="1.85471" fill="#5859F4"/>
<rect x="179.084" y="186.903" width="3.70942" height="32.6429" rx="1.85471" fill="#5859F4"/>
<rect x="188.729" y="190.612" width="3.70942" height="26.7078" rx="1.85471" fill="#5859F4"/>
<rect x="198.374" y="195.805" width="3.70942" height="15.5795" rx="1.85471" fill="#5859F4"/>
<rect x="457.291" y="179.484" width="3.70942" height="47.4805" rx="1.85471" fill="#D9D9D9"/>
<rect x="399.424" y="183.193" width="3.70942" height="40.8036" rx="1.85471" fill="#D9D9D9"/>
<rect x="409.068" y="179.484" width="3.70942" height="47.4805" rx="1.85471" fill="#D9D9D9"/>
<rect x="418.713" y="183.193" width="3.70942" height="40.8036" rx="1.85471" fill="#D9D9D9"/>
<rect x="428.357" y="186.903" width="3.70942" height="32.6429" rx="1.85471" fill="#D9D9D9"/>
<rect x="438.001" y="190.612" width="3.70942" height="26.7078" rx="1.85471" fill="#D9D9D9"/>
<rect x="447.646" y="195.805" width="3.70942" height="15.5795" rx="1.85471" fill="#D9D9D9"/>
<rect x="351.201" y="195.805" width="3.70942" height="15.5795" rx="1.85471" fill="#5859F4"/>
<rect x="370.49" y="195.805" width="3.70942" height="15.5795" rx="1.85471" fill="#D9D9D9"/>
<rect x="380.135" y="190.612" width="3.70942" height="26.7078" rx="1.85471" fill="#D9D9D9"/>
<rect x="389.779" y="181.709" width="3.70942" height="43.7711" rx="1.85471" fill="#D9D9D9"/>
<rect x="274.045" y="178" width="3.70942" height="52.6737" rx="1.85471" fill="#5859F4"/>
<rect x="283.69" y="183.193" width="3.70942" height="40.8036" rx="1.85471" fill="#5859F4"/>
<rect x="293.334" y="179.484" width="3.70942" height="47.4805" rx="1.85471" fill="#5859F4"/>
<rect x="302.979" y="186.903" width="3.70942" height="32.6429" rx="1.85471" fill="#5859F4"/>
<rect x="312.623" y="190.612" width="3.70942" height="26.7078" rx="1.85471" fill="#5859F4"/>
<rect x="322.268" y="194.322" width="3.70942" height="20.0308" rx="1.85471" fill="#5859F4"/>
<rect x="360.846" y="194.322" width="3.70942" height="20.0308" rx="1.85471" fill="#5859F4"/>
<rect x="341.557" y="194.322" width="3.70942" height="20.0308" rx="1.85471" fill="#5859F4"/>
<rect x="331.912" y="195.805" width="3.70942" height="15.5795" rx="1.85471" fill="#5859F4"/>
<g filter="url(#filter0_d_221_1196)">
<path d="M4 93H461V161C461 163.209 459.209 165 457 165H8.00001C5.79087 165 4 163.209 4 161V93Z" fill="#F2F2F2"/>
<path d="M4 8C4 5.79086 5.79086 4 8 4H457C459.209 4 461 5.79086 461 8V93H4V8Z" fill="white"/>
</g>
<rect x="4" y="336.445" width="152.086" height="28.1916" rx="7.41883" fill="white"/>
<rect x="167.214" y="336.445" width="107.573" height="28.1916" rx="7.41883" fill="white"/>
<g filter="url(#filter1_d_221_1196)">
<rect x="4" y="240" width="453.291" height="80.8653" rx="8" fill="white"/>
</g>
<rect x="31" y="280.328" width="401" height="5" rx="2.5" fill="#D9D9D9"/>
<rect x="31" y="279.328" width="170" height="7" rx="3.5" fill="#808080"/>
<path d="M17.4075 355.38H18.8688V352.654H20.4128C22.2759 352.654 23.2763 351.536 23.2763 349.984C23.2763 348.444 22.2877 347.313 20.4325 347.313H17.4075V355.38ZM18.8688 351.453V348.534H20.208C21.303 348.534 21.7874 349.125 21.7874 349.984C21.7874 350.842 21.303 351.453 20.2159 351.453H18.8688ZM25.7975 347.313H24.3717V355.38H25.7975V347.313ZM28.8938 355.502C29.8431 355.502 30.4103 355.057 30.6702 354.549H30.7175V355.38H32.0882V351.331C32.0882 349.732 30.7845 349.251 29.6304 349.251C28.3581 349.251 27.3813 349.818 27.0662 350.921L28.3975 351.11C28.5393 350.697 28.9411 350.342 29.6383 350.342C30.3 350.342 30.6624 350.681 30.6624 351.276V351.299C30.6624 351.709 30.233 351.729 29.1656 351.843C27.9918 351.969 26.8693 352.319 26.8693 353.682C26.8693 354.872 27.7397 355.502 28.8938 355.502ZM29.2641 354.454C28.6693 354.454 28.2439 354.182 28.2439 353.659C28.2439 353.111 28.7205 352.883 29.3586 352.792C29.7328 352.741 30.4812 352.646 30.6663 352.497V353.21C30.6663 353.883 30.1227 354.454 29.2641 354.454ZM34.0806 357.649C35.1914 357.649 35.8334 357.078 36.1761 356.113L38.6064 349.338L37.082 349.33L35.6837 353.899H35.6207L34.2264 349.33H32.7139L34.9078 355.506L34.7857 355.833C34.5218 356.522 34.1043 356.569 33.4819 356.388L33.1511 357.499C33.3441 357.578 33.6907 357.649 34.0806 357.649ZM39.5481 355.38H40.9503V354.427H41.033C41.2575 354.868 41.7263 355.486 42.7661 355.486C44.192 355.486 45.2594 354.356 45.2594 352.363C45.2594 350.346 44.1605 349.251 42.7622 349.251C41.6948 349.251 41.2497 349.893 41.033 350.33H40.9739V347.313H39.5481V355.38ZM40.9464 352.355C40.9464 351.181 41.4505 350.421 42.3683 350.421C43.3176 350.421 43.806 351.228 43.806 352.355C43.806 353.489 43.3097 354.316 42.3683 354.316C41.4584 354.316 40.9464 353.529 40.9464 352.355ZM48.1016 355.502C49.0509 355.502 49.6181 355.057 49.878 354.549H49.9253V355.38H51.296V351.331C51.296 349.732 49.9923 349.251 48.8382 349.251C47.5659 349.251 46.5891 349.818 46.274 350.921L47.6053 351.11C47.7471 350.697 48.1489 350.342 48.8461 350.342C49.5078 350.342 49.8702 350.681 49.8702 351.276V351.299C49.8702 351.709 49.4408 351.729 48.3734 351.843C47.1996 351.969 46.0771 352.319 46.0771 353.682C46.0771 354.872 46.9475 355.502 48.1016 355.502ZM48.4719 354.454C47.8771 354.454 47.4517 354.182 47.4517 353.659C47.4517 353.111 47.9283 352.883 48.5664 352.792C48.9406 352.741 49.689 352.646 49.8741 352.497V353.21C49.8741 353.883 49.3305 354.454 48.4719 354.454ZM55.2579 355.498C56.7782 355.498 57.7472 354.596 57.8496 353.312H56.4868C56.3647 353.962 55.8959 354.336 55.2697 354.336C54.3795 354.336 53.8044 353.592 53.8044 352.355C53.8044 351.134 54.3913 350.401 55.2697 350.401C55.955 350.401 56.3765 350.842 56.4868 351.425H57.8496C57.7511 350.114 56.727 349.251 55.25 349.251C53.4775 349.251 52.3589 350.531 52.3589 352.378C52.3589 354.21 53.4499 355.498 55.2579 355.498ZM58.9095 355.38H60.3354V353.347L60.8553 352.792L62.7065 355.38H64.4121L61.9306 351.941L64.2742 349.33H62.6081L60.4338 351.76H60.3354V347.313H58.9095V355.38ZM72.2008 349.531H73.607C73.5794 348.168 72.4175 347.203 70.7001 347.203C69.0064 347.203 67.7342 348.156 67.7381 349.582C67.7381 350.74 68.5613 351.406 69.8887 351.748L70.8065 351.985C71.677 352.205 72.252 352.477 72.256 353.103C72.252 353.793 71.5982 354.253 70.645 354.253C69.7312 354.253 69.0222 353.844 68.9631 352.997H67.5254C67.5845 354.6 68.778 355.502 70.6568 355.502C72.5908 355.502 73.7133 354.537 73.7173 353.115C73.7133 351.717 72.5593 351.079 71.3461 350.791L70.5898 350.602C69.9281 350.445 69.2113 350.165 69.2191 349.491C69.2231 348.885 69.7666 348.44 70.6804 348.44C71.5509 348.44 72.126 348.845 72.2008 349.531ZM74.8461 357.649H76.272V354.427H76.3311C76.5556 354.868 77.0243 355.486 78.0641 355.486C79.49 355.486 80.5574 354.356 80.5574 352.363C80.5574 350.346 79.4585 349.251 78.0602 349.251C76.9928 349.251 76.5477 349.893 76.3311 350.33H76.2483V349.33H74.8461V357.649ZM76.2444 352.355C76.2444 351.181 76.7486 350.421 77.6663 350.421C78.6156 350.421 79.104 351.228 79.104 352.355C79.104 353.489 78.6077 354.316 77.6663 354.316C76.7564 354.316 76.2444 353.529 76.2444 352.355ZM84.346 355.498C85.7561 355.498 86.725 354.809 86.9771 353.757L85.6458 353.607C85.4528 354.119 84.9801 354.387 84.3656 354.387C83.444 354.387 82.8334 353.781 82.8216 352.745H87.0362V352.308C87.0362 350.185 85.76 349.251 84.2711 349.251C82.538 349.251 81.4076 350.523 81.4076 352.39C81.4076 354.289 82.5223 355.498 84.346 355.498ZM82.8256 351.784C82.8689 351.012 83.44 350.362 84.2908 350.362C85.1101 350.362 85.6615 350.961 85.6694 351.784H82.8256ZM90.8099 355.498C92.22 355.498 93.189 354.809 93.4411 353.757L92.1098 353.607C91.9168 354.119 91.4441 354.387 90.8296 354.387C89.9079 354.387 89.2974 353.781 89.2856 352.745H93.5002V352.308C93.5002 350.185 92.224 349.251 90.7351 349.251C89.002 349.251 87.8716 350.523 87.8716 352.39C87.8716 354.289 88.9863 355.498 90.8099 355.498ZM89.2896 351.784C89.3329 351.012 89.904 350.362 90.7548 350.362C91.5741 350.362 92.1255 350.961 92.1334 351.784H89.2896ZM96.8407 355.486C97.8805 355.486 98.3492 354.868 98.5737 354.427H98.6604V355.38H100.063V347.313H98.6328V350.33H98.5737C98.3571 349.893 97.912 349.251 96.8446 349.251C95.4463 349.251 94.3474 350.346 94.3474 352.363C94.3474 354.356 95.4148 355.486 96.8407 355.486ZM97.2385 354.316C96.2971 354.316 95.8008 353.489 95.8008 352.355C95.8008 351.228 96.2892 350.421 97.2385 350.421C98.1562 350.421 98.6604 351.181 98.6604 352.355C98.6604 353.529 98.1483 354.316 97.2385 354.316ZM104.466 352.091C104.466 354.056 104.99 355.691 106.026 357.093H107.369C106.569 356.053 105.951 353.958 105.951 352.091C105.951 350.22 106.569 348.125 107.369 347.085H106.026C104.99 348.487 104.466 350.125 104.466 352.091ZM111.631 347.313H110.241L108.236 348.601V349.94L110.122 348.735H110.17V355.38H111.631V347.313ZM114.75 349.33H113.237L115.034 352.355L113.19 355.38H114.703L115.971 353.202L117.251 355.38H118.752L116.897 352.355L118.72 349.33H117.212L115.971 351.563L114.75 349.33ZM122.257 352.091C122.257 350.125 121.733 348.491 120.697 347.089H119.354C120.153 348.128 120.772 350.224 120.772 352.091C120.772 353.962 120.153 356.057 119.354 357.097H120.697C121.733 355.695 122.257 354.056 122.257 352.091Z" fill="#828282"/>
<path d="M180.472 355.38H186.443V354.155H182.288L186.42 348.223V347.313H180.449V348.538H184.608L180.472 354.47V355.38ZM190.323 355.498C192.095 355.498 193.222 354.249 193.222 352.378C193.222 350.504 192.095 349.251 190.323 349.251C188.55 349.251 187.424 350.504 187.424 352.378C187.424 354.249 188.55 355.498 190.323 355.498ZM190.33 354.356C189.35 354.356 188.869 353.481 188.869 352.375C188.869 351.268 189.35 350.382 190.33 350.382C191.295 350.382 191.776 351.268 191.776 352.375C191.776 353.481 191.295 354.356 190.33 354.356ZM196.96 355.498C198.732 355.498 199.859 354.249 199.859 352.378C199.859 350.504 198.732 349.251 196.96 349.251C195.187 349.251 194.061 350.504 194.061 352.378C194.061 354.249 195.187 355.498 196.96 355.498ZM196.968 354.356C195.987 354.356 195.506 353.481 195.506 352.375C195.506 351.268 195.987 350.382 196.968 350.382C197.933 350.382 198.413 351.268 198.413 352.375C198.413 353.481 197.933 354.356 196.968 354.356ZM200.958 355.38H202.384V351.701C202.384 350.957 202.88 350.452 203.495 350.452C204.097 350.452 204.511 350.858 204.511 351.48V355.38H205.909V351.606C205.909 350.925 206.315 350.452 207.004 350.452C207.579 350.452 208.036 350.791 208.036 351.54V355.38H209.466V351.319C209.466 349.968 208.686 349.251 207.575 349.251C206.697 349.251 206.027 349.684 205.76 350.358H205.697C205.464 349.673 204.877 349.251 204.062 349.251C203.251 349.251 202.644 349.669 202.392 350.358H202.321V349.33H200.958V355.38Z" fill="#828282"/>
<path d="M90.4472 301.315C92.1918 301.315 93.2135 299.892 93.2135 297.417C93.2135 294.96 92.177 293.533 90.4472 293.533C88.7137 293.533 87.681 294.957 87.6773 297.417C87.6773 299.888 88.6989 301.312 90.4472 301.315ZM90.4472 300.331C89.4255 300.331 88.8096 299.305 88.8096 297.417C88.8133 295.536 89.4292 294.499 90.4472 294.499C91.4615 294.499 92.0811 295.536 92.0811 297.417C92.0811 299.305 91.4652 300.331 90.4472 300.331ZM97.1517 301.315C98.8963 301.315 99.9179 299.892 99.9179 297.417C99.9179 294.96 98.8815 293.533 97.1517 293.533C95.4182 293.533 94.3854 294.957 94.3817 297.417C94.3817 299.888 95.4034 301.312 97.1517 301.315ZM97.1517 300.331C96.13 300.331 95.5141 299.305 95.5141 297.417C95.5178 295.536 96.1337 294.499 97.1517 294.499C98.166 294.499 98.7856 295.536 98.7856 297.417C98.7856 299.305 98.1697 300.331 97.1517 300.331ZM101.968 296.469C102.37 296.469 102.705 296.141 102.705 295.731C102.705 295.329 102.37 294.997 101.968 294.997C101.562 294.997 101.23 295.329 101.23 295.731C101.23 296.141 101.562 296.469 101.968 296.469ZM101.968 300.253C102.37 300.253 102.705 299.925 102.705 299.515C102.705 299.113 102.37 298.781 101.968 298.781C101.562 298.781 101.23 299.113 101.23 299.515C101.23 299.925 101.562 300.253 101.968 300.253ZM104.168 301.19H109.14V300.213H105.739V300.157L107.24 298.586C108.623 297.188 109.018 296.521 109.018 295.676C109.018 294.462 108.03 293.533 106.606 293.533C105.193 293.533 104.16 294.448 104.16 295.827H105.249C105.245 295.016 105.769 294.485 106.584 294.485C107.351 294.485 107.934 294.957 107.934 295.709C107.934 296.377 107.535 296.856 106.724 297.716L104.168 300.364V301.19ZM113.403 293.636H112.293L110.409 294.868V295.96L112.216 294.78H112.26V301.19H113.403V293.636Z" fill="white"/>
<path d="M398.31 296.937H394.961V297.893H398.31V296.937ZM402.395 301.315C404.139 301.315 405.161 299.892 405.161 297.417C405.161 294.96 404.124 293.533 402.395 293.533C400.661 293.533 399.628 294.957 399.625 297.417C399.625 299.888 400.646 301.312 402.395 301.315ZM402.395 300.331C401.373 300.331 400.757 299.305 400.757 297.417C400.761 295.536 401.377 294.499 402.395 294.499C403.409 294.499 404.029 295.536 404.029 297.417C404.029 299.305 403.413 300.331 402.395 300.331ZM409.099 301.315C410.844 301.315 411.865 299.892 411.865 297.417C411.865 294.96 410.829 293.533 409.099 293.533C407.366 293.533 406.333 294.957 406.329 297.417C406.329 299.888 407.351 301.312 409.099 301.315ZM409.099 300.331C408.077 300.331 407.461 299.305 407.461 297.417C407.465 295.536 408.081 294.499 409.099 294.499C410.113 294.499 410.733 295.536 410.733 297.417C410.733 299.305 410.117 300.331 409.099 300.331ZM413.915 296.469C414.317 296.469 414.653 296.141 414.653 295.731C414.653 295.329 414.317 294.997 413.915 294.997C413.509 294.997 413.177 295.329 413.177 295.731C413.177 296.141 413.509 296.469 413.915 296.469ZM413.915 300.253C414.317 300.253 414.653 299.925 414.653 299.515C414.653 299.113 414.317 298.781 413.915 298.781C413.509 298.781 413.177 299.113 413.177 299.515C413.177 299.925 413.509 300.253 413.915 300.253ZM415.957 299.715H419.538V301.19H420.626V299.715H421.626V298.748H420.626V293.636H419.221L415.957 298.793V299.715ZM419.545 298.748H417.152V298.689L419.486 294.994H419.545V298.748ZM425.423 293.533C423.837 293.518 422.8 294.658 422.8 296.089C422.804 297.531 423.848 298.571 425.157 298.571C425.958 298.571 426.644 298.18 427.031 297.546H427.09C427.086 299.283 426.433 300.297 425.327 300.297C424.604 300.297 424.139 299.855 423.992 299.209H422.867C423.033 300.43 423.977 301.293 425.327 301.293C427.083 301.293 428.182 299.785 428.182 297.14C428.178 294.381 426.769 293.544 425.423 293.533ZM425.426 294.492C426.301 294.492 426.946 295.233 426.946 296.063C426.95 296.904 426.267 297.642 425.404 297.642C424.538 297.642 423.911 296.948 423.907 296.074C423.907 295.196 424.56 294.492 425.426 294.492Z" fill="white"/>
<path fill-rule="evenodd" clip-rule="evenodd" d="M137.539 345.347L144.216 350.54L137.539 355.734L137.539 345.347V345.347Z" stroke="#828282" stroke-width="1.48377" stroke-linecap="round" stroke-linejoin="round"/>
<path fill-rule="evenodd" clip-rule="evenodd" d="M129.378 345.347L136.055 350.54L129.378 355.734L129.378 345.347V345.347Z" stroke="#828282" stroke-width="1.48377" stroke-linecap="round" stroke-linejoin="round"/>
<path fill-rule="evenodd" clip-rule="evenodd" d="M226.565 355.734C229.843 355.734 232.5 353.077 232.5 349.799C232.5 346.521 229.843 343.864 226.565 343.864C223.287 343.864 220.63 346.521 220.63 349.799C220.63 353.077 223.287 355.734 226.565 355.734Z" stroke="#828282" stroke-width="1.48377" stroke-linecap="round" stroke-linejoin="round"/>
<path d="M233.984 357.218L230.756 353.99" stroke="#828282" stroke-width="1.48377" stroke-linecap="round" stroke-linejoin="round"/>
<path d="M226.565 347.573V352.024" stroke="#828282" stroke-width="1.48377" stroke-linecap="round" stroke-linejoin="round"/>
<path d="M224.339 349.799H228.791" stroke="#828282" stroke-width="1.48377" stroke-linecap="round" stroke-linejoin="round"/>
<path fill-rule="evenodd" clip-rule="evenodd" d="M250.305 355.734C253.583 355.734 256.24 353.077 256.24 349.799C256.24 346.521 253.583 343.864 250.305 343.864C247.027 343.864 244.37 346.521 244.37 349.799C244.37 353.077 247.027 355.734 250.305 355.734Z" stroke="#828282" stroke-width="1.48377" stroke-linecap="round" stroke-linejoin="round"/>
<path d="M257.724 357.218L254.497 353.99" stroke="#828282" stroke-width="1.48377" stroke-linecap="round" stroke-linejoin="round"/>
<path d="M248.08 349.799H252.531" stroke="#828282" stroke-width="1.48377" stroke-linecap="round" stroke-linejoin="round"/>
<rect x="56" y="111" width="350" height="9" fill="#D9D9D9"/>
<rect x="56" y="52" width="350" height="9" fill="#D9D9D9"/>
<rect x="56" y="127" width="350" height="10" fill="#D9D9D9"/>
<rect x="56" y="68" width="350" height="10" fill="#D9D9D9"/>
<path d="M62.9009 25.5099H58.77V28.6046H63.5986V30H57.0224V19.9422H63.5503V21.3514H58.77V24.1283H62.9009V25.5099ZM64.2654 26.2076C64.2654 25.0563 64.5325 24.1329 65.0667 23.4376C65.6009 22.7376 66.317 22.3876 67.215 22.3876C68.0071 22.3876 68.6472 22.6639 69.1354 23.2165V19.3896H70.814V30H69.2943L69.2114 29.2263C68.7094 29.8342 68.0393 30.1382 67.2012 30.1382C66.3262 30.1382 65.617 29.7859 65.0736 29.0813C64.5348 28.3767 64.2654 27.4188 64.2654 26.2076ZM65.944 26.3527C65.944 27.1125 66.089 27.7066 66.3792 28.1349C66.6739 28.5586 67.0907 28.7704 67.6295 28.7704C68.3157 28.7704 68.8176 28.4642 69.1354 27.8517V24.6602C68.8268 24.0616 68.3295 23.7622 67.6433 23.7622C67.0999 23.7622 66.6808 23.9787 66.3861 24.4116C66.0913 24.8398 65.944 25.4869 65.944 26.3527ZM74.2093 30H72.5307V22.5257H74.2093V30ZM72.4271 20.5846C72.4271 20.3267 72.5077 20.1126 72.6689 19.9422C72.8347 19.7718 73.0695 19.6866 73.3735 19.6866C73.6774 19.6866 73.9123 19.7718 74.0781 19.9422C74.2439 20.1126 74.3268 20.3267 74.3268 20.5846C74.3268 20.8379 74.2439 21.0498 74.0781 21.2201C73.9123 21.3859 73.6774 21.4688 73.3735 21.4688C73.0695 21.4688 72.8347 21.3859 72.6689 21.2201C72.5077 21.0498 72.4271 20.8379 72.4271 20.5846ZM78.0053 20.709V22.5257H79.3247V23.7691H78.0053V27.9415C78.0053 28.227 78.0606 28.4342 78.1711 28.5632C78.2862 28.6875 78.4889 28.7497 78.779 28.7497C78.9724 28.7497 79.1681 28.7267 79.3662 28.6806V29.9793C78.9839 30.0852 78.6155 30.1382 78.2609 30.1382C76.9714 30.1382 76.3267 29.4266 76.3267 28.0036V23.7691H75.0971V22.5257H76.3267V20.709H78.0053ZM82.2572 30H80.5786V22.5257H82.2572V30ZM80.475 20.5846C80.475 20.3267 80.5556 20.1126 80.7168 19.9422C80.8826 19.7718 81.1174 19.6866 81.4214 19.6866C81.7253 19.6866 81.9602 19.7718 82.126 19.9422C82.2918 20.1126 82.3747 20.3267 82.3747 20.5846C82.3747 20.8379 82.2918 21.0498 82.126 21.2201C81.9602 21.3859 81.7253 21.4688 81.4214 21.4688C81.1174 21.4688 80.8826 21.3859 80.7168 21.2201C80.5556 21.0498 80.475 20.8379 80.475 20.5846ZM85.5075 22.5257L85.5559 23.3892C86.1085 22.7214 86.8338 22.3876 87.7318 22.3876C89.2884 22.3876 90.0805 23.2787 90.1081 25.0609V30H88.4295V25.1576C88.4295 24.6833 88.3259 24.3333 88.1187 24.1076C87.916 23.8774 87.5822 23.7622 87.117 23.7622C86.4401 23.7622 85.9358 24.0685 85.6042 24.681V30H83.9256V22.5257H85.5075ZM91.3897 26.2076C91.3897 25.0471 91.6614 24.1214 92.2048 23.4307C92.7528 22.7353 93.4781 22.3876 94.3807 22.3876C95.2327 22.3876 95.9028 22.6846 96.3909 23.2787L96.4669 22.5257H97.9797V29.772C97.9797 30.753 97.6735 31.5266 97.061 32.0931C96.4531 32.6595 95.6311 32.9427 94.5949 32.9427C94.0469 32.9427 93.5104 32.8276 92.9854 32.5973C92.465 32.3717 92.0689 32.0747 91.7972 31.7062L92.5916 30.6977C93.1074 31.3102 93.7429 31.6164 94.4982 31.6164C95.0554 31.6164 95.4952 31.4645 95.8176 31.1605C96.1399 30.8612 96.3011 30.4191 96.3011 29.8342V29.3299C95.8176 29.8688 95.1728 30.1382 94.3669 30.1382C93.4919 30.1382 92.7758 29.7905 92.2186 29.0951C91.666 28.3997 91.3897 27.4372 91.3897 26.2076ZM93.0614 26.3527C93.0614 27.1033 93.2133 27.6951 93.5173 28.128C93.8258 28.5563 94.2518 28.7704 94.7952 28.7704C95.4722 28.7704 95.9742 28.4803 96.3011 27.9V24.6119C95.9834 24.0454 95.486 23.7622 94.809 23.7622C94.2564 23.7622 93.8258 23.981 93.5173 24.4185C93.2133 24.856 93.0614 25.5007 93.0614 26.3527Z" fill="#808080"/>
<path d="M303.697 26.7257C303.596 27.7987 303.2 28.6369 302.509 29.2401C301.818 29.8388 300.899 30.1382 299.753 30.1382C298.951 30.1382 298.244 29.9493 297.632 29.5717C297.024 29.1895 296.554 28.6484 296.223 27.9484C295.891 27.2484 295.718 26.4356 295.705 25.5099V24.5704C295.705 23.6218 295.873 22.7859 296.209 22.0629C296.545 21.3399 297.026 20.7826 297.653 20.3912C298.284 19.9998 299.011 19.804 299.835 19.804C300.945 19.804 301.839 20.1057 302.516 20.709C303.193 21.3122 303.586 22.1642 303.697 23.2649H301.956C301.873 22.5418 301.661 22.0215 301.321 21.7037C300.984 21.3813 300.489 21.2201 299.835 21.2201C299.076 21.2201 298.491 21.4988 298.081 22.056C297.676 22.6086 297.468 23.4214 297.459 24.4945V25.3856C297.459 26.4724 297.653 27.3013 298.039 27.8724C298.431 28.4434 299.002 28.729 299.753 28.729C300.439 28.729 300.955 28.5747 301.3 28.2661C301.645 27.9576 301.864 27.4441 301.956 26.7257H303.697ZM309.489 29.2678C308.997 29.848 308.297 30.1382 307.389 30.1382C306.579 30.1382 305.964 29.901 305.545 29.4266C305.13 28.9523 304.923 28.2661 304.923 27.3681V22.5257H306.602V27.3474C306.602 28.2961 306.996 28.7704 307.783 28.7704C308.598 28.7704 309.149 28.478 309.434 27.8931V22.5257H311.113V30H309.531L309.489 29.2678ZM316.594 24.0593C316.373 24.0224 316.145 24.004 315.91 24.004C315.141 24.004 314.623 24.2987 314.356 24.8882V30H312.677V22.5257H314.28L314.321 23.3616C314.727 22.7122 315.289 22.3876 316.007 22.3876C316.246 22.3876 316.444 22.4198 316.601 22.4843L316.594 24.0593ZM321.426 24.0593C321.205 24.0224 320.977 24.004 320.742 24.004C319.973 24.004 319.455 24.2987 319.188 24.8882V30H317.51V22.5257H319.112L319.154 23.3616C319.559 22.7122 320.121 22.3876 320.839 22.3876C321.079 22.3876 321.277 22.4198 321.433 22.4843L321.426 24.0593ZM325.499 30.1382C324.435 30.1382 323.571 29.8043 322.908 29.1365C322.25 28.4642 321.92 27.5707 321.92 26.4563V26.249C321.92 25.503 322.063 24.8375 322.349 24.2527C322.639 23.6632 323.044 23.205 323.564 22.878C324.085 22.5511 324.665 22.3876 325.305 22.3876C326.323 22.3876 327.108 22.7122 327.661 23.3616C328.218 24.0109 328.497 24.9297 328.497 26.1178V26.7948H323.613C323.663 27.4119 323.868 27.9 324.228 28.2592C324.591 28.6184 325.047 28.798 325.595 28.798C326.364 28.798 326.991 28.4872 327.474 27.8655L328.379 28.729C328.08 29.1757 327.679 29.5234 327.177 29.772C326.68 30.0161 326.12 30.1382 325.499 30.1382ZM325.298 23.7346C324.838 23.7346 324.465 23.8958 324.179 24.2181C323.898 24.5405 323.719 24.9895 323.64 25.5652H326.839V25.4408C326.802 24.879 326.652 24.4553 326.39 24.1698C326.127 23.8797 325.763 23.7346 325.298 23.7346ZM331.222 22.5257L331.27 23.3892C331.823 22.7214 332.548 22.3876 333.446 22.3876C335.003 22.3876 335.795 23.2787 335.823 25.0609V30H334.144V25.1576C334.144 24.6833 334.04 24.3333 333.833 24.1076C333.63 23.8774 333.297 23.7622 332.831 23.7622C332.154 23.7622 331.65 24.0685 331.319 24.681V30H329.64V22.5257H331.222ZM339.501 20.709V22.5257H340.82V23.7691H339.501V27.9415C339.501 28.227 339.556 28.4342 339.667 28.5632C339.782 28.6875 339.985 28.7497 340.275 28.7497C340.468 28.7497 340.664 28.7267 340.862 28.6806V29.9793C340.48 30.0852 340.111 30.1382 339.757 30.1382C338.467 30.1382 337.822 29.4266 337.822 28.0036V23.7691H336.593V22.5257H337.822V20.709H339.501ZM343.753 30H342.074V19.3896H343.753V30ZM348.06 27.5961L349.58 22.5257H351.369L348.399 31.1329C347.943 32.3901 347.169 33.0187 346.078 33.0187C345.834 33.0187 345.564 32.9773 345.269 32.8944V31.5957L345.587 31.6164C346.011 31.6164 346.329 31.5381 346.54 31.3816C346.757 31.2296 346.927 30.9717 347.052 30.6079L347.293 29.9655L344.668 22.5257H346.478L348.06 27.5961ZM357.49 26.2629V30H355.742V19.9422H359.59C360.713 19.9422 361.604 20.2346 362.263 20.8195C362.926 21.4044 363.258 22.178 363.258 23.1405C363.258 24.126 362.933 24.8928 362.284 25.4408C361.639 25.9889 360.734 26.2629 359.569 26.2629H357.49ZM357.49 24.8606H359.59C360.211 24.8606 360.686 24.7155 361.013 24.4254C361.34 24.1306 361.503 23.707 361.503 23.1543C361.503 22.6109 361.337 22.178 361.006 21.8557C360.674 21.5287 360.218 21.3606 359.638 21.3514H357.49V24.8606ZM366.273 30H364.594V19.3896H366.273V30ZM372.432 30C372.358 29.8572 372.293 29.6247 372.238 29.3023C371.704 29.8595 371.05 30.1382 370.276 30.1382C369.526 30.1382 368.913 29.924 368.439 29.4957C367.964 29.0674 367.727 28.5378 367.727 27.9069C367.727 27.1102 368.022 26.5 368.612 26.0764C369.206 25.6481 370.053 25.4339 371.154 25.4339H372.183V24.9435C372.183 24.5566 372.075 24.2481 371.858 24.0178C371.642 23.783 371.312 23.6655 370.87 23.6655C370.488 23.6655 370.175 23.7622 369.931 23.9556C369.687 24.1445 369.565 24.3862 369.565 24.681H367.886C367.886 24.2711 368.022 23.8889 368.294 23.5343C368.565 23.1751 368.934 22.8941 369.399 22.6915C369.869 22.4889 370.391 22.3876 370.967 22.3876C371.842 22.3876 372.54 22.6086 373.06 23.0507C373.581 23.4882 373.848 24.1053 373.861 24.902V28.273C373.861 28.9454 373.956 29.4819 374.145 29.8826V30H372.432ZM370.587 28.7911C370.919 28.7911 371.23 28.7105 371.52 28.5494C371.814 28.3882 372.036 28.1717 372.183 27.9V26.4908H371.278C370.656 26.4908 370.189 26.599 369.876 26.8155C369.563 27.0319 369.406 27.3382 369.406 27.7342C369.406 28.0566 369.512 28.3145 369.724 28.5079C369.94 28.6967 370.228 28.7911 370.587 28.7911ZM377.982 27.5961L379.502 22.5257H381.291L378.321 31.1329C377.865 32.3901 377.091 33.0187 376 33.0187C375.756 33.0187 375.486 32.9773 375.191 32.8944V31.5957L375.509 31.6164C375.933 31.6164 376.251 31.5381 376.462 31.3816C376.679 31.2296 376.849 30.9717 376.974 30.6079L377.215 29.9655L374.59 22.5257H376.4L377.982 27.5961ZM383.906 30H382.227V22.5257H383.906V30ZM382.124 20.5846C382.124 20.3267 382.204 20.1126 382.365 19.9422C382.531 19.7718 382.766 19.6866 383.07 19.6866C383.374 19.6866 383.609 19.7718 383.774 19.9422C383.94 20.1126 384.023 20.3267 384.023 20.5846C384.023 20.8379 383.94 21.0498 383.774 21.2201C383.609 21.3859 383.374 21.4688 383.07 21.4688C382.766 21.4688 382.531 21.3859 382.365 21.2201C382.204 21.0498 382.124 20.8379 382.124 20.5846ZM387.156 22.5257L387.204 23.3892C387.757 22.7214 388.482 22.3876 389.38 22.3876C390.937 22.3876 391.729 23.2787 391.757 25.0609V30H390.078V25.1576C390.078 24.6833 389.974 24.3333 389.767 24.1076C389.565 23.8774 389.231 23.7622 388.766 23.7622C388.089 23.7622 387.584 24.0685 387.253 24.681V30H385.574V22.5257H387.156ZM393.038 26.2076C393.038 25.0471 393.31 24.1214 393.853 23.4307C394.401 22.7353 395.127 22.3876 396.029 22.3876C396.881 22.3876 397.551 22.6846 398.039 23.2787L398.115 22.5257H399.628V29.772C399.628 30.753 399.322 31.5266 398.71 32.0931C398.102 32.6595 397.28 32.9427 396.243 32.9427C395.695 32.9427 395.159 32.8276 394.634 32.5973C394.114 32.3717 393.717 32.0747 393.446 31.7062L394.24 30.6977C394.756 31.3102 395.391 31.6164 396.147 31.6164C396.704 31.6164 397.144 31.4645 397.466 31.1605C397.788 30.8612 397.95 30.4191 397.95 29.8342V29.3299C397.466 29.8688 396.821 30.1382 396.015 30.1382C395.14 30.1382 394.424 29.7905 393.867 29.0951C393.314 28.3997 393.038 27.4372 393.038 26.2076ZM394.71 26.3527C394.71 27.1033 394.862 27.6951 395.166 28.128C395.474 28.5563 395.9 28.7704 396.444 28.7704C397.121 28.7704 397.623 28.4803 397.95 27.9V24.6119C397.632 24.0454 397.135 23.7622 396.458 23.7622C395.905 23.7622 395.474 23.981 395.166 24.4185C394.862 24.856 394.71 25.5007 394.71 26.3527ZM406.509 28.6046H411.075V30H404.761V19.9422H406.509V28.6046ZM413.897 30H412.218V22.5257H413.897V30ZM412.115 20.5846C412.115 20.3267 412.195 20.1126 412.356 19.9422C412.522 19.7718 412.757 19.6866 413.061 19.6866C413.365 19.6866 413.6 19.7718 413.766 19.9422C413.931 20.1126 414.014 20.3267 414.014 20.5846C414.014 20.8379 413.931 21.0498 413.766 21.2201C413.6 21.3859 413.365 21.4688 413.061 21.4688C412.757 21.4688 412.522 21.3859 412.356 21.2201C412.195 21.0498 412.115 20.8379 412.115 20.5846ZM417.147 22.5257L417.195 23.3892C417.748 22.7214 418.473 22.3876 419.371 22.3876C420.928 22.3876 421.72 23.2787 421.748 25.0609V30H420.069V25.1576C420.069 24.6833 419.965 24.3333 419.758 24.1076C419.556 23.8774 419.222 23.7622 418.757 23.7622C418.08 23.7622 417.575 24.0685 417.244 24.681V30H415.565V22.5257H417.147ZM426.614 30.1382C425.551 30.1382 424.687 29.8043 424.024 29.1365C423.365 28.4642 423.036 27.5707 423.036 26.4563V26.249C423.036 25.503 423.179 24.8375 423.464 24.2527C423.755 23.6632 424.16 23.205 424.68 22.878C425.201 22.5511 425.781 22.3876 426.421 22.3876C427.439 22.3876 428.224 22.7122 428.777 23.3616C429.334 24.0109 429.612 24.9297 429.612 26.1178V26.7948H424.729C424.779 27.4119 424.984 27.9 425.343 28.2592C425.707 28.6184 426.163 28.798 426.711 28.798C427.48 28.798 428.106 28.4872 428.59 27.8655L429.495 28.729C429.196 29.1757 428.795 29.5234 428.293 29.772C427.796 30.0161 427.236 30.1382 426.614 30.1382ZM426.414 23.7346C425.954 23.7346 425.581 23.8958 425.295 24.2181C425.014 24.5405 424.834 24.9895 424.756 25.5652H427.955V25.4408C427.918 24.879 427.768 24.4553 427.506 24.1698C427.243 23.8797 426.879 23.7346 426.414 23.7346ZM438.6 30H436.928V21.9247L434.462 22.7675V21.3514L438.386 19.9077H438.6V30Z" fill="#808080"/>
<path d="M110.279 27.4096C110.279 26.9675 110.123 26.6267 109.809 26.3872C109.501 26.1477 108.941 25.906 108.131 25.6619C107.32 25.4178 106.676 25.1461 106.197 24.8468C105.28 24.2711 104.822 23.5205 104.822 22.5948C104.822 21.7843 105.151 21.1165 105.81 20.5915C106.473 20.0665 107.332 19.804 108.386 19.804C109.086 19.804 109.71 19.933 110.258 20.1909C110.807 20.4488 111.237 20.8172 111.55 21.2961C111.863 21.7705 112.02 22.2978 112.02 22.878H110.279C110.279 22.353 110.113 21.9432 109.782 21.6484C109.455 21.3491 108.985 21.1994 108.373 21.1994C107.802 21.1994 107.357 21.3215 107.039 21.5655C106.726 21.8096 106.57 22.1504 106.57 22.5879C106.57 22.9563 106.74 23.2649 107.081 23.5135C107.422 23.7576 107.984 23.9971 108.766 24.232C109.549 24.4622 110.178 24.727 110.652 25.0264C111.127 25.3211 111.474 25.6619 111.695 26.0487C111.916 26.431 112.027 26.88 112.027 27.3957C112.027 28.2339 111.705 28.9017 111.06 29.399C110.42 29.8918 109.549 30.1382 108.449 30.1382C107.721 30.1382 107.051 30.0046 106.438 29.7375C105.831 29.4658 105.356 29.0928 105.015 28.6184C104.679 28.1441 104.511 27.5915 104.511 26.9606H106.259C106.259 27.5316 106.448 27.9737 106.825 28.2869C107.203 28.6 107.744 28.7566 108.449 28.7566C109.057 28.7566 109.512 28.6346 109.816 28.3905C110.125 28.1418 110.279 27.8148 110.279 27.4096ZM116.327 28.798C116.746 28.798 117.094 28.676 117.37 28.4319C117.647 28.1878 117.794 27.8862 117.812 27.527H119.394C119.376 27.9921 119.231 28.4273 118.959 28.8326C118.687 29.2332 118.319 29.551 117.854 29.7859C117.389 30.0207 116.887 30.1382 116.348 30.1382C115.303 30.1382 114.474 29.7997 113.861 29.1227C113.249 28.4457 112.942 27.5109 112.942 26.3181V26.1454C112.942 25.0079 113.246 24.0984 113.854 23.4168C114.462 22.7307 115.291 22.3876 116.341 22.3876C117.23 22.3876 117.953 22.6478 118.51 23.1682C119.072 23.6839 119.367 24.3632 119.394 25.206H117.812C117.794 24.7777 117.647 24.4254 117.37 24.1491C117.099 23.8728 116.751 23.7346 116.327 23.7346C115.784 23.7346 115.365 23.9326 115.07 24.3287C114.775 24.7201 114.626 25.3165 114.621 26.1178V26.3872C114.621 27.1977 114.766 27.8033 115.056 28.204C115.351 28.6 115.775 28.798 116.327 28.798ZM124.434 24.0593C124.213 24.0224 123.985 24.004 123.75 24.004C122.981 24.004 122.463 24.2987 122.196 24.8882V30H120.517V22.5257H122.12L122.161 23.3616C122.566 22.7122 123.128 22.3876 123.846 22.3876C124.086 22.3876 124.284 22.4198 124.441 22.4843L124.434 24.0593ZM127.138 30H125.46V22.5257H127.138V30ZM125.356 20.5846C125.356 20.3267 125.437 20.1126 125.598 19.9422C125.764 19.7718 125.998 19.6866 126.302 19.6866C126.606 19.6866 126.841 19.7718 127.007 19.9422C127.173 20.1126 127.256 20.3267 127.256 20.5846C127.256 20.8379 127.173 21.0498 127.007 21.2201C126.841 21.3859 126.606 21.4688 126.302 21.4688C125.998 21.4688 125.764 21.3859 125.598 21.2201C125.437 21.0498 125.356 20.8379 125.356 20.5846ZM135.376 26.3388C135.376 27.4948 135.113 28.4181 134.588 29.1089C134.063 29.7951 133.359 30.1382 132.475 30.1382C131.655 30.1382 130.999 29.8688 130.506 29.3299V32.8737H128.827V22.5257H130.375L130.444 23.2856C130.936 22.6869 131.607 22.3876 132.454 22.3876C133.366 22.3876 134.08 22.7284 134.595 23.4099C135.116 24.0869 135.376 25.0287 135.376 26.2352V26.3388ZM133.704 26.1938C133.704 25.4477 133.555 24.856 133.255 24.4185C132.96 23.981 132.537 23.7622 131.984 23.7622C131.298 23.7622 130.805 24.0454 130.506 24.6119V27.9277C130.81 28.5079 131.307 28.798 131.998 28.798C132.532 28.798 132.949 28.5839 133.248 28.1556C133.552 27.7227 133.704 27.0688 133.704 26.1938ZM138.764 20.709V22.5257H140.084V23.7691H138.764V27.9415C138.764 28.227 138.82 28.4342 138.93 28.5632C139.045 28.6875 139.248 28.7497 139.538 28.7497C139.731 28.7497 139.927 28.7267 140.125 28.6806V29.9793C139.743 30.0852 139.375 30.1382 139.02 30.1382C137.73 30.1382 137.086 29.4266 137.086 28.0036V23.7691H135.856V22.5257H137.086V20.709H138.764Z" fill="#AEAEAE"/>
<path d="M30.2983 68H28.6266V59.9247L26.1605 60.7675V59.3514L30.0842 57.9077H30.2983V68Z" fill="#808080"/>
<path d="M32.5157 127H25.753V125.846L29.1033 122.192C29.5868 121.653 29.9299 121.204 30.1325 120.845C30.3398 120.481 30.4434 120.117 30.4434 119.754C30.4434 119.275 30.3075 118.888 30.0358 118.593C29.7687 118.298 29.4072 118.151 28.9513 118.151C28.4079 118.151 27.9865 118.317 27.6871 118.648C27.3878 118.98 27.2381 119.434 27.2381 120.009H25.5595C25.5595 119.397 25.6977 118.846 25.974 118.358C26.2549 117.866 26.6533 117.483 27.1691 117.212C27.6894 116.94 28.2881 116.804 28.9651 116.804C29.9414 116.804 30.7105 117.05 31.2723 117.543C31.8388 118.031 32.122 118.708 32.122 119.574C32.122 120.076 31.9792 120.603 31.6937 121.156C31.4128 121.704 30.9499 122.328 30.3052 123.028L27.846 125.66H32.5157V127Z" fill="#808080"/>
<path fill-rule="evenodd" clip-rule="evenodd" d="M434.8 117.4L438.8 121.4L428.4 131.8H424.4V127.8L434.8 117.4V117.4Z" stroke="#B1B1B1" stroke-width="1.6" stroke-linecap="round" stroke-linejoin="round"/>
<path fill-rule="evenodd" clip-rule="evenodd" d="M434.8 54.4L438.8 58.4L428.4 68.8H424.4V64.8L434.8 54.4V54.4Z" stroke="#B1B1B1" stroke-width="1.6" stroke-linecap="round" stroke-linejoin="round"/>
<path d="M34.5 24.634C35.1667 25.0189 35.1667 25.9811 34.5 26.366L24.75 31.9952C24.0833 32.3801 23.25 31.899 23.25 31.1292L23.25 19.8708C23.25 19.101 24.0833 18.6199 24.75 19.0048L34.5 24.634Z" fill="#C4C4C4"/>
<defs>
<filter id="filter0_d_221_1196" x="0" y="0" width="465" height="169" filterUnits="userSpaceOnUse" color-interpolation-filters="sRGB">
<feFlood flood-opacity="0" result="BackgroundImageFix"/>
<feColorMatrix in="SourceAlpha" type="matrix" values="0 0 0 0 0 0 0 0 0 0 0 0 0 0 0 0 0 0 127 0" result="hardAlpha"/>
<feOffset/>
<feGaussianBlur stdDeviation="2"/>
<feColorMatrix type="matrix" values="0 0 0 0 0 0 0 0 0 0 0 0 0 0 0 0 0 0 0.12 0"/>
<feBlend mode="normal" in2="BackgroundImageFix" result="effect1_dropShadow_221_1196"/>
<feBlend mode="normal" in="SourceGraphic" in2="effect1_dropShadow_221_1196" result="shape"/>
</filter>
<filter id="filter1_d_221_1196" x="0" y="236" width="461.291" height="88.8652" filterUnits="userSpaceOnUse" color-interpolation-filters="sRGB">
<feFlood flood-opacity="0" result="BackgroundImageFix"/>
<feColorMatrix in="SourceAlpha" type="matrix" values="0 0 0 0 0 0 0 0 0 0 0 0 0 0 0 0 0 0 127 0" result="hardAlpha"/>
<feOffset/>
<feGaussianBlur stdDeviation="2"/>
<feColorMatrix type="matrix" values="0 0 0 0 0 0 0 0 0 0 0 0 0 0 0 0 0 0 0.12 0"/>
<feBlend mode="normal" in2="BackgroundImageFix" result="effect1_dropShadow_221_1196"/>
<feBlend mode="normal" in="SourceGraphic" in2="effect1_dropShadow_221_1196" result="shape"/>
</filter>
</defs>
</svg>
