<svg width="30" height="30" viewBox="0 0 30 30" fill="none" xmlns="http://www.w3.org/2000/svg">
<path d="M3.00002 0C1.34315 0 0 1.34315 0 3.00001V27.0001C0 28.657 1.34315 30.0001 3.00001 30.0001H27.0001C28.657 30.0001 30.0001 28.657 30.0001 27.0001V3.00002C30.0001 1.34315 28.657 0 27.0001 0H3.00002ZM24.9242 7.10495L23.3171 8.64513C23.1765 8.75228 23.1095 8.92638 23.1363 9.0938V20.4309C23.1095 20.605 23.1765 20.7791 23.3171 20.8796L24.8907 22.4198V22.7613H16.9889V22.4331L18.6162 20.8528C18.7769 20.6921 18.7769 20.6452 18.7769 20.4041V11.2367L14.2501 22.7278H13.6407L8.37058 11.2367V18.9376C8.3237 19.259 8.43754 19.5872 8.66522 19.8215L10.7813 22.3863V22.7278H4.76788V22.3863L6.88396 19.8215C7.11164 19.5872 7.21209 19.259 7.15852 18.9376V10.0313C7.1853 9.78353 7.09155 9.54246 6.90405 9.37505L5.02235 7.10495V6.76343H10.8684L15.3818 16.6742L19.3528 6.77012H24.9242V7.10495Z" fill="#F2F2F2"/>
</svg>
