<svg width="31" height="30" viewBox="0 0 31 30" fill="none" xmlns="http://www.w3.org/2000/svg">
<path d="M27.4555 0H3.29466C1.47573 0 0 1.43974 0 3.2143V26.7858C0 28.5604 1.47573 30.0001 3.29466 30.0001H27.4555C29.2744 30.0001 30.7502 28.5604 30.7502 26.7858V3.2143C30.7502 1.43974 29.2744 0 27.4555 0ZM24.0991 10.634C24.1128 10.8215 24.1128 11.0157 24.1128 11.2032C24.1128 17.009 19.5826 23.6988 11.3048 23.6988C8.75144 23.6988 6.3834 22.9756 4.39288 21.73C4.75666 21.7702 5.10672 21.7836 5.47737 21.7836C7.58458 21.7836 9.52019 21.0872 11.0646 19.9086C9.08777 19.8684 7.42671 18.6028 6.85701 16.8617C7.55026 16.9621 8.17487 16.9621 8.88872 16.7813C6.82955 16.3729 5.28518 14.605 5.28518 12.4688V12.4152C5.88234 12.7434 6.58245 12.9443 7.31689 12.971C6.69943 12.5704 6.19326 12.0268 5.84354 11.3888C5.49382 10.7508 5.31142 10.0383 5.31264 9.31478C5.31264 8.49781 5.53228 7.74781 5.92352 7.09825C8.14055 9.76344 11.4695 11.5045 15.2035 11.692C14.5651 8.7121 16.8508 6.29467 19.5964 6.29467C20.8936 6.29467 22.0605 6.82369 22.8842 7.68084C23.9 7.49334 24.8747 7.12503 25.7395 6.6228C25.4032 7.64066 24.6962 8.49781 23.7627 9.04022C24.6688 8.94647 25.5473 8.6987 26.3573 8.35718C25.7464 9.23442 24.9776 10.0112 24.0991 10.634Z" fill="#F2F2F2"/>
</svg>
