<svg width="31" height="30" viewBox="0 0 31 30" fill="none" xmlns="http://www.w3.org/2000/svg">
<path d="M28.6073 0H2.88617C1.70759 0 0.75 0.970987 0.75 2.16296V27.8372C0.75 29.0292 1.70759 30.0001 2.88617 30.0001H28.6073C29.7859 30.0001 30.7501 29.0292 30.7501 27.8372V2.16296C30.7501 0.970987 29.7859 0 28.6073 0ZM9.81701 25.7144H5.37056V11.3974H9.82371V25.7144H9.81701ZM7.59378 9.44201C6.16744 9.44201 5.01565 8.28352 5.01565 6.86387C5.01565 5.44422 6.16744 4.28574 7.59378 4.28574C9.01343 4.28574 10.1719 5.44422 10.1719 6.86387C10.1719 8.29022 9.02013 9.44201 7.59378 9.44201ZM26.4845 25.7144H22.0381V18.7501C22.0381 17.0894 22.0046 14.9532 19.7278 14.9532C17.4108 14.9532 17.0559 16.7612 17.0559 18.6296V25.7144H12.6094V11.3974H16.8751V13.3527H16.9353C17.5313 12.2277 18.9845 11.0425 21.1474 11.0425C25.6474 11.0425 26.4845 14.009 26.4845 17.8662V25.7144Z" fill="#F2F2F2"/>
</svg>
